<mxfile host="app.diagrams.net" modified="2024-05-28T02:24:36.396Z" agent="Mozilla/5.0 (Windows NT 10.0; Win64; x64) AppleWebKit/537.36 (KHTML, like Gecko) Chrome/125.0.0.0 Safari/537.36" etag="SDTliLuafTcrAycBfln7" version="24.2.5" type="github">
  <diagram name="페이지-1" id="cQKZn1Vpfa_aaE5P-DPf">
    <mxGraphModel dx="3623" dy="3227" grid="0" gridSize="10" guides="1" tooltips="1" connect="1" arrows="1" fold="1" page="1" pageScale="1" pageWidth="827" pageHeight="1169" math="0" shadow="0">
      <root>
        <mxCell id="0" />
        <mxCell id="1" parent="0" />
        <mxCell id="UStSYAw6dA9dspa87qSi-246" value="" style="group" parent="1" vertex="1" connectable="0">
          <mxGeometry x="-1410" y="-605" width="2944" height="920" as="geometry" />
        </mxCell>
        <mxCell id="UStSYAw6dA9dspa87qSi-197" value="" style="rounded=1;whiteSpace=wrap;html=1;arcSize=2;" parent="UStSYAw6dA9dspa87qSi-246" vertex="1">
          <mxGeometry width="2940" height="920" as="geometry" />
        </mxCell>
        <mxCell id="UStSYAw6dA9dspa87qSi-181" value="" style="rounded=1;whiteSpace=wrap;html=1;" parent="UStSYAw6dA9dspa87qSi-246" vertex="1">
          <mxGeometry x="1260" y="70" width="1650" height="75" as="geometry" />
        </mxCell>
        <mxCell id="UStSYAw6dA9dspa87qSi-112" value="" style="rounded=1;whiteSpace=wrap;html=1;arcSize=3;fillColor=#fff2cc;strokeColor=#d6b656;" parent="UStSYAw6dA9dspa87qSi-246" vertex="1">
          <mxGeometry x="1674.5" y="185" width="680" height="710" as="geometry" />
        </mxCell>
        <mxCell id="UStSYAw6dA9dspa87qSi-113" value="&lt;font style=&quot;font-size: 18px;&quot;&gt;유저 활동 정보를 기반으로 유저 추천 TOPIC 선정&lt;/font&gt;" style="rounded=1;whiteSpace=wrap;html=1;" parent="UStSYAw6dA9dspa87qSi-246" vertex="1">
          <mxGeometry x="1714.75" y="305" width="593" height="60" as="geometry" />
        </mxCell>
        <mxCell id="UStSYAw6dA9dspa87qSi-114" value="&lt;font style=&quot;font-size: 18px;&quot;&gt;게시글 소비 정보를 기반으로 추천 데이터 구성&lt;/font&gt;" style="rounded=1;whiteSpace=wrap;html=1;" parent="UStSYAw6dA9dspa87qSi-246" vertex="1">
          <mxGeometry x="1714.75" y="515" width="593" height="60" as="geometry" />
        </mxCell>
        <mxCell id="UStSYAw6dA9dspa87qSi-115" value="&lt;span style=&quot;font-size: 18px;&quot;&gt;유저 태그 사용 정보를 기반으로 연관 태그 추천&lt;/span&gt;" style="rounded=1;whiteSpace=wrap;html=1;" parent="UStSYAw6dA9dspa87qSi-246" vertex="1">
          <mxGeometry x="1721.25" y="715" width="593" height="60" as="geometry" />
        </mxCell>
        <mxCell id="UStSYAw6dA9dspa87qSi-116" value="" style="rounded=1;whiteSpace=wrap;html=1;arcSize=3;fillColor=#fff2cc;strokeColor=#d6b656;" parent="UStSYAw6dA9dspa87qSi-246" vertex="1">
          <mxGeometry x="2514.5" y="185" width="400" height="290" as="geometry" />
        </mxCell>
        <mxCell id="UStSYAw6dA9dspa87qSi-117" value="&lt;font style=&quot;font-size: 18px;&quot;&gt;라운지 / 커뮤니티 유저 활동 정보&lt;/font&gt;" style="rounded=1;whiteSpace=wrap;html=1;" parent="UStSYAw6dA9dspa87qSi-246" vertex="1">
          <mxGeometry x="2549.5" y="255" width="330" height="60" as="geometry" />
        </mxCell>
        <mxCell id="UStSYAw6dA9dspa87qSi-118" value="&lt;font style=&quot;font-size: 18px;&quot;&gt;라운지 / 커뮤니티 게시글 소비 정보&lt;/font&gt;" style="rounded=1;whiteSpace=wrap;html=1;" parent="UStSYAw6dA9dspa87qSi-246" vertex="1">
          <mxGeometry x="2549.5" y="325" width="330" height="60" as="geometry" />
        </mxCell>
        <mxCell id="UStSYAw6dA9dspa87qSi-119" value="&lt;font style=&quot;font-size: 18px;&quot;&gt;라운지 유저 태그 사용 정보&lt;/font&gt;" style="rounded=1;whiteSpace=wrap;html=1;" parent="UStSYAw6dA9dspa87qSi-246" vertex="1">
          <mxGeometry x="2549.5" y="395" width="330" height="60" as="geometry" />
        </mxCell>
        <mxCell id="UStSYAw6dA9dspa87qSi-120" value="" style="rounded=1;whiteSpace=wrap;html=1;arcSize=3;strokeColor=#82b366;fillColor=#d5e8d4;dashed=1;" parent="UStSYAw6dA9dspa87qSi-246" vertex="1">
          <mxGeometry x="2515.5" y="505" width="400" height="390" as="geometry" />
        </mxCell>
        <mxCell id="UStSYAw6dA9dspa87qSi-121" value="&lt;span style=&quot;font-size: 18px;&quot;&gt;L1/L2 게임 유저 플레이 정보&lt;/span&gt;" style="rounded=1;whiteSpace=wrap;html=1;fontColor=#878787;strokeColor=#787878;" parent="UStSYAw6dA9dspa87qSi-246" vertex="1">
          <mxGeometry x="2550.5" y="635" width="330" height="60" as="geometry" />
        </mxCell>
        <mxCell id="UStSYAw6dA9dspa87qSi-122" value="&lt;span style=&quot;font-size: 18px;&quot;&gt;L2 게임 찜한 정보&lt;/span&gt;" style="rounded=1;whiteSpace=wrap;html=1;fontColor=#878787;strokeColor=#787878;" parent="UStSYAw6dA9dspa87qSi-246" vertex="1">
          <mxGeometry x="2550.5" y="705" width="330" height="60" as="geometry" />
        </mxCell>
        <mxCell id="UStSYAw6dA9dspa87qSi-123" value="&lt;span style=&quot;font-size: 18px;&quot;&gt;유튜브 주제별 수집 게시글&lt;/span&gt;" style="rounded=1;whiteSpace=wrap;html=1;fontColor=#878787;strokeColor=#787878;" parent="UStSYAw6dA9dspa87qSi-246" vertex="1">
          <mxGeometry x="2550.5" y="775" width="330" height="60" as="geometry" />
        </mxCell>
        <mxCell id="UStSYAw6dA9dspa87qSi-124" value="&lt;span style=&quot;font-size: 18px;&quot;&gt;L1/L2 게임 유저 구매 정보&lt;/span&gt;" style="rounded=1;whiteSpace=wrap;html=1;fontColor=#878787;strokeColor=#787878;" parent="UStSYAw6dA9dspa87qSi-246" vertex="1">
          <mxGeometry x="2549.5" y="565" width="330" height="60" as="geometry" />
        </mxCell>
        <mxCell id="UStSYAw6dA9dspa87qSi-133" value="&lt;font style=&quot;font-size: 24px;&quot;&gt;라운지&lt;/font&gt;" style="rounded=1;whiteSpace=wrap;html=1;arcSize=7;" parent="UStSYAw6dA9dspa87qSi-246" vertex="1">
          <mxGeometry x="446" y="185" width="210" height="716" as="geometry" />
        </mxCell>
        <mxCell id="UStSYAw6dA9dspa87qSi-149" value="" style="group" parent="UStSYAw6dA9dspa87qSi-246" vertex="1" connectable="0">
          <mxGeometry x="772" y="734" width="889.5" height="30" as="geometry" />
        </mxCell>
        <mxCell id="UStSYAw6dA9dspa87qSi-145" value="" style="shape=flexArrow;endArrow=classic;html=1;rounded=0;width=33.48837209302326;endSize=11.762790697674419;" parent="UStSYAw6dA9dspa87qSi-149" edge="1">
          <mxGeometry width="50" height="50" relative="1" as="geometry">
            <mxPoint x="889.5" y="14" as="sourcePoint" />
            <mxPoint x="-107" y="15" as="targetPoint" />
          </mxGeometry>
        </mxCell>
        <mxCell id="UStSYAw6dA9dspa87qSi-146" value="연관 태그 추천 정보 제공" style="text;html=1;align=center;verticalAlign=middle;whiteSpace=wrap;rounded=0;fontSize=14;" parent="UStSYAw6dA9dspa87qSi-149" vertex="1">
          <mxGeometry x="276" width="395" height="30" as="geometry" />
        </mxCell>
        <mxCell id="UStSYAw6dA9dspa87qSi-150" value="" style="group" parent="UStSYAw6dA9dspa87qSi-246" vertex="1" connectable="0">
          <mxGeometry x="666" y="315" width="1001.5" height="30" as="geometry" />
        </mxCell>
        <mxCell id="UStSYAw6dA9dspa87qSi-129" value="" style="shape=flexArrow;endArrow=classic;html=1;rounded=0;width=33.48837209302326;endSize=11.762790697674419;" parent="UStSYAw6dA9dspa87qSi-150" edge="1">
          <mxGeometry width="50" height="50" relative="1" as="geometry">
            <mxPoint x="1004" y="15" as="sourcePoint" />
            <mxPoint y="15" as="targetPoint" />
          </mxGeometry>
        </mxCell>
        <mxCell id="UStSYAw6dA9dspa87qSi-142" value="&lt;font style=&quot;font-size: 14px;&quot;&gt;유저별 관심 TOPIC&amp;nbsp; 비율 제공(1차 버전 커뮤니티 == TOPIC)&lt;/font&gt;" style="text;html=1;align=center;verticalAlign=middle;whiteSpace=wrap;rounded=0;fontSize=18;" parent="UStSYAw6dA9dspa87qSi-150" vertex="1">
          <mxGeometry x="289" width="421" height="30" as="geometry" />
        </mxCell>
        <mxCell id="UStSYAw6dA9dspa87qSi-154" value="" style="group" parent="UStSYAw6dA9dspa87qSi-246" vertex="1" connectable="0">
          <mxGeometry x="970.5" y="437" width="550" height="170" as="geometry" />
        </mxCell>
        <mxCell id="UStSYAw6dA9dspa87qSi-170" value="" style="group" parent="UStSYAw6dA9dspa87qSi-154" vertex="1" connectable="0">
          <mxGeometry x="-9" width="550" height="170" as="geometry" />
        </mxCell>
        <mxCell id="UStSYAw6dA9dspa87qSi-152" value="" style="rounded=1;whiteSpace=wrap;html=1;arcSize=3;fillColor=#fff2cc;strokeColor=#d6b656;" parent="UStSYAw6dA9dspa87qSi-170" vertex="1">
          <mxGeometry width="550" height="170" as="geometry" />
        </mxCell>
        <mxCell id="UStSYAw6dA9dspa87qSi-135" value="&lt;font style=&quot;font-size: 18px;&quot;&gt;추천&lt;/font&gt;&lt;div&gt;&lt;span style=&quot;font-size: 18px;&quot;&gt;Bucket&lt;/span&gt;&lt;/div&gt;" style="rounded=1;whiteSpace=wrap;html=1;" parent="UStSYAw6dA9dspa87qSi-170" vertex="1">
          <mxGeometry x="30" y="50" width="90" height="90" as="geometry" />
        </mxCell>
        <mxCell id="UStSYAw6dA9dspa87qSi-136" value="&lt;font style=&quot;font-size: 18px;&quot;&gt;추천&lt;/font&gt;&lt;div&gt;&lt;span style=&quot;font-size: 18px;&quot;&gt;Bucket&lt;/span&gt;&lt;/div&gt;" style="rounded=1;whiteSpace=wrap;html=1;" parent="UStSYAw6dA9dspa87qSi-170" vertex="1">
          <mxGeometry x="130" y="50" width="90" height="90" as="geometry" />
        </mxCell>
        <mxCell id="UStSYAw6dA9dspa87qSi-137" value="&lt;font style=&quot;font-size: 18px;&quot;&gt;추천&lt;/font&gt;&lt;div&gt;&lt;span style=&quot;font-size: 18px;&quot;&gt;Bucket&lt;/span&gt;&lt;/div&gt;" style="rounded=1;whiteSpace=wrap;html=1;" parent="UStSYAw6dA9dspa87qSi-170" vertex="1">
          <mxGeometry x="230" y="48" width="93" height="94" as="geometry" />
        </mxCell>
        <mxCell id="UStSYAw6dA9dspa87qSi-138" value="&lt;font style=&quot;font-size: 18px;&quot;&gt;추천&lt;/font&gt;&lt;div&gt;&lt;span style=&quot;font-size: 18px;&quot;&gt;Bucket&lt;/span&gt;&lt;/div&gt;" style="rounded=1;whiteSpace=wrap;html=1;" parent="UStSYAw6dA9dspa87qSi-170" vertex="1">
          <mxGeometry x="420" y="45" width="97.5" height="97" as="geometry" />
        </mxCell>
        <mxCell id="UStSYAw6dA9dspa87qSi-139" value=". . ." style="text;html=1;align=center;verticalAlign=middle;whiteSpace=wrap;rounded=0;" parent="UStSYAw6dA9dspa87qSi-170" vertex="1">
          <mxGeometry x="345.75" y="75" width="60" height="30" as="geometry" />
        </mxCell>
        <mxCell id="UStSYAw6dA9dspa87qSi-153" value="&lt;div style=&quot;text-align: center;&quot;&gt;&lt;span style=&quot;font-size: 18px;&quot;&gt;topic 별 게시글 추천 그룹&lt;/span&gt;&lt;/div&gt;" style="text;whiteSpace=wrap;html=1;" parent="UStSYAw6dA9dspa87qSi-170" vertex="1">
          <mxGeometry x="14" y="7" width="240" height="30" as="geometry" />
        </mxCell>
        <mxCell id="UStSYAw6dA9dspa87qSi-176" value="&lt;div style=&quot;text-align: center;&quot;&gt;&lt;span style=&quot;font-size: 18px;&quot;&gt;&lt;b&gt;추천 서비스(COSTCO)&lt;/b&gt;&lt;/span&gt;&lt;/div&gt;" style="text;whiteSpace=wrap;html=1;" parent="UStSYAw6dA9dspa87qSi-246" vertex="1">
          <mxGeometry x="1704" y="206" width="232" height="30" as="geometry" />
        </mxCell>
        <mxCell id="UStSYAw6dA9dspa87qSi-178" value="&lt;div style=&quot;text-align: center;&quot;&gt;&lt;span style=&quot;font-size: 18px;&quot;&gt;커뮤니티 데이터&lt;/span&gt;&lt;/div&gt;" style="text;whiteSpace=wrap;html=1;" parent="UStSYAw6dA9dspa87qSi-246" vertex="1">
          <mxGeometry x="2540" y="202" width="232" height="30" as="geometry" />
        </mxCell>
        <mxCell id="UStSYAw6dA9dspa87qSi-179" value="" style="rounded=1;whiteSpace=wrap;html=1;fillColor=#fff2cc;strokeColor=#d6b656;" parent="UStSYAw6dA9dspa87qSi-246" vertex="1">
          <mxGeometry x="2530" y="92.5" width="30" height="30" as="geometry" />
        </mxCell>
        <mxCell id="UStSYAw6dA9dspa87qSi-183" value="1차 연동 및 구현 범위" style="text;html=1;align=center;verticalAlign=middle;whiteSpace=wrap;rounded=0;fontSize=13;" parent="UStSYAw6dA9dspa87qSi-246" vertex="1">
          <mxGeometry x="2550.5" y="92.5" width="149" height="30" as="geometry" />
        </mxCell>
        <mxCell id="UStSYAw6dA9dspa87qSi-184" value="" style="rounded=1;whiteSpace=wrap;html=1;fillColor=#d5e8d4;strokeColor=#82b366;" parent="UStSYAw6dA9dspa87qSi-246" vertex="1">
          <mxGeometry x="2712" y="92.5" width="30" height="30" as="geometry" />
        </mxCell>
        <mxCell id="UStSYAw6dA9dspa87qSi-185" value="1차 이후 연동 및 구현 범위" style="text;html=1;align=center;verticalAlign=middle;whiteSpace=wrap;rounded=0;fontSize=13;" parent="UStSYAw6dA9dspa87qSi-246" vertex="1">
          <mxGeometry x="2730" y="91.75" width="175" height="30" as="geometry" />
        </mxCell>
        <mxCell id="UStSYAw6dA9dspa87qSi-186" value="&lt;div style=&quot;text-align: center;&quot;&gt;&lt;span style=&quot;font-size: 18px;&quot;&gt;게임 데이터 및 외부 데이터&lt;/span&gt;&lt;/div&gt;" style="text;whiteSpace=wrap;html=1;fontColor=#787878;" parent="UStSYAw6dA9dspa87qSi-246" vertex="1">
          <mxGeometry x="2540" y="519" width="232" height="30" as="geometry" />
        </mxCell>
        <mxCell id="UStSYAw6dA9dspa87qSi-192" value="" style="group" parent="UStSYAw6dA9dspa87qSi-246" vertex="1" connectable="0">
          <mxGeometry x="2370" y="340" width="129" height="30" as="geometry" />
        </mxCell>
        <mxCell id="UStSYAw6dA9dspa87qSi-189" value="" style="shape=flexArrow;endArrow=classic;html=1;rounded=0;width=33.48837209302326;endSize=11.762790697674419;" parent="UStSYAw6dA9dspa87qSi-192" edge="1">
          <mxGeometry width="50" height="50" relative="1" as="geometry">
            <mxPoint x="124.72847682119206" y="16" as="sourcePoint" />
            <mxPoint y="16" as="targetPoint" />
          </mxGeometry>
        </mxCell>
        <mxCell id="UStSYAw6dA9dspa87qSi-190" value="&lt;span style=&quot;font-size: 14px;&quot;&gt;활동 정보 수집&lt;/span&gt;" style="text;html=1;align=center;verticalAlign=middle;whiteSpace=wrap;rounded=0;fontSize=18;" parent="UStSYAw6dA9dspa87qSi-192" vertex="1">
          <mxGeometry x="9.397350993377485" width="119.60264900662253" height="30" as="geometry" />
        </mxCell>
        <mxCell id="UStSYAw6dA9dspa87qSi-194" value="" style="group;dashed=1;" parent="UStSYAw6dA9dspa87qSi-246" vertex="1" connectable="0">
          <mxGeometry x="2369" y="682" width="129" height="30" as="geometry" />
        </mxCell>
        <mxCell id="UStSYAw6dA9dspa87qSi-195" value="" style="shape=flexArrow;endArrow=classic;html=1;rounded=0;width=33.48837209302326;endSize=11.762790697674419;dashed=1;" parent="UStSYAw6dA9dspa87qSi-194" edge="1">
          <mxGeometry width="50" height="50" relative="1" as="geometry">
            <mxPoint x="124.72847682119206" y="16" as="sourcePoint" />
            <mxPoint y="16" as="targetPoint" />
          </mxGeometry>
        </mxCell>
        <mxCell id="UStSYAw6dA9dspa87qSi-196" value="&lt;span style=&quot;font-size: 14px;&quot;&gt;&lt;font color=&quot;#787878&quot;&gt;데이터 수집&lt;/font&gt;&lt;/span&gt;" style="text;html=1;align=center;verticalAlign=middle;whiteSpace=wrap;rounded=0;fontSize=18;" parent="UStSYAw6dA9dspa87qSi-194" vertex="1">
          <mxGeometry x="9.397350993377485" width="119.60264900662253" height="30" as="geometry" />
        </mxCell>
        <mxCell id="UStSYAw6dA9dspa87qSi-214" value="" style="group" parent="UStSYAw6dA9dspa87qSi-246" vertex="1" connectable="0">
          <mxGeometry x="170.00421052631577" y="429" width="262" height="30" as="geometry" />
        </mxCell>
        <mxCell id="UStSYAw6dA9dspa87qSi-208" value="" style="shape=flexArrow;endArrow=classic;html=1;rounded=0;width=27.5;endSize=11.854166666666666;fillColor=#efd6ff;startArrow=block;" parent="UStSYAw6dA9dspa87qSi-214" edge="1">
          <mxGeometry width="50" height="50" relative="1" as="geometry">
            <mxPoint x="259.9957894736842" y="16" as="sourcePoint" />
            <mxPoint y="16" as="targetPoint" />
          </mxGeometry>
        </mxCell>
        <mxCell id="UStSYAw6dA9dspa87qSi-209" value="&lt;span style=&quot;font-size: 14px;&quot;&gt;추천글 구성2 제공 및 소비&lt;/span&gt;" style="text;html=1;align=center;verticalAlign=middle;whiteSpace=wrap;rounded=0;fontSize=18;" parent="UStSYAw6dA9dspa87qSi-214" vertex="1">
          <mxGeometry x="20" width="242" height="30" as="geometry" />
        </mxCell>
        <mxCell id="UStSYAw6dA9dspa87qSi-215" value="" style="group" parent="UStSYAw6dA9dspa87qSi-246" vertex="1" connectable="0">
          <mxGeometry x="169.00421052631577" y="635" width="265.9957894736842" height="30" as="geometry" />
        </mxCell>
        <mxCell id="UStSYAw6dA9dspa87qSi-211" value="" style="shape=flexArrow;endArrow=classic;html=1;rounded=0;width=27.5;endSize=11.854166666666666;fillColor=#DEFFE4;startArrow=block;" parent="UStSYAw6dA9dspa87qSi-215" edge="1">
          <mxGeometry width="50" height="50" relative="1" as="geometry">
            <mxPoint x="259.9957894736842" y="16" as="sourcePoint" />
            <mxPoint y="16" as="targetPoint" />
          </mxGeometry>
        </mxCell>
        <mxCell id="UStSYAw6dA9dspa87qSi-212" value="&lt;span style=&quot;font-size: 14px;&quot;&gt;추천글 구성3 제공 및 소비&lt;/span&gt;" style="text;html=1;align=center;verticalAlign=middle;whiteSpace=wrap;rounded=0;fontSize=18;" parent="UStSYAw6dA9dspa87qSi-215" vertex="1">
          <mxGeometry x="15.995789473684226" width="250" height="30" as="geometry" />
        </mxCell>
        <mxCell id="UStSYAw6dA9dspa87qSi-216" value="" style="group" parent="UStSYAw6dA9dspa87qSi-246" vertex="1" connectable="0">
          <mxGeometry x="20" y="185" width="150" height="108" as="geometry" />
        </mxCell>
        <mxCell id="UStSYAw6dA9dspa87qSi-199" value="" style="shape=actor;whiteSpace=wrap;html=1;" parent="UStSYAw6dA9dspa87qSi-216" vertex="1">
          <mxGeometry x="40" width="60" height="74" as="geometry" />
        </mxCell>
        <mxCell id="UStSYAw6dA9dspa87qSi-203" value="에픽세븐 커뮤니티 활동 유저" style="text;html=1;align=center;verticalAlign=middle;whiteSpace=wrap;rounded=0;" parent="UStSYAw6dA9dspa87qSi-216" vertex="1">
          <mxGeometry y="78" width="150" height="30" as="geometry" />
        </mxCell>
        <mxCell id="UStSYAw6dA9dspa87qSi-217" value="&#xa;&#xa;" style="group" parent="UStSYAw6dA9dspa87qSi-246" vertex="1" connectable="0">
          <mxGeometry x="20" y="388" width="150" height="110" as="geometry" />
        </mxCell>
        <mxCell id="UStSYAw6dA9dspa87qSi-200" value="" style="shape=actor;whiteSpace=wrap;html=1;" parent="UStSYAw6dA9dspa87qSi-217" vertex="1">
          <mxGeometry x="45" width="60" height="74" as="geometry" />
        </mxCell>
        <mxCell id="UStSYAw6dA9dspa87qSi-204" value="아우터플레인 커뮤니티 활동 유저" style="text;html=1;align=center;verticalAlign=middle;whiteSpace=wrap;rounded=0;" parent="UStSYAw6dA9dspa87qSi-217" vertex="1">
          <mxGeometry x="-10" y="80" width="160" height="30" as="geometry" />
        </mxCell>
        <mxCell id="UStSYAw6dA9dspa87qSi-218" value="" style="group" parent="UStSYAw6dA9dspa87qSi-246" vertex="1" connectable="0">
          <mxGeometry x="20" y="564" width="150" height="107" as="geometry" />
        </mxCell>
        <mxCell id="UStSYAw6dA9dspa87qSi-225" value="" style="group" parent="UStSYAw6dA9dspa87qSi-218" vertex="1" connectable="0">
          <mxGeometry y="38" width="150" height="105" as="geometry" />
        </mxCell>
        <mxCell id="UStSYAw6dA9dspa87qSi-201" value="" style="shape=actor;whiteSpace=wrap;html=1;" parent="UStSYAw6dA9dspa87qSi-225" vertex="1">
          <mxGeometry x="44" width="60" height="74" as="geometry" />
        </mxCell>
        <mxCell id="UStSYAw6dA9dspa87qSi-205" value="인디 활동 유저" style="text;html=1;align=center;verticalAlign=middle;whiteSpace=wrap;rounded=0;" parent="UStSYAw6dA9dspa87qSi-225" vertex="1">
          <mxGeometry y="75" width="150" height="30" as="geometry" />
        </mxCell>
        <mxCell id="UStSYAw6dA9dspa87qSi-220" value="&lt;div style=&quot;text-align: center; font-size: 15px;&quot;&gt;&lt;font style=&quot;font-size: 15px;&quot;&gt;&lt;b&gt;.&lt;/b&gt;&lt;/font&gt;&lt;/div&gt;&lt;div style=&quot;text-align: center; font-size: 15px;&quot;&gt;&lt;font style=&quot;font-size: 15px;&quot;&gt;&lt;b&gt;.&lt;/b&gt;&lt;/font&gt;&lt;/div&gt;&lt;div style=&quot;text-align: center; font-size: 15px;&quot;&gt;&lt;font style=&quot;font-size: 15px;&quot;&gt;&lt;b&gt;.&lt;/b&gt;&lt;/font&gt;&lt;/div&gt;" style="text;whiteSpace=wrap;html=1;fontColor=#787878;" parent="UStSYAw6dA9dspa87qSi-246" vertex="1">
          <mxGeometry x="2712" y="827" width="232" height="30" as="geometry" />
        </mxCell>
        <mxCell id="UStSYAw6dA9dspa87qSi-222" value="" style="group" parent="UStSYAw6dA9dspa87qSi-246" vertex="1" connectable="0">
          <mxGeometry x="1521.5" y="519" width="153" height="30" as="geometry" />
        </mxCell>
        <mxCell id="UStSYAw6dA9dspa87qSi-161" value="" style="shape=flexArrow;endArrow=classic;html=1;rounded=0;width=33.48837209302326;endSize=11.762790697674419;" parent="UStSYAw6dA9dspa87qSi-222" edge="1">
          <mxGeometry width="50" height="50" relative="1" as="geometry">
            <mxPoint x="146" y="24" as="sourcePoint" />
            <mxPoint y="24" as="targetPoint" />
          </mxGeometry>
        </mxCell>
        <mxCell id="UStSYAw6dA9dspa87qSi-164" value="&lt;span style=&quot;font-size: 14px;&quot;&gt;추천 데이터 구성&lt;/span&gt;" style="text;html=1;align=center;verticalAlign=middle;whiteSpace=wrap;rounded=0;fontSize=18;" parent="UStSYAw6dA9dspa87qSi-222" vertex="1">
          <mxGeometry x="13" y="7" width="140" height="30" as="geometry" />
        </mxCell>
        <mxCell id="UStSYAw6dA9dspa87qSi-223" value="" style="group" parent="UStSYAw6dA9dspa87qSi-246" vertex="1" connectable="0">
          <mxGeometry x="670" y="525" width="280" height="30" as="geometry" />
        </mxCell>
        <mxCell id="UStSYAw6dA9dspa87qSi-156" value="" style="shape=flexArrow;endArrow=classic;html=1;rounded=0;width=33.48837209302326;endSize=11.762790697674419;" parent="UStSYAw6dA9dspa87qSi-223" edge="1">
          <mxGeometry width="50" height="50" relative="1" as="geometry">
            <mxPoint x="280" y="15" as="sourcePoint" />
            <mxPoint y="15" as="targetPoint" />
          </mxGeometry>
        </mxCell>
        <mxCell id="UStSYAw6dA9dspa87qSi-171" value="&lt;span style=&quot;font-size: 14px;&quot;&gt;TOPIC별 유저 관심 비율 기준 게시글 조회&lt;/span&gt;" style="text;html=1;align=center;verticalAlign=middle;whiteSpace=wrap;rounded=0;fontSize=18;" parent="UStSYAw6dA9dspa87qSi-223" vertex="1">
          <mxGeometry x="20" width="246" height="30" as="geometry" />
        </mxCell>
        <mxCell id="UStSYAw6dA9dspa87qSi-227" value="*추천 글의 비율은 변경 가능합니다." style="text;html=1;align=center;verticalAlign=middle;whiteSpace=wrap;rounded=0;" parent="UStSYAw6dA9dspa87qSi-246" vertex="1">
          <mxGeometry x="17" y="890" width="236" height="30" as="geometry" />
        </mxCell>
        <mxCell id="UStSYAw6dA9dspa87qSi-230" value="" style="shape=flexArrow;endArrow=classic;html=1;rounded=0;width=9.090909090909092;endSize=3.6799999999999997;endWidth=10.472727272727273;fillColor=#FFB0AB;" parent="UStSYAw6dA9dspa87qSi-246" edge="1">
          <mxGeometry width="50" height="50" relative="1" as="geometry">
            <mxPoint x="1297" y="107.50999999999999" as="sourcePoint" />
            <mxPoint x="1277" y="107.25999999999999" as="targetPoint" />
          </mxGeometry>
        </mxCell>
        <mxCell id="UStSYAw6dA9dspa87qSi-233" value="추천글 케이스1(에픽세븐 : 50%, 인디 커뮤니티 : 30%, 로드나인 10%, 라운지 10%)" style="text;html=1;align=center;verticalAlign=middle;whiteSpace=wrap;rounded=0;fontSize=13;" parent="UStSYAw6dA9dspa87qSi-246" vertex="1">
          <mxGeometry x="1299.5" y="91.75" width="450" height="30" as="geometry" />
        </mxCell>
        <mxCell id="UStSYAw6dA9dspa87qSi-234" value="" style="shape=flexArrow;endArrow=classic;html=1;rounded=0;width=9.090909090909092;endSize=3.6799999999999997;endWidth=10.472727272727273;fillColor=#efd6ff;" parent="UStSYAw6dA9dspa87qSi-246" edge="1">
          <mxGeometry width="50" height="50" relative="1" as="geometry">
            <mxPoint x="1780" y="106.5" as="sourcePoint" />
            <mxPoint x="1760" y="106.25" as="targetPoint" />
          </mxGeometry>
        </mxCell>
        <mxCell id="UStSYAw6dA9dspa87qSi-235" value="추천글 케이스2(아우터플레인 : 50%, 인디 커뮤니티 : 30%, 라운지 20%)" style="text;html=1;align=center;verticalAlign=middle;whiteSpace=wrap;rounded=0;fontSize=13;" parent="UStSYAw6dA9dspa87qSi-246" vertex="1">
          <mxGeometry x="1781" y="92.5" width="387" height="30" as="geometry" />
        </mxCell>
        <mxCell id="UStSYAw6dA9dspa87qSi-237" value="" style="shape=flexArrow;endArrow=classic;html=1;rounded=0;width=9.090909090909092;endSize=3.6799999999999997;endWidth=10.472727272727273;fillColor=#DEFFE4;" parent="UStSYAw6dA9dspa87qSi-246" edge="1">
          <mxGeometry width="50" height="50" relative="1" as="geometry">
            <mxPoint x="2202" y="107.44000000000005" as="sourcePoint" />
            <mxPoint x="2182" y="107.19000000000005" as="targetPoint" />
          </mxGeometry>
        </mxCell>
        <mxCell id="UStSYAw6dA9dspa87qSi-238" value="추천글 구성3(인디 : 50%, 로드나인 : 30%, 라운지 20%)" style="text;html=1;align=center;verticalAlign=middle;whiteSpace=wrap;rounded=0;fontSize=13;" parent="UStSYAw6dA9dspa87qSi-246" vertex="1">
          <mxGeometry x="2201.5" y="92.5" width="322" height="30" as="geometry" />
        </mxCell>
        <mxCell id="UStSYAw6dA9dspa87qSi-206" value="" style="shape=flexArrow;endArrow=classic;html=1;rounded=0;width=27.5;endSize=11.854166666666666;fillColor=#FFB0AB;startArrow=block;" parent="UStSYAw6dA9dspa87qSi-246" edge="1">
          <mxGeometry width="50" height="50" relative="1" as="geometry">
            <mxPoint x="429" y="243" as="sourcePoint" />
            <mxPoint x="169.00421052631577" y="243" as="targetPoint" />
          </mxGeometry>
        </mxCell>
        <mxCell id="UStSYAw6dA9dspa87qSi-207" value="&lt;span style=&quot;font-size: 14px;&quot;&gt;추천글 구성1 제공 및 소비&lt;/span&gt;" style="text;html=1;align=center;verticalAlign=middle;whiteSpace=wrap;rounded=0;fontSize=18;" parent="UStSYAw6dA9dspa87qSi-246" vertex="1">
          <mxGeometry x="185" y="227" width="250" height="30" as="geometry" />
        </mxCell>
        <mxCell id="UStSYAw6dA9dspa87qSi-324" value=".&lt;div style=&quot;font-size: 21px;&quot;&gt;.&lt;/div&gt;&lt;div style=&quot;font-size: 21px;&quot;&gt;.&lt;/div&gt;&lt;div style=&quot;font-size: 21px;&quot;&gt;&lt;br style=&quot;font-size: 21px;&quot;&gt;&lt;/div&gt;" style="text;html=1;align=center;verticalAlign=middle;whiteSpace=wrap;rounded=0;fontSize=21;fontStyle=1" parent="UStSYAw6dA9dspa87qSi-246" vertex="1">
          <mxGeometry x="65" y="755" width="60" height="30" as="geometry" />
        </mxCell>
        <mxCell id="YGv0oLC9iXFQOewAsgv_-190" value="" style="group;fillColor=none;" parent="1" connectable="0" vertex="1">
          <mxGeometry x="-1334" y="-2253" width="2370" height="1234" as="geometry" />
        </mxCell>
        <mxCell id="YGv0oLC9iXFQOewAsgv_-107" value="" style="rounded=1;whiteSpace=wrap;html=1;arcSize=4;dashed=1;fillColor=#f5f5f5;fontColor=#333333;strokeColor=#666666;direction=south;" parent="YGv0oLC9iXFQOewAsgv_-190" vertex="1">
          <mxGeometry x="-29" y="37" width="821" height="1197" as="geometry" />
        </mxCell>
        <mxCell id="YGv0oLC9iXFQOewAsgv_-110" value="" style="rounded=1;whiteSpace=wrap;html=1;arcSize=6;dashed=1;fillColor=#d5e8d4;strokeColor=#82b366;fontColor=#ffffff;" parent="YGv0oLC9iXFQOewAsgv_-190" vertex="1">
          <mxGeometry x="1778" y="39" width="592" height="1195" as="geometry" />
        </mxCell>
        <mxCell id="YGv0oLC9iXFQOewAsgv_-186" style="edgeStyle=orthogonalEdgeStyle;rounded=0;orthogonalLoop=1;jettySize=auto;html=1;entryX=1;entryY=0.5;entryDx=0;entryDy=0;startArrow=block;startFill=1;endArrow=block;endFill=1;" parent="YGv0oLC9iXFQOewAsgv_-190" source="YGv0oLC9iXFQOewAsgv_-173" target="YGv0oLC9iXFQOewAsgv_-172" edge="1">
          <mxGeometry relative="1" as="geometry" />
        </mxCell>
        <mxCell id="YGv0oLC9iXFQOewAsgv_-173" value="" style="rounded=1;whiteSpace=wrap;html=1;fillColor=#f5f5f5;strokeColor=#666666;fontColor=#333333;" parent="YGv0oLC9iXFQOewAsgv_-190" vertex="1">
          <mxGeometry x="2219" y="434" width="134" height="389" as="geometry" />
        </mxCell>
        <mxCell id="YGv0oLC9iXFQOewAsgv_-105" value="" style="rounded=1;whiteSpace=wrap;html=1;arcSize=4;dashed=1;fillColor=#dae8fc;strokeColor=#6c8ebf;fontColor=#ffffff;" parent="YGv0oLC9iXFQOewAsgv_-190" vertex="1">
          <mxGeometry x="814" y="39" width="945" height="1193" as="geometry" />
        </mxCell>
        <mxCell id="YGv0oLC9iXFQOewAsgv_-98" style="edgeStyle=orthogonalEdgeStyle;rounded=0;orthogonalLoop=1;jettySize=auto;html=1;entryX=0;entryY=0.5;entryDx=0;entryDy=0;startArrow=block;startFill=1;endArrow=blockThin;endFill=1;" parent="YGv0oLC9iXFQOewAsgv_-190" source="YGv0oLC9iXFQOewAsgv_-97" target="YGv0oLC9iXFQOewAsgv_-77" edge="1">
          <mxGeometry relative="1" as="geometry" />
        </mxCell>
        <mxCell id="YGv0oLC9iXFQOewAsgv_-69" style="edgeStyle=orthogonalEdgeStyle;rounded=0;orthogonalLoop=1;jettySize=auto;html=1;" parent="YGv0oLC9iXFQOewAsgv_-190" source="YGv0oLC9iXFQOewAsgv_-12" target="YGv0oLC9iXFQOewAsgv_-44" edge="1">
          <mxGeometry relative="1" as="geometry" />
        </mxCell>
        <mxCell id="YGv0oLC9iXFQOewAsgv_-12" value="costco-consumer&lt;br&gt;(content 활동 정보 수집)&amp;nbsp;" style="rounded=1;whiteSpace=wrap;html=1;fillColor=#707060;fontColor=#ffffff;" parent="YGv0oLC9iXFQOewAsgv_-190" vertex="1">
          <mxGeometry x="1296" y="220.5" width="161" height="60" as="geometry" />
        </mxCell>
        <mxCell id="YGv0oLC9iXFQOewAsgv_-59" style="edgeStyle=orthogonalEdgeStyle;rounded=0;orthogonalLoop=1;jettySize=auto;html=1;startArrow=block;startFill=1;endArrow=block;endFill=1;strokeWidth=4;strokeColor=#FF0000;" parent="YGv0oLC9iXFQOewAsgv_-190" source="YGv0oLC9iXFQOewAsgv_-14" target="YGv0oLC9iXFQOewAsgv_-44" edge="1">
          <mxGeometry relative="1" as="geometry" />
        </mxCell>
        <mxCell id="YGv0oLC9iXFQOewAsgv_-85" style="edgeStyle=orthogonalEdgeStyle;rounded=0;orthogonalLoop=1;jettySize=auto;html=1;entryX=0.5;entryY=1;entryDx=0;entryDy=0;startArrow=block;startFill=1;endArrow=block;endFill=1;strokeColor=#FF0000;strokeWidth=4;" parent="YGv0oLC9iXFQOewAsgv_-190" source="YGv0oLC9iXFQOewAsgv_-14" target="YGv0oLC9iXFQOewAsgv_-80" edge="1">
          <mxGeometry relative="1" as="geometry" />
        </mxCell>
        <mxCell id="YGv0oLC9iXFQOewAsgv_-14" value="costco-api&lt;br&gt;(internal)" style="rounded=1;whiteSpace=wrap;html=1;strokeColor=#000000;fillColor=#BDB9B9;fontColor=#ffffff;" parent="YGv0oLC9iXFQOewAsgv_-190" vertex="1">
          <mxGeometry x="1085" y="1146" width="161" height="60" as="geometry" />
        </mxCell>
        <mxCell id="YGv0oLC9iXFQOewAsgv_-54" style="edgeStyle=orthogonalEdgeStyle;rounded=0;orthogonalLoop=1;jettySize=auto;html=1;entryX=1;entryY=0.5;entryDx=0;entryDy=0;" parent="YGv0oLC9iXFQOewAsgv_-190" target="YGv0oLC9iXFQOewAsgv_-36" edge="1">
          <mxGeometry relative="1" as="geometry">
            <mxPoint x="1336.5" y="808" as="sourcePoint" />
          </mxGeometry>
        </mxCell>
        <mxCell id="YGv0oLC9iXFQOewAsgv_-36" value="costco-collector&lt;br&gt;(DSL 실행 consumer)" style="rounded=1;whiteSpace=wrap;html=1;fillColor=#615151;fontColor=#ffffff;" parent="YGv0oLC9iXFQOewAsgv_-190" vertex="1">
          <mxGeometry x="1085" y="778" width="161" height="60" as="geometry" />
        </mxCell>
        <mxCell id="YGv0oLC9iXFQOewAsgv_-44" value="recommend DB&lt;div&gt;(grocery)&lt;/div&gt;" style="dashed=0;outlineConnect=0;html=1;align=center;labelPosition=center;verticalLabelPosition=bottom;verticalAlign=top;shape=mxgraph.webicons.mongodb;gradientColor=#DFDEDE" parent="YGv0oLC9iXFQOewAsgv_-190" vertex="1">
          <mxGeometry x="1633" y="567.8000000000001" width="102.4" height="102.4" as="geometry" />
        </mxCell>
        <mxCell id="YGv0oLC9iXFQOewAsgv_-49" value="" style="edgeStyle=orthogonalEdgeStyle;rounded=0;orthogonalLoop=1;jettySize=auto;html=1;endArrow=block;endFill=1;startArrow=block;startFill=1;" parent="YGv0oLC9iXFQOewAsgv_-190" source="YGv0oLC9iXFQOewAsgv_-47" target="YGv0oLC9iXFQOewAsgv_-44" edge="1">
          <mxGeometry relative="1" as="geometry" />
        </mxCell>
        <mxCell id="YGv0oLC9iXFQOewAsgv_-47" value="costco-collector&lt;br&gt;(batch)" style="rounded=1;whiteSpace=wrap;html=1;fillColor=#615151;strokeColor=#b85450;fontColor=#ffffff;" parent="YGv0oLC9iXFQOewAsgv_-190" vertex="1">
          <mxGeometry x="1301" y="589" width="161" height="60" as="geometry" />
        </mxCell>
        <mxCell id="YGv0oLC9iXFQOewAsgv_-50" value="Content 추천 DSL 정보 조회" style="text;html=1;align=center;verticalAlign=middle;whiteSpace=wrap;rounded=0;" parent="YGv0oLC9iXFQOewAsgv_-190" vertex="1">
          <mxGeometry x="1457" y="594" width="181" height="30" as="geometry" />
        </mxCell>
        <mxCell id="YGv0oLC9iXFQOewAsgv_-51" style="edgeStyle=orthogonalEdgeStyle;rounded=0;orthogonalLoop=1;jettySize=auto;html=1;entryX=0.5;entryY=0;entryDx=0;entryDy=0;entryPerimeter=0;" parent="YGv0oLC9iXFQOewAsgv_-190" source="YGv0oLC9iXFQOewAsgv_-47" edge="1">
          <mxGeometry relative="1" as="geometry">
            <mxPoint x="1381.5" y="748" as="targetPoint" />
          </mxGeometry>
        </mxCell>
        <mxCell id="YGv0oLC9iXFQOewAsgv_-52" value="bucket 추천 수식 produce" style="text;html=1;align=center;verticalAlign=middle;whiteSpace=wrap;rounded=0;" parent="YGv0oLC9iXFQOewAsgv_-190" vertex="1">
          <mxGeometry x="1294" y="688" width="181" height="30" as="geometry" />
        </mxCell>
        <mxCell id="YGv0oLC9iXFQOewAsgv_-64" style="edgeStyle=orthogonalEdgeStyle;rounded=0;orthogonalLoop=1;jettySize=auto;html=1;endArrow=block;endFill=1;startArrow=none;startFill=0;entryX=0.509;entryY=0.177;entryDx=0;entryDy=0;entryPerimeter=0;" parent="YGv0oLC9iXFQOewAsgv_-190" target="YGv0oLC9iXFQOewAsgv_-105" edge="1">
          <mxGeometry relative="1" as="geometry">
            <mxPoint x="776" y="250" as="sourcePoint" />
            <mxPoint x="1125.9999999999995" y="250.00000000000023" as="targetPoint" />
          </mxGeometry>
        </mxCell>
        <mxCell id="YGv0oLC9iXFQOewAsgv_-71" style="edgeStyle=orthogonalEdgeStyle;rounded=0;orthogonalLoop=1;jettySize=auto;html=1;entryX=0;entryY=0.5;entryDx=0;entryDy=0;" parent="YGv0oLC9iXFQOewAsgv_-190" target="YGv0oLC9iXFQOewAsgv_-70" edge="1">
          <mxGeometry relative="1" as="geometry">
            <mxPoint x="774" y="250" as="sourcePoint" />
            <mxPoint x="1126.0000000000005" y="341" as="targetPoint" />
            <Array as="points">
              <mxPoint x="833" y="250" />
              <mxPoint x="833" y="341" />
            </Array>
          </mxGeometry>
        </mxCell>
        <mxCell id="YGv0oLC9iXFQOewAsgv_-74" style="edgeStyle=orthogonalEdgeStyle;rounded=0;orthogonalLoop=1;jettySize=auto;html=1;entryX=0.508;entryY=0.331;entryDx=0;entryDy=0;exitX=0.718;exitY=0.42;exitDx=0;exitDy=0;exitPerimeter=0;entryPerimeter=0;" parent="YGv0oLC9iXFQOewAsgv_-190" source="YGv0oLC9iXFQOewAsgv_-124" target="YGv0oLC9iXFQOewAsgv_-105" edge="1">
          <mxGeometry relative="1" as="geometry">
            <mxPoint x="604.9964" y="250.03264000000013" as="sourcePoint" />
            <mxPoint x="1127.9600000000005" y="434" as="targetPoint" />
            <Array as="points">
              <mxPoint x="772" y="250" />
              <mxPoint x="834" y="250" />
              <mxPoint x="834" y="434" />
            </Array>
          </mxGeometry>
        </mxCell>
        <mxCell id="YGv0oLC9iXFQOewAsgv_-65" style="edgeStyle=orthogonalEdgeStyle;rounded=0;orthogonalLoop=1;jettySize=auto;html=1;startArrow=block;startFill=1;endArrow=block;endFill=1;" parent="YGv0oLC9iXFQOewAsgv_-190" source="YGv0oLC9iXFQOewAsgv_-62" target="YGv0oLC9iXFQOewAsgv_-12" edge="1">
          <mxGeometry relative="1" as="geometry" />
        </mxCell>
        <mxCell id="YGv0oLC9iXFQOewAsgv_-62" value="Social DB&lt;div&gt;(mountain)&lt;/div&gt;" style="dashed=0;outlineConnect=0;html=1;align=center;labelPosition=center;verticalLabelPosition=bottom;verticalAlign=top;shape=mxgraph.webicons.mongodb;gradientColor=#DFDEDE" parent="YGv0oLC9iXFQOewAsgv_-190" vertex="1">
          <mxGeometry x="674" y="53.799999999999955" width="102.4" height="102.4" as="geometry" />
        </mxCell>
        <mxCell id="YGv0oLC9iXFQOewAsgv_-66" value="게시글 작성/게시글 좋아요/댓글 작성/댓글 좋아요/게시글 뷰" style="text;html=1;align=center;verticalAlign=middle;whiteSpace=wrap;rounded=0;" parent="YGv0oLC9iXFQOewAsgv_-190" vertex="1">
          <mxGeometry x="935" y="216" width="308" height="30" as="geometry" />
        </mxCell>
        <mxCell id="YGv0oLC9iXFQOewAsgv_-67" value="게시글 정보 조회&lt;br&gt;(작성자/작성일/content size/media 첨부 여부)" style="text;html=1;align=center;verticalAlign=middle;whiteSpace=wrap;rounded=0;" parent="YGv0oLC9iXFQOewAsgv_-190" vertex="1">
          <mxGeometry x="972.5" y="64" width="275" height="30" as="geometry" />
        </mxCell>
        <mxCell id="YGv0oLC9iXFQOewAsgv_-146" style="edgeStyle=orthogonalEdgeStyle;rounded=0;orthogonalLoop=1;jettySize=auto;html=1;" parent="YGv0oLC9iXFQOewAsgv_-190" source="YGv0oLC9iXFQOewAsgv_-70" target="YGv0oLC9iXFQOewAsgv_-44" edge="1">
          <mxGeometry relative="1" as="geometry" />
        </mxCell>
        <mxCell id="YGv0oLC9iXFQOewAsgv_-70" value="costco-consumer&lt;br&gt;(user 활동 정보 수집)&amp;nbsp;" style="rounded=1;whiteSpace=wrap;html=1;fillColor=#707060;fontColor=#ffffff;" parent="YGv0oLC9iXFQOewAsgv_-190" vertex="1">
          <mxGeometry x="1298" y="311" width="161" height="60" as="geometry" />
        </mxCell>
        <mxCell id="YGv0oLC9iXFQOewAsgv_-72" value="게시글 작성/게시글 좋아요/댓글 작성/댓글 좋아요/게시글 뷰" style="text;html=1;align=center;verticalAlign=middle;whiteSpace=wrap;rounded=0;" parent="YGv0oLC9iXFQOewAsgv_-190" vertex="1">
          <mxGeometry x="930" y="308" width="325" height="30" as="geometry" />
        </mxCell>
        <mxCell id="YGv0oLC9iXFQOewAsgv_-147" style="edgeStyle=orthogonalEdgeStyle;rounded=0;orthogonalLoop=1;jettySize=auto;html=1;" parent="YGv0oLC9iXFQOewAsgv_-190" source="YGv0oLC9iXFQOewAsgv_-73" target="YGv0oLC9iXFQOewAsgv_-44" edge="1">
          <mxGeometry relative="1" as="geometry" />
        </mxCell>
        <mxCell id="YGv0oLC9iXFQOewAsgv_-73" value="costco-consumer&lt;br&gt;(태그 사용 정보 수집)" style="rounded=1;whiteSpace=wrap;html=1;fillColor=#707060;fontColor=#ffffff;" parent="YGv0oLC9iXFQOewAsgv_-190" vertex="1">
          <mxGeometry x="1298" y="404" width="161" height="60" as="geometry" />
        </mxCell>
        <mxCell id="YGv0oLC9iXFQOewAsgv_-75" value="게시글 사용 토픽 정보" style="text;html=1;align=center;verticalAlign=middle;whiteSpace=wrap;rounded=0;" parent="YGv0oLC9iXFQOewAsgv_-190" vertex="1">
          <mxGeometry x="991" y="404" width="230" height="30" as="geometry" />
        </mxCell>
        <mxCell id="YGv0oLC9iXFQOewAsgv_-78" style="edgeStyle=orthogonalEdgeStyle;rounded=0;orthogonalLoop=1;jettySize=auto;html=1;startArrow=block;startFill=1;" parent="YGv0oLC9iXFQOewAsgv_-190" source="YGv0oLC9iXFQOewAsgv_-77" target="YGv0oLC9iXFQOewAsgv_-62" edge="1">
          <mxGeometry relative="1" as="geometry" />
        </mxCell>
        <mxCell id="YGv0oLC9iXFQOewAsgv_-77" value="storee-core&lt;br&gt;(신 커뮤니티)" style="rounded=1;whiteSpace=wrap;html=1;fillColor=#fff2cc;strokeColor=#d6b656;" parent="YGv0oLC9iXFQOewAsgv_-190" vertex="1">
          <mxGeometry x="303.5" y="75" width="161" height="60" as="geometry" />
        </mxCell>
        <mxCell id="YGv0oLC9iXFQOewAsgv_-101" style="edgeStyle=orthogonalEdgeStyle;rounded=0;orthogonalLoop=1;jettySize=auto;html=1;entryX=0.5;entryY=1;entryDx=0;entryDy=0;startArrow=block;startFill=1;endArrow=block;endFill=1;strokeColor=#FF0000;strokeWidth=4;" parent="YGv0oLC9iXFQOewAsgv_-190" source="YGv0oLC9iXFQOewAsgv_-80" target="YGv0oLC9iXFQOewAsgv_-97" edge="1">
          <mxGeometry relative="1" as="geometry" />
        </mxCell>
        <mxCell id="YGv0oLC9iXFQOewAsgv_-80" value="postie&lt;div&gt;(라운지)&lt;/div&gt;" style="rounded=1;whiteSpace=wrap;html=1;fillColor=#f8cecc;strokeColor=#b85450;" parent="YGv0oLC9iXFQOewAsgv_-190" vertex="1">
          <mxGeometry x="292" y="583" width="161" height="60" as="geometry" />
        </mxCell>
        <mxCell id="YGv0oLC9iXFQOewAsgv_-82" style="edgeStyle=orthogonalEdgeStyle;rounded=0;orthogonalLoop=1;jettySize=auto;html=1;exitX=0.5;exitY=0;exitDx=0;exitDy=0;" parent="YGv0oLC9iXFQOewAsgv_-190" source="YGv0oLC9iXFQOewAsgv_-80" edge="1">
          <mxGeometry relative="1" as="geometry">
            <mxPoint x="455" y="615" as="sourcePoint" />
            <mxPoint x="674" y="259" as="targetPoint" />
            <Array as="points">
              <mxPoint x="373" y="259" />
            </Array>
          </mxGeometry>
        </mxCell>
        <mxCell id="YGv0oLC9iXFQOewAsgv_-83" value="커뮤니티 유저 활동 정보 저장" style="text;html=1;align=center;verticalAlign=middle;whiteSpace=wrap;rounded=0;" parent="YGv0oLC9iXFQOewAsgv_-190" vertex="1">
          <mxGeometry x="513" y="75" width="113" height="30" as="geometry" />
        </mxCell>
        <mxCell id="YGv0oLC9iXFQOewAsgv_-84" value="커뮤니티 event topic proudce" style="text;html=1;align=center;verticalAlign=middle;whiteSpace=wrap;rounded=0;" parent="YGv0oLC9iXFQOewAsgv_-190" vertex="1">
          <mxGeometry x="422" y="216" width="163" height="30" as="geometry" />
        </mxCell>
        <mxCell id="YGv0oLC9iXFQOewAsgv_-86" value="유저 별 추천 Bucket 정보 및 추천 비율 정보" style="text;html=1;align=center;verticalAlign=middle;whiteSpace=wrap;rounded=0;" parent="YGv0oLC9iXFQOewAsgv_-190" vertex="1">
          <mxGeometry x="403.5" y="1143" width="261" height="30" as="geometry" />
        </mxCell>
        <mxCell id="YGv0oLC9iXFQOewAsgv_-87" value="유저 활동 정보 및 추천 Bucket metadata 조회" style="text;html=1;align=center;verticalAlign=middle;whiteSpace=wrap;rounded=0;" parent="YGv0oLC9iXFQOewAsgv_-190" vertex="1">
          <mxGeometry x="1420" y="1150" width="261" height="30" as="geometry" />
        </mxCell>
        <mxCell id="YGv0oLC9iXFQOewAsgv_-99" value="커뮤니티 활동" style="text;html=1;align=center;verticalAlign=middle;whiteSpace=wrap;rounded=0;" parent="YGv0oLC9iXFQOewAsgv_-190" vertex="1">
          <mxGeometry x="194.5" y="80" width="113" height="30" as="geometry" />
        </mxCell>
        <mxCell id="YGv0oLC9iXFQOewAsgv_-102" value="활동기반 추천 피드 제공&lt;br&gt;(커뮤니티 및 게임 플레이 정보)" style="text;html=1;align=center;verticalAlign=middle;whiteSpace=wrap;rounded=0;" parent="YGv0oLC9iXFQOewAsgv_-190" vertex="1">
          <mxGeometry x="114" y="356" width="156" height="30" as="geometry" />
        </mxCell>
        <mxCell id="YGv0oLC9iXFQOewAsgv_-108" value="Community &amp;amp; Lounge Service" style="text;html=1;align=center;verticalAlign=middle;whiteSpace=wrap;rounded=0;fontSize=16;fontStyle=1" parent="YGv0oLC9iXFQOewAsgv_-190" vertex="1">
          <mxGeometry x="-14" y="3" width="246" height="30" as="geometry" />
        </mxCell>
        <mxCell id="YGv0oLC9iXFQOewAsgv_-109" value="Costco Service" style="text;html=1;align=center;verticalAlign=middle;whiteSpace=wrap;rounded=0;fontSize=16;fontStyle=1" parent="YGv0oLC9iXFQOewAsgv_-190" vertex="1">
          <mxGeometry x="829.1200000000001" width="164.88" height="30" as="geometry" />
        </mxCell>
        <mxCell id="YGv0oLC9iXFQOewAsgv_-158" style="edgeStyle=orthogonalEdgeStyle;rounded=0;orthogonalLoop=1;jettySize=auto;html=1;startArrow=block;startFill=1;endArrow=block;endFill=1;" parent="YGv0oLC9iXFQOewAsgv_-190" source="YGv0oLC9iXFQOewAsgv_-111" target="YGv0oLC9iXFQOewAsgv_-127" edge="1">
          <mxGeometry relative="1" as="geometry" />
        </mxCell>
        <mxCell id="YGv0oLC9iXFQOewAsgv_-111" value="&lt;div&gt;posthub&lt;/div&gt;&lt;div&gt;(라운지)&lt;/div&gt;" style="rounded=1;whiteSpace=wrap;html=1;fillColor=#f8cecc;strokeColor=#b85450;" parent="YGv0oLC9iXFQOewAsgv_-190" vertex="1">
          <mxGeometry x="528" y="497" width="161" height="60" as="geometry" />
        </mxCell>
        <mxCell id="YGv0oLC9iXFQOewAsgv_-124" value="" style="shape=image;verticalLabelPosition=bottom;labelBackgroundColor=default;verticalAlign=top;aspect=fixed;imageAspect=0;image=data:image/png,iVBORw0KGgoAAAANSUhEUgAAAoAAAAFoCAYAAADHMkpRAABOfklEQVR4XuzdB3gUx90/cGE7dmzHsdOdvE7y2uYOA7qT7tS7EAIhIRCi9947ovduU0zvvZreezdgem8ChGhCoqj3LvH776zj/+vsHEJ3utPenr7zPJ8nyS9odtVmv9rdmbEjIjsAAAAAqDi4AgAAAADYNq4AAAAAALaNKwAAAACAbeMKAAAAAGDbuAIAAAAA2DauAAAAAAC2jSsAANiCJ8+e2c1btuzjhUuX/0PwvwuWLFMzC5cs+1r43/9cuHTpn7fu2/eu9OMAACoCrgAAoERjJ075S7su3esI+goW1G/aYl9lre6UWqu/KLii1uivi7S6a8L/viz85zmdt99h4d9uaNelxyThP5sJ7G9H3n1f2jcAgK3hCgAA1qywsNDu6vUbn125fv2b4LDwsGo6lyWC20KoyxFCXZFKqy8WvFb/jN5C/Hc/f4yuSAiIhd84OicJ/e0S9F+1dp3H1evX/xEX9/w30vMAAFAyrgAAYI0ePXr8zqIlK76cOW9B6ypa/SohsN0VgluBgVBnNkL/KUKoPNCyXacRC5ctr7Ft254PpecFAKBEXAEAwNoMHz3hi3qNmk1Sa/QXhVCWLA1q5SBPOO5jvbvvlnZdegZdvX7zA+k5AgAoCVcAALAGkXfv/3bh0mUu1Zxc5qrFO3H6YnXpHuta0muVRl9QVedytU54eONr12/8LTU17R3puQMAWDuuAAAgpwcPHlVavHTVNy7eAePUWt0jFroMBDEroMuqbK/bNnDYyMZbt+75rfTzAACwZlwBAEAunTp3/iC0YbPuanv9BbVGl8eHLqtTLJznS0cXn2VNW7T65vTp09znBABgjbgCAEB5ys/Pt7t+8+ZnvftFhKjtHc+oNPpCtdXe9TNMOOdilb3uZTVH529PnznzdWxcHNYXBACrxhUAAMrLsbNn35k+Z66XSuu4XK3VJUmDlTI5nm3aqk3HhavX/DUrJ4f7nAEArAFXAAAoD2fOnf+rV+3gUSqtPlIITkV8kFIsdvcy+WtHp32DR472ln7eAADWgCsAAFhKUnJypRu3bv/VPzikfXW9a5QQlBT3uNcIr6s4OKVrXNyXLVq23OleVBR2GAEAq8EVAAAsYeOmTR/2jhgUVlnjuFUIR7kGApOtYgH3gYuP37BlK1d9GR0dzX1tAADKG1cAADC3pavXfGnv5LpYCEJxao24np80JNk+jS5brXE8Ua9xsxZJySnYWg4AZMUVAADM4dmzZ+8cOnrsK62L56iqOpdnKtt6z89UbN/hfK2Lx/7eAwb53Lxz5xM2C1r6tQMAsDSuAABQFokZGXZzt2z9c4PGTVurNLqf1D/v4CENQhUdC4IvvtY6zp42b75+/7Vr3NcRAMCSuAIAQFl07Rfh+W9n9+1CyElkQcdA+IH/U1jZQX/dNbR+nzPnzn8m/VoCAFgKVwAAMNa9e/ffnzl3nsbR3XO2EGrS1bjrZwwWkgvsnd2vBgQHN7oTGfmHlJQU7msMAGBOXAEAoLSuXr1qt3jpsi8cnV0Hq7W6u2oEv7LKUts7ruoXMTBw6dKlWDYGACyGKwAAlEZMbOz7gXXrNfyqqv0hcYYrH2bANIVCmH4sfF2nL1215u/SrzsAgDlwBQCAN8nJybW7E3n/4049ero4uHruUWl1uUJYwV0/C1AJQbCa3uWB3tO7z5FjJ7549uwF9/0AADAVVwAAeJNpM+Y6fF3VZaoQTmLVmOBRXgpV9vpDdcNaN7h77/6n0u8JAIApuAIAgNSRo8d/36PvgK5VHZ2vCYEk30BIAct6rdLqXtRt2GTNwKEjtdLvDwCAsbgCAACTnJxsd+/+/U/da9RsoHF2P6vWsMe9uOsnJ5VGxxbTTnLy8h03c/4C1YPo6Pek3zcAgNLgCgAA8QkJ7/fs08+nila/SK3RY4KH9SkUXNW7ufc8/uPJv0i/fwAAb8MVAKBim7dwyZ9adeg8Va3RPfhP0JCGD7Ae6V41Arf36j8gMObZM9wNBIBS4woAUPE8evXKbue+/X/X+fh2rqZziRSCRYGBsAFWic3C1mXo3H3WdezTp9qdO5G/zc7O5r7HAAC/xhUAoGK5cev2Jy5t2gZX1uoPCYEijw8YoBCv1Rr9w7//+8tRk6dOU0u/zwAAv8YVAKDi6B0RYV8nrNESlVaHZV1sR04VB6dzvfsPbHbk2LGPpN9zAACGKwCA7Xr9+rXdnTt33ps6ffq/3Xz8h6q1ukS24LCBEAFKpmF3A3WZGhePQz7+ATXv3Y/6OD4+nvt5AICKiysAgO06ePjoH//yjy+6CyHhghrv+VUIKo0+7d+qatNat2/vFJ+Q8BvpzwQAVExcAQBsz72oqPf6DBzk5+pbY7MQCtKlIQFsXr5aq7vVumPnUQsWLP1Y+vMBABUPVwAA25GYlPRBs5a9VXpP35VCAEjGvr0VGnssnFdN73rJ1cun6e49e/8k/XkBgIqDKwCA8hUWFtqt37j56w7deg5RafVRBsIAVGxZao1+m/Az4nfz1u0PpT8/AGD7uAIAKNuu/fvf7x0xqJFwgT8jXuj5iz/AzzT66JAGjb7v13/YV8XFxdzPEgDYLq4AAMr08NGjj2oH1/XVunruFi7uaWos6wJvx35GCoQgGOsdULv7nLnzPs/Ozn5H+rMFALaHKwCAssTGxb23YfMWB7/aId8JF/NkAxd5gLfT6PNVGv3xCd9Na3X46PHfSX/OAMC2cAUAUI4pc+b8rkW7DoPVGt1VdgHnLuoAxkt08a6xst+w4U53o6IqSX/mAMA2cAUAsG5FRUV2q9es/Uyjc65fVedyXq3V5arxuBfMq0il1b9w9vabEVQn+F9JycnvSX8OAUDZuAIAWK+r16+/v3LNOl+VRrdBjfX8oHxc79CtZ48Nm7d9UVBQwP1MAoAycQUAsD4ZmZl2vYYN/3et0LBv1RodlnWB8pZW2V5/uNegwUHb9u9/V/rzCQDKwxUAwHpkZWW907dfvz87efp2Vmn1D1UaHXvPD497QQ6vhZ/BRAc3zzVVqlV3jnoQ/YH05xUAlIMrAIB1OHjwyCejxk1oqtboDgoX3zwDF2QAmehe+NQKHrFx6w71s7jnWDYGQIG4AgDI68qVK5UiBg1x0Lv5LBcutq/UuOMHVkil0edW1uh/atGuc7eZM2fibiCAwnAFAJBHUlLyu9eu3/yXs5ffZJVGF6PW6AqlF10AK/NardFnVdM5H5rw7ZQaT2JifsdmqUt/tgHA+nAFAChf2dnZdlu37fp7i7YdOwkX06sGLrIA1k+jT6qsdVy8cs16l2vXbmKiCICV4woAUH727NlTqXfEoNpVNE57hYtoqhqPe0HZitUa3c2g0PBhY8eN/zwzM5P7mQcA68AVAMDy4p6/eH/dxs0Ojm5eS9UafYJ44eQvpgAKpBP+iNHlVHFwutGkZZsmMc9iP8vKysaOIgBWhisAgOU8iomptHXnrq+dPf2HCxfLp/zFE8Cm5Ah/4GwZNW5iyMGDxz+U/j4AgHy4AgBYxoCIiA+btm3fXuWgP67Gsi5QcbC72zGOrr6ze/Xtrzpz5gz3uwEA5Y8rAID5sK2znsXGfTRszHgPlb3DAbVWl/GfC6L0Iglg01QafUHlag73XDx9Bl6/efPz5JQUrB8IICOuAADmcfby5XcWLVvhUtleP1e4ACZKL4gAFZfjqeZt2zfZsmfvnzKzs7nfHQCwPK4AAGUTFxdn171nr7/6BtcdoNLqrwsXvCL+AghQobHZ7glfOzptGDVhoqf0dwgALI8rAIBpMjOzKsU+f/5JUFijhl9X01xUa3XZ/7nQSS9+APCzoqo6lzj/OiFT1m/apHrx8uV70t8rALAMrgAAxtu//8CHEcNGB1a2169TafT5Bi50APBm7A+le3ov7947du3+nydPnnC/YwBgXlwBAIyzbsPG/9XonWepNfrHakzwADCdRpet1jjubtamfXh8YuL70t81ADAfrgAAb5ecnFLp3IWLn9cICent4OpxW63V4a4fgHkUq7T6FJ/AOhuGjx6nef7ixQdsNr30dxAAyoYrAMCbpaWl2e3bf+CP4Y1bh6k1+pPsYmXgAgYAZfdaCIJxX2sdJy5csdL+ZGQk9/sIAKbjCgDwZv0HD/WopnNerdboXv285RV30QIA8yqo7KA/79awSadzFy59Jv2dBADTcAUA+G8vX8W/t2zlmv+tGVJ/XBUHp+cqrb7QwEUKACyH/bGV4eYbcDSsSdPAly9ffpSVlcX9rgJA6XEFAPjZ7du37bbt2PV5Na1nL+Hic1uNx70A1iBHrXGcP3jYcI+tW7dhogiAibgCAJBdTMyzD0LDGoZ++Y39NhWbmchfhABAPoVqre7uvytXGb92w6a/SX9/AeDtuAJARZVfUGD3Mj7h/f5Dhqh8atX5Qa3RJamxiweA1VJp9bkObp4Xa4XWb3n+4qU/pqSkcb/XAGAYVwCoqGYvWlztK53zGOHCEqvGDh4ASlKg0uj31Q1rWzP60aNPpL/bAMDjCgAVzfFTp38/cvzENmoH/XnhQpJn4OICANbvtUqri2ncqs288ZO+00h/zwHgv3EFgIqAzSCMT0j4bWC9ev6uPv77VVp9KruAGLioAICy5FfROj2pXa9B32Vr1vwtMTHxHenvPwAgAEIFlJiU9H7vfgOcVRrdTLVGn2vgAgIAyseWa7rgoHduy94PlI4DABUdVwCwZctWrvlT1979xqq0+tuCAgMXDQCwJRpdmk9g0OoxEyb6PY2JeU86JgBUVFwBwNakp6fbnTx56tPgemGNNS4e51RsHTHpRQIAbJiOLRvz3K92yPx+w4f/Iz4+/r38/HxurACoSLgCgC25FxX1ccMmTf2Ei8BeNSZ4AFR0r9Ua/YPP//W//afPmPWldLwAqEi4AoAtKCgosBs94btvwpq2mCEM+k8MXAgAoOLKVml0J8ZMnFz/+MmTv5WOHwAVAVcAULL8/PxKK1eu+l3d8EatVcJf+mrc9QOANxBC4CtX34DlTl26Vk1JTcVsYahQuAKAUh09erTS97PmeggD+1YBZvcCQGk9rx0W3mbX7j1/fPnyJTe2ANgirgCgRAeOHXuvuqO+uTCQ3xQUGxjgAQBKkvzPylUWdO3W/auioiJujAGwNVwBQEmKi1/bHT3x4x9cfGqMVGl1Lw0M6gAApaJir4xodBf6RAyplp2Tg0fCYNO4AoCSHDtx8p+Vtfr1aqzpBwDmE92rX0TDxMRETBABm8UVAJTi0JFjX7r5BrDwh0e+AGBObFvIR9379G9XUFBQSTr2ANgCrgBg7YqLi+2OHj+hcvWpsUMYpPMNDN4AAOaQ1GfAoBY5OTnYQQRsDlcAsHZHjp/4p1qr229gsAYAMC+N/lWPvgPaJOBxMNgYrgBgzQ4cOfpHF58ay9U/P6LhB2sAAPNiY010tz79QvPy8/E4GGwGVwCwRuyx75FjJz5y9fEfr9LqMw0M0gAAlsJCYFSfgQNVObm53PgEoERcAcAaJSWlvPtVFfeewiCcamBwBgCwuK+1+uMTZsz4l3R8AlAirgBgjWYtWOSoxp6+ACCv7LCmLaZEPYj+vXSMAlAargBgbeYvWflpdSf3vQYGYwCAcqXS6hMCgkOaZGVl4X1AUDSuAGBNXsbHf9CpR+8RwsCbJR2IAQBkcv/HU6f/KR2vAJSEKwBYi8zMLLuOXSJchb+4Iw0MwAAAsnH3rTHl2LFj70rHLQCl4AoA1uLps2cfVbZ3WiQMtkXSwRcqnioOTvSNo/P/x/639N8AlB/d47ETJ/sWFhZyYxeAEnAFAGtRs36YjzDQ5vADL1QEju7eFFS/ITVr05669+1PI8dNoKkzZtGMOfNo2szZNGbCJOrZL4JatOso/LtwcvLy4/oAsKAilVa3/vCx43+Ujl0ASsAVAKzBoUPHf+Ps5b/VwKALNozd1Qtu0IjGTvqWtu7YRddv3qKXr15RQUEBGWpFRUWUkJgo/rtde/fT2InfUkh4E6qqc+H6BjA7jf5lz94DgnNycrgxDMDacQUAubFHKsNGjfNTafQvuAEXbFI1vSvVbdiEfti0hZ7GPKOsrCx6/fo1GdPYv88UPu5pTIwYHkMbNRX7lR4LwIxeqzW61cIfKdgmDhSHKwDIbfeePR+rqmuWq7U6vPtn475xcKKwJi1o45atlJGRSeZsmZmZQr/bqHGrtnhfECwpt36DcC0ZGMsArBlXAJDbnv0HnIRB9baBgRZsiKObFw0aPpLuRN4lSzV2V/BB9EMaPHK0eDzpOQCYQ2jDplPJwFgGYM24AoCckpKS3wkIrtdDGFTzpYMs2A4nT19avHwlJScnG/2o19jG+k9OSaWlK1eRm19N7lwAykrj7HFj2crVfyUDYxqAteIKAHJ69Sr+U7VGd0w6wILt8AmsQ/sOHCQ52o+nTpNvrWDunADKRKNPGT95SlsyMKYBWCuuACCn2fPmqYQBNYMbYMEmsPC3decuyn/DrF5LN3Y3cPe+/eQfFMKdG0AZFDVo0mL+/agHmAwCisEVAOQUWLdeZwODK9gAnbs3rVi9lnJyc0nOlpeXR2vWbyBnrBsI5qTRnTp4+GhlMjCuAVgjrgAgl1sxMXYeNYN2cwMrKB6bhTvhu2niun3W0Ni6grPnL+TOE6AMkqbPX1A7v6CAG9sArBFXAJBL32nTPv3KwSnKwMAKChfevBXFPn9O1tRS09LEJWik5wpgouIvHZ16JyWnvEMGxjcAa8MVAOQyfMw4D5VG98rAwAoK5uTlSzv27KVCM939M+es4UNHj5HOw4c7ZwBTVNboVgoB8EMyML4BWBuuACCXEWPHdVFrdenSQRWUiz36jRg2glJTU8nUJi7jkpxCkXfv0fmLl8SZvGfOnaer12/Qk6cx4jt9pjZ2F3D4mPH0jaMzd+4AxlJp9FeFn9Xfk4HxDcDacAUAuYwYO36yGuv/2RRnbz86fPQYmdJY8EtKTqZtO3ZR/8HDqFZoA9K6eor9ssDm7leTmrVpT9Nnz6FrN268cb/gkho7xrETJ8kroDZ37gBG0+hTly1f/mcyML4BWBuuACCHkz+de9/NL3C1mu2tKR1UQbEaNm8l7utrbGPBLCo6mjp060lOb5mtW03vQgHB9WjhkuVUUFho9CPitPR0at2xK9cvgAlehzZobE8GxjgAa8MVAOSwc8++P6s0eswAtjFsuRVjG7uT9/OCzXW4/krCHjcPHTWGXsXHGx0CN2/fwfUHYIrgsEYhZGCMA7A2XAFADkIA/Ldaoz8uHUxBuTTO7vTg4UMyphUXF9PV69epXqNmXH+lwR4RT50xizIyMqRdl9jYDOWqOheuPwBjCQGwIxkY4wCsDVcAkMPOPXu/UWt056SDKShX/cbNxUkWxrSMzEzqEzFIvJsn7a+02CPjEydPSbsusbHgGdKgMdcXgLGEADiYDIxxANaGKwDIYeeefVph8LwqHUxBuUaNn2j0rh9Hjp/g+jFFeLOWlJ+fL+2+xDZi3ASuHwBj1WnQaAIZGOMArA1XAJCDEAD1Kq3+pnQwBeVaunK1OCmjtI29t9er/0CuH1NU17vS9Rs3pYcosa1au57rB8BYwQ0aTSUDYxyAteEKAHIQAqCzEABvSwdTUK5de/eLj1ZL25KTk6lmcD2uH1OwZWIWLV0uPUSJ7dDR41w/AMYSAuAMMjDGAVgbrgAgBwRA22Lv7C4+zjWmsbX8PPwDub5MNWDIMOkhSmwXL18p07uHAAwCICgFVwCQAwKgbXF096bjRk7EOHv+Arn5BnB9mapzz97SQ5TYrt24SdWd3Lh+AIyBAAhKwRUA5IAAaFvYEjBHjh0nYxq7A+fmZ74A2HvAIOkhSmyXr17DHUAoMwRAUAquACAHBEDbs3vfAaMWZI57/pz8agdz/ZiCBbnps+ZKD1FiO3P+AtcPgLEQAEEpuAKAHBAAbc+yVWuMmgVcVFRErTp05voxRTW9q9GPoLfu2MX1A2AsBEBQCq4AIAcEQNszbvJ3lGvkOoBs6zhpP6bwCaxDmZnG7UE8e/5Crh8AYyEAglJwBQA5IADanvDmrSgtLZ2MaSkpqeLHSfsyBpuBvG7jJqMeP7PWpnM3ri8AYyEAglJwBQA5IADaHgc3T3ryNIaMaYWFhbT/0GHyDqjN9VcabP2/Xv0GUnxCgrTrEhu7U+ni48/1B2AsBEBQCq4AIAcEQNu0efsOMrZlZ2fTkhUrxQAp7e9tGrdqS5GR94xagJq185cuYQYwmAUCICgFVwCQAwKgbWrZvpPR7wGyxh7f7tq3n2rVDaNqOheuXyknT1/q0S+CEhITjX70y+46Dh8znuvTktjn5OpTg3xrB1Ot0DCqE9aQatcLp0Dh8/WtVYdcvP2paik+b7A+CICgFFwBQA4IgLbJ3S+Azpw7T6Y0Niv4xs3bNHna91Q3vIn4eFfaPwt+XXv3pQ2bt1Jqaqq0i1K1e1FRFNKgEde3udk7u1GDZi1pyMjRtHDpctqz/4C4+PWtO5H0IPoh3b13n27evkM/nT0nbqM3f/FSGjR8JNVr3Ezc21jaH1gnBEBQCq4AIAcEQNvEQtuocRMpM8u4Gbm/blnZ2RT1IFpcWHrRshX03fSZNHPufNqwZZu4ePSr+HgqFMKiKY19HFuuRuPizp27uTi6eVGPvhF05OhxevT4MaWnp5fqETX7N2lpaRT98BEdOnqMuvTqQ1pX4x+LQ/lCAASl4AoAckAAtF2eNWqJ+wKXJvS8qbHHur9g/TC//O+ytDuRd9kFmzvnsmLvE3rXDKIxE78VQt+T/3++pjb2seyO6IOHD2nE2PHkGVCLqhg4LsgPARCUgisAyAEB0La179qDUlJSyJoaC1VjhYAmPdeyYvsJd+3VT1yIuqCgQHrYMjfWJ7sj2EH4muLRsPVBAASl4AoAckAAtG1sZw72qNWa2rkLF8XHs9JzLYuqjs7i4+kXL1+W6Y7n2xq7GxgX95ymfj8Ls5etDAIgKAVXAJADAqDtY7NeDx4+apG7YsY0Fsxu34mkug2bcOdYFjXqhNKuvfvK9fNjx9qybQf51KrDnQ/IAwEQlIIrAMgBAbBiYLN52Z03dgdLjsYe+z6NeUZdevYxOKvYVP5BIXTgyFHKz8+XHtLiLS8vj3bv20/egQiB1gABEJSCKwDIAQGwYmCPK+s3bk737keRHC0rK5t69h8oPpKWnpup2Dt/e/cfLNc7f9LGgue2nbvNGmrBNAiAoBRcAUAOCIAVi3+dunTy9BmTFok2pbHFntl6fx279+TOpSzYO4Qr16yTNfz90tg5sLUDtS4e3HlC+UEABKXgCgByQACsePyD6ooTQ9LS0smSjT1uPnD4CDVq2dqsEybYTh2DR4yixKQk6SFlay9fvaJeAwaZ9fME4yAAglJwBQA5IABWTHpPH+o/eJi42LElWnJKCs1duFhck0967LKqERRCN27dLtP6fuZubILLuQuXxO3kpOcL5QMBEJSCKwDIAQGw4qrioCd3/5o0edoMirx7T9z5oyyhik2KiHkWS6vX/UBB9cIt9l7cspWry3SerLGPZ4/B09LTRdk5OWVePoZ9/JwFi7nzhfKBAAhKwRUA5IAACEyNOnVpwndTaf+hw+Js3aKi0oUhFqTiExLox9M/0ez5C6lJq3YWfQxaM6Q+xcfHS0+j1I29r3fz1m3atHUbTfl+Jg0dOYYGjxxNE6dOpzU/bKSLV65QTo7p70e+ePmKvAJqc+cNlocACErBFQDkgAAIv2DBzc03gMKbt6IZc+ZRSmoqva2xd/xadehMPoF1qJrOhevT3GYJIdPUiR9xz1/QhG+nUlD9huRgYG9fe2d3IWDWo4HDRop7IJvS2KSXiVOmc32D5SEAglJwBQA5IACCIS3adaTYuDh6W1uwZLm4HIv04y2BTV65ev2G0Y9/2VIt7M5mUP3wUt2dZP/GJzCI1m7YKD4WN6axc7t89Zq4D7O0X7AsBEBQCq4AIAcEQDDEGgNg7wGDKCk5WXoKb237Dx42aTKKk4ePuNSMse8Gvnr1irr06sv1B5aFAAhKwRUA5IAACIZYWwBkC0izdwyN3ckkKjqa6oQ14vorLa+AWuIOKsY09oh6+uy5FpsEA4YhAIJScAUAOSAAgiHWFgA9/APp2IkfpYcvsaVnZIrv85XmsW9J2nbuRi9evpR2/8bGHgPvPXBQ3INZ2hdYDgIgKAVXAJADAiAYYm0BsGZwPbofZdw2dmfPXyC/2iFcX8Zy9vKjXXv3GfUo+PrNWxQQHMr1BZaDAAhKwRUA5IAACIZYWwCsG96EUksxK/mXxh7DLl2xymyPYcdN+paysrKkh3lji3v+nELCG3P9gOUgAIJScAUAOSAAgiHWFgAbNm9t1OzftLQ06jtoCNePqZq2aS9u91baxmYPs+V0pP2A5SAAglJwBQA5IACCIdYWANt06io9dIktMTGJWrbvxPVjKvY49+mzZ9LDvLGxx8VNWrfj+gHLQQAEpeAKAHJAAARDrC0AdujWU3roEltCYiI1a9Oe68dUPrXq0JOYGOlhSmxNEQDLFQIgKAVXAJADAiAYYm0BkJ2PMY+Ak1NSqKsZ1+Kr16gpxcU9lx7mjY29g9i4ZRuuH7AcBEBQCq4AIAcEQJBiW6L1iRhUqnfe1qzfIM6SlfZhbmFNWlBubp708G9s2Tk5NHnq91w/purVfyAlJ6dID/PGlpiURPUaN+P6ActBAASl4AoAckAABIYttNy8XUeaNXc+HTl+QtwLl22h9rbG1sc7deYMLVu1hnoPGGixte/q1G9o1Fp87B28Hbv3kKO7F9eXsdhM4kXLVpTq6/FLexAdTbXrNeD6AstBAASl4AoAckAArLh07t4U1rQlzRRCX/TDR+Jds4KCQqMetbLG/j3boSM3N5dSUlJo97791LV3P/IJrGO2ZVhYXxcvXZYeusQW8yyW2nTswvVlLLYEzc3bt436uhw7cVJcvFraF1gOAiAoBVcAkAMCYMWjcfGgVu0709oNGyk+PpEs0fLy8unKtWs0cuwE8g8KKfNuHDoPb9q4Zav0MCW2YiGwbd+1hxzdTL8LWF3vSgsWL6X8ggJp929sLCguX7WGNM7uXH9gOQiAoBRcAUAOCIAVi3fNIFq5dj09jXlm9L66xjYWhDKzsuj8pUsUMXQEdy7GYHcSp86YRYWFhdLDlNjYenyjxk3k+iutjt16GvXuH2sZGRk0dNRYri+wLARAUAquACAHBMCKwdHdm3oPGEyPnjwxOkSVtbEgmJObS9t27qa6DZtQVZ0Ld35vwoKfZ41aNH3WXIqPTzDqMewvLSk5mUZNmCQ+8pb2/ybsLmmPvgNKNRP6142d3917URQS3oTrEywLARCUgisAyAEB0PZ5BdQSH0mmpKaRnI1NzIi8d48iho0o1SNhvYcP9Rs8lH46e56KjNiH11BLSU2l1et+EAPo244dEFyPZs9fRC9KMQta2tjnuGHLNqNCLpgHAiAoBVcAkAMCoG3zFMLf3gOHKDev9EuoWLqxRZpHjpsozjyWnu8vguqH0669+8XlVEy562eoFRQW0q07d8QZva06dhED5i/H07p6iuv2zZgzjy5duSpOaDGlsZnCzdt24D4fsDwEQFAKrgAgBwRA28TucoWEN6ZTP52hQgu/62dKS0tPp7kLl5CTp+9/nTO7+zZr/gJ6/vyFeDfN3I2FSfYIPCsrW5yx/Cw2VtzijS0cnZmZJS7gbGrgZB934PARs818BuMgAIJScAUAOSAA2qZa9RrQ6bPnLBKizNXYBJEFS5aJj0tdvP2p76AhdO3GTas+55IaWzgbd//kgwAISsEVAOSAAGh72GQHdidKCUGKhcB5i5bQrr37xMkapt59k7vl5eXRwqXLxUfJ0u8HlA8EQFAKrgAgBwRA28LWvFu5Zh3lGbFrhdyNPXa19JI0lmwsaB878SP5BAZx3w8oPwiAoBRcAUAOCIC2o5rehYaPHiveSasojb3LJ3dj2+Zh2Rf5IQCCUnAFADkgANqOwLr16d79KKoILTMzk7Zs30Gjxk+i5y9Kv0ewuVtMzDPq0rMv972A8ocACErBFQDkgABoG9hEio1btpnlvT/2ODYpKZlu3o6kNes20IAhw6hJq7ZUu14DCqoXTk1bt6dBw0fSD5s20527d8WdMsxx3Lc19n5gdnYOnT1/ntp26iou1sxm3LJ9h+9HPSiXc/ilsWPduhNJHbr2wKxfK4EACErBFQDkgABoG1q270jpGZlUlsYCFpvJunX7LmovBBu2e4j0OFI6Dx/q3KM37d53gOITTNupozSNLd0SefceTfl+lnhM6Xk0a92ezl+8VC7vEhYUFNKZc+epQdMW3HmAfBAAQSm4AoAcEACVz8HNi7bv2lOm8MM+9uz5C9Stdz+jtkz7hbOXn7h12uWr16Rdl7mxRZnZxJb6jZuXuHh0nbCGtHbDRkpPz5B2YbaWmpZGK1avpcC6YdzxQV4IgKAUXAFADgiAytehWw+KjXtu8t237JwcWicEJ1cf/7duk1YS9rFufjVphxBGc4Q+y9rYe36nz5ylNp27ksbZnTueIeyxcLsu3enCpcuUkZFhlsfCrI/09HT66dx5atm+U6nPBcoXAiAoBVcAkAMCoLKxwLNs1WqTg066EJLY1mhs+Rhp36ZiQZLtPZyVbfoMXbZDx+gJk8nJ6/92CjEGe3w9ZMRo2nvgIMWZuKsIuyv6LC6Odu3bL74H6eCGNf6sGQIgKAVXAJADAqCy+dUOFt+NM6Wx9fc2bd1Obr4BXL9l5eEfSDt275UestTtxKnTJT7uLS22w0irDp1p8rTpdPDIUYoRgmVJj8rZu4ZPY57RvgOHaOJ3U8V3K3+9XR1YLwRAUAquACAHBEBla9+le4mBpqR29foNMahJ+zQXD/+a9ODhI+lhS9XYu3bsvUJpn6Zis6TZXUEWdmuHNqA2nbpSxNARNHzMONGAIcOpVccuVKtumPhvHN29MLtXYRAAQSm4AoAcEACVjT3+NaVlZGZSh249uf7Mrf/gYeL7c6a0bn37c/0BvAkCICgFVwCQAwKgst28fYdMafsOHja4nIq5edaoRUdP/Cg9fKna0pWruf4A3gQBEJSCKwDIAQFQudj7bampqWRsS0tLpz4DB3P9WQKbGTxi7HhKM+Eu4MXLV8RHt9I+AQxBAASl4AoAckAAVK5mbdpTVlYWGdsuX7tOgaHlt44de6/uQXS09DTe2h5EPxQnuUj7AzAEARCUgisAyAEBULnYJAa2SLIxjS2Hwmbn2ju5cf1ZCruLd/zkKempvLWxpWAatWjN9QdgCAIgKAVXAJADAqByTZ46nfLz88mYlpeXR7PmLeD6srRFy5ZLT+WtjW0t16VXX64vAEMQAEEpuAKAHBAAlWv+4iXiWn7GtMysLBo2eizXl6Wx9wCNbcnJKdR34BCuLwBDEABBKbgCgBwQAJVr+eo14sLFxjS2T26fiPKZAPJrbJ09YxtbC3DQ8FFcXwCGIACCUnAFADkgACqXKQEwIyOTIoQwJu3L0gYOGyE9lbe21FQEQCg9BEBQCq4AIAcEQOWas2CR0Y+As7Ozaeykb7m+LG3SlOnSU3lrS0pOpt4DBnF9ARiCAAhKwRUA5IAAqFwTp0yjPCMngbDAuGT5Kq4vS1u3YZP0VN7aXsUnUKcevbm+AAxBAASl4AoAckAAVK6+AwdTjpHLwLx+/ZoOHztu1n1238bBzYsuX70mPZW3tphnsdSgaUuuPwBDEABBKbgCgBwQAJUrrElzysw0fiHo6EePqHGrtlx/ltKyfSeKjXsuPY23tvtRD8jDP5DrD8AQBEBQCq4AIAcEQOVydPOixMQkMraxtQAnfDu1XLZZqyYcg607yI5pbDt99my5nCPYBgRAUAquACAHBEBlO3v+ApnSbt66Td41g7j+zC2kQWO6efuO+OjZ2DZ34WKuP4A3QQAEpeAKAHJAAFS2abNmk6ltxtx5VMXBievTXL4R+l6+ao24/ZyxjQVG9uhY2qe5fOPoLL6b6OLtT87efuTg6mnRrwVYHgIgKAVXAJADAqCyNWndzuiJIL+0589fUKsOlgtZbTp2pbS0dOlhS9VevoonnYc316epquldqE5YI3FdwfmLltCW7Tto38HDdPT4CTpy7ITw3w/Rpq3bxLuOA4aOoKB64eLja2k/YL0QAEEpuAKAHBAAlc0zoBadvXCRTGnsztylK1cprGkLs979Yn01bN6Kbt+JlB6y1G3/ocPiHTpp38Zgd/VqhtSjaTNn07UbN+lVfDxlZGZSfn6BwUfSrMb2Vk7PyBAC6Cu6fOUaTZo6nWrUqUtaFw+uf7AuCICgFFwBQA4IgMrGJkl8O22GSZMsfmmXrlyhRi3bcH2booqgdacudP3GLYMhq7QtKyuLFi1dTnXDGxs9EUQjhLU2nbrSpm3bxf2Ey3Ie7GPZRJt1GzeLfdo7u3HHA+uAAAhKwRUA5IAAqHzhzVtR1INoKku7cfMWde7Zx+iw9WvsY3v2jxDPpSyh65fGFq1mE0gmfjet1HfgAuvWp2UrV4trCJqzsc/nWWwsLViyjGrUCeWOC/JDAASl4AoAckAAVD4WvNi+wMZuC/frxh4HJyQm0pr1P1BNIUTZO7tzx3kTjYu7ONv3h01bKDHJ+GVpSmoseGVlZ9PJ02eoZbuO4t096fGZanpX6tyjN0XevSc+xjVHAJU21mdeXr4YStt37SEeU3oeIB8EQFAKrgAgBwRA28DedTPXXS+2BduyVWuoW5/+7KJKek9f+sbx/94RZDNo2czZug2bUPe+A2j1uh8oJTVV2o3ZW1pamvgotl6jZuI5/HI+bFeT8d9OpYyMDOmHWKylp6fTmImTyUn42ki/FyAPBEBQCq4AIAcEQNsxfdYck5ZcMdTY3a6U1DS6ces2HThylDZu2Uor1qwTsdmyh44eo9uRkeIsX0vcbXtTKxaOxc5p3OTvyNXHnxzdvWn2/IViAC3P8xC/PikpNGPOfPEcpN8LKH8IgKAUXAFADgiAtsM7MEh8VGquEPjrxgJPUVGRqDyDlqEmPhbOyqKLl6+IdwTZI2K5WlZWNk2dMatM706CeSAAglJwBQA5IADalpbtO9PDx49lD2kVqeXm5tLAoSMRAmWGAAhKwRUA5IAAaFuq611p+Jjxst4VM7axu4pKbixs338QTU1bt+O+H1B+EABBKbgCgBwQAG0Pm8G7aNkKcTasNTcWnDIzM2nAkOG0at16SkhIpOJiZd65ZCF2/8FD5FEjkPt+QPlAAASl4AoAckAAtE06d29xwkZmVhZZY2Ph78XLl+LWbL+cc+NWben4j6fEGbZKbCxwjxo/kfteQPlAAASl4AoAckAAtF2eNWrR0pWrKTfX9F1CLNVevnxFQ0eN4db18/APFEMU20bOUpNZ2HZwbAu8jZu30rxFi0XrN26mC5cui9vAleX9yQcPH5Z5CzswDQIgKAVXAJADAqBt03l406z5CygjI7NMwcZcjYW6+PgEcSHl6k6Gt1Vjkyl8awXTqrXrKTkllYqKyh4E2XFZ8Nu4dTs1atGavAJqiXdJ2TkwjkJoY4GZ7aqyZt0GSk/PMCmAssW4h4wcw31OYHkIgKAUXAFADgiAto/tWNEnYrC4g4VcEy5Y+MzJyaFjP56kBs1acudoCFvsuUmrdrR734EyLfJcWFhIV65do47de/7XAtJvwv4N2/f3/KVLVCB8rDGNfZ5nz18gZy8sEF3eEABBKbgCgBwQACsGFmrCmrSg7bv2UF5e+T8SZlvETfl+FvkHhXDn9jZsp49R4yZQ5N370m5L1Vj4q9+4Gdfv29QNbyyGOWNbbNxzatu5G9cfWBYCICgFVwCQAwJgxeLs7U/9Bg2lGzdvUU5urkUfC7NHqGz7NrZrSLM2Hd74yLc0HFw9xZnCxjY20aRh81Zcf6VVN7wJxcbGGfV1yi8ooCkzZlEVh//bPg8sDwEQlIIrAMgBAbBicnT3omGjx4l3uBIS2fIrxr/v9qbG3oN7GhND+w8ephbtOpbqsevbsPfzTp7+SXqoElt2djaNnfQtVS3D8dm5Dxk1Rnx/0Ji2e+9+chHCtrQ/sBwEQFAKrgAgBwTAis0roDZ179OfVq5dT5H37pn8eJjdIUtNS6Mz587TtJmzqUX7juTg5skdz1S16zWgp09jpIctsV2+eo1qhYZxfRmLPbY29lHwtRs3qUadUK4vsBwEQFAKrgAgBwRAYFhY86sdQs3bdqBvp8+g02fPilucva09evxEXEKFLeYc2qiZeKeOTTqR9l9WYU1blOp8fmls8saylavLdPfvF+wu4NyFiynPiIW1X7x6JXw9mnJ9geUgAIJScAUAOSAAgiHs0W1sXBy9rc2cO98sj3jfpnPPPtJDl9jYu4ds5rO0H1N16dVXnMhS2sYegzdu2YbrBywHARCUgisAyAEBEAyxtgDYf/Aw6aFLbPEJCdSkVVuuH1PVb9KC4p6/kB6mxNa6Q2euH7AcBEBQCq4AIAcEQDDE2gLgsFFjpYcusb16FS+EtuZcP6aqHdqAnsXGSg9TYuvUvRfXD1gOAiAoBVcAkAMCIBhibQGQvWNoTItPSKSmbdpz/ZgqvHlLev7ipfQwJbbWHbtw/YDlIACCUnAFADkgAIIh1hYAu/TsKz10iS0tPZ0iho7g+jFVz/4DKTk5RXqYNza8A1j+EABBKbgCgBwQAMEQawuAbDHnfCNm4bLt31asWWeWWcBsQef5i5eKCzyXtr2Kj8cs4HKGAAhKwRUA5IAACIZYWwBk6wDGPHsmPXyJje19XLdhY64vY9UKbUBXrl6Tdl9iu37zJgVgHcByhQAISsEVAOSAAAiGWFsA9AyoRad+OiM9fImNrRv4/ey5ZVqXsKrOhSZNmU45OTnS7ktsu/cdwE4g5QwBEJSCKwDIAQEQDLG2AGjv7E5LVqwyak9e1hISEsr0Ll69Rs3E/YSNaQUFhWLwxF7A5QsBEJSCKwDIAQEQDLG2AMj0HjCIkpKTpafw1vbw0RNxhxNj7gSyO3+NW7ale/ejpN29tcXGPae2XbpxfYJlIQCCUnAFADkgAIIh1hgAawTVFffYNfYuYHFxMd2LekDDx4wjjYsH16+UvZMbDRw+km5H3qWioiJpdyU2dm5sP2RnPP4tdwiAoBRcAUAOCIDwa9V0LuTg5kWDho8q1dZncxctIa2rZ7mEQHaM+cLx2D6/xjYWzFLT0ujwsePUrkt3cvL0oepC0GN3BRn233Ue3uLaffsOHqbklBSjgyZrbPbxhG+ncOcOlocACErBFQDkgAAIjE9gHerRdwBt2LTFqAWP8/Ly6Mat2zR7/kIxPHnWqMX1bU5eNWsbdX6GWrEQ7NhWcafOnKWtO3aKTp7+iV6+ihf/v7K0R0+ekrYUdxnB/BAAQSm4AoAcEAArNlffGjR01Fg6cfIUZWZlkamtuPg1JSYm0ZFjx8V9e529/bhjmQsLm+yxrrU1tk7huMm4+ycXBEBQCq4AIAcEwIqJPU5t0qotnT5zVtw1w5THnYYa6yclJZWO/3iKWrTrZJFHwzVD6tHV69fNds7maOxcjp88Td41g7jzhfKBAAhKwRUA5IAAWPF41gikGXPmUUZGJlmyscfDs+YtJJ9A84eiTj16U2xsnFWEQHYO0Q8fUov2nbjzhPKDAAhKwRUA5IAAWLH41Q6hnXv2UlZ2NpVHy8nNpQOHjlBIg7LvyPFrbF3Ab6fPEEOm3C0nJ5eGjhpjkbudUHoIgKAUXAFADgiAFYdXQG06/uNJKjBiT1tzNDYz9satW+QfFMKdU1k4unvR+k2bqUim9wHZnT+26PPSFavFQCo9PyhfCICgFFwBQA4IgBVDrdD6dPrsOdkmT7CwxPbmDWvSwqw7ZDh5+tLq9RvKNIHFlCYuK5OaSrMXLBKCqDd3XlD+EABBKbgCgBwQAG2fk5cvbd+5W5ylKmdjdwLZ5BBz3wn08K9JcxYspMzM8guBbE3BCd9NJb0QQKXnA/JAAASl4AoAckAAtH2Tpkyj3NxcsoaWn19Aa37YYNa7gAxbvJotZyOu5VdcbJHJIaxP1vejx4+pT8RgPPa1MgiAoBRcAUAOCIC2rXm7juKjSmtrvQYM5M7VHGqFhtHGLdvEhZ7NGQJZ8Hv+4gUtX72W/GsHc8cF+SEAglJwBQA5IADaLne/ANp/8JDR+9mWR7ty7Zq4np/0nM2B7cTBAuaefQcoKTm5TEGQBT92V3Hztp3UuWcfqqpz4Y4H1gEBEJSCKwDIAQHQdvWOGETJySlkSmOhiWHv7bE9gS9duUpHjp+g02fOiY9Ac/PyyvSoNTsnh6Z8P9OiS6e4+tSgxq3a0KKly+nJ0xjxHUgWhn8571+f+y//m/1/7N/kCf82Kjqa5ixcRA2atRQnm0j7B+uCAAhKwRUA5IAAaJtY+Pnx9E9kSmMhKDYujjZt204t2nU0GNLY4s5TZ8ymazdumPx+4e3IuxRUvyHXtyWwz6FmcD0aPGI0LV25mg4eOUpnz1+gi5eviM4I/33/ocO0aPlKihg6Qlwv0dzvKYJlIQCCUnAFADkgANqm5m07mLQ0Cgt/Z86dp7adu5VqkgN7jLtgyTLKMuFY+QUFNHjkaK7P8sJCoYObJzm4eiLs2QAEQFAKrgAgBwRA27RkxUoytrHwd+zEj0bflWMBiu3KkZ6eYfQjYbYwtbQ/AFMgAIJScAUAOSAA2h525+7xk6dkTGPh78dTP1FAnVCuv9Ko7uRK3077njIzjdtfmL2Xxx5XS/sDMBYCICgFVwCQAwKg7Qlr2oLS0tLJmMaWimnTuRvXlzFcfWuICz0b27r26sv1BWAsBEBQCq4AIAcEQNvDFkRms2yNaWwChDmWOOnQtYfRj4HnLlrC9QNgLARAUAquACAHBEDbw2a5FhQUUGkbW+qldceuXD+mqK53FWf3GtOOHDvO9QNgLARAUAquACAHBEDbwmaz7tq7z6i7cGzJF5/AOlxfpmAza1etWy89RInt6vXrpZpxDFASBEBQCq4AIAcEQNtS3cmNDh87TsY0th6em695JmKwADpm4mTpIUpst27fIWdvP64vAGMgAIJScAUAOSAA2hZHd286ftK4iRhHj58QApg/15ep+g4aIj1EiS3y7j3yrFGL6wfAGAiAoBRcAUAOCIC2RePiQUdP/EjGtFNnzpp1KZaho8dKD1Fiu30nklx9A7h+AIyBAAhKwRUA5IAAaFvYO3gHDh8hY1rUg2jyCqjN9WUK9gh47sLF0kOU2K7fvEVaV0+uLwBjIACCUnAFADkIAdBJCIC3pIMpKNeaHzZSUVERlbaxWcBNWrbl+jEFewfxyrXr0kOU2NiexdJ+AIwVHNZoOhkY4wCsDVcAkIMQAB2EwfOadDAF5fpu+kzKy8sjY9rKteu5fkwR2qip0cdevX4D1w+AsYQAOIkMjHEA1oYrAMhBCIDV1Br9BelgCsrVpVcfyszKImMaWwqmVmgY15cx2OPnDVu2Srt+axsxdjzXF4Cx6jRoNJIMjHEA1oYrAMhh5569X6o1uh+lgykol7OXH718+YqMaeyRMXt30LNGINdfabAFoFmQS0lNlXZdYisUjutfO4TrD8BYwWGNepCBMQ7A2nAFADkIAfAvKo1ur3QwBWU7cuwEGduysrJoxZp1QoD05forCZv40b1Pf3r46LG0y7e2+w8eiHcOpX0CGCu4QaNwMjDGAVgbrgAgh517936o0uo2SAdTULaIocPJlMZC4Kat28W7iNI+DWHhr0/EIHoWG2fU7iO/tDkLFnF9ApgiOKyROxkY4wCsDVcAkENxcbHdsNFjpwsDaIF0QAXl8g4MEhdYNqUJPxP06PETGj95CrurIu7SUVXnIvbLAp+Dmyf51Q6mTj1605Hjxyk3N9ek8MdCY1iT5ty5A5ggJyJi4N/IwBgHYG24AoBcRowZ30Ot0WcaGFRBoao7udL0WXMoLz+fTG3svcDoh49ox569tHDpcpom9Mfu2K3fuInOXbhIWdnZ0g8pdWNLz6z9YQM5untx5w5gLJVWH5mcnPIpGRjfAKwNVwCQixAAg4QAmCAdVEHZQhs2pTuRkWSuxu4MmqvFxj2nVh07c+cMYAohAO4UAuDHZGB8A7A2XAFALoOHjvxL5eqOj6SDKijfoBGjKCMzk6ypsSA5beZs7lwBTPT6a61+aFJyyrtkYHwDsDZcAUAu27Zts9O5eR02MLCCwmldPWjX3v1kTe3y1euk9zRupjFACTK6DIiol52Tw41tANaIKwDIKTCk/ggDAyvYADaRI/KeaRNCzN1inj2jtp26cucIUAY3Dx456kgGxjUAa8QVAOTUpVd/e2EgzTUwuIINaN6mA925e8+s7/EZ09gsYRb+evaLEGcSS88PwETFX1bVrN574OAnZGBcA7BGXAFATi9fxf9BpdWfNTDAgg1goatj917irF45WmJSEvUfPIyqYtFnMCtdRlBoWO9bt25xYxqAteIKAHISAuBvvrbXjxEG1df8IAu2gIXAdl26U7QJO3aUpT1//oIGjxiNHT/A7FRa3eNx306pTgbGNABrxRUA5PT69Wu7bbt2ewt/UUdLB1mwLbVCw2jn3n2UaeHZwXl5eXTi1E8U3qwlHvuCRYSEN15VUFDAjWcA1owrAMhtz779f1BrHNcLA2uRdKAF28J295g09Xt6EB1t9vcCi8X3/WJp8fIV5OEfyB0bwEzyQ5o0CyADYxmANeMKAHKLj4+369S9VwuVVp9sYLAFG8O2d2vYrCUtWbGKkpNTyByNbQu3ftNmat6uI2lcPLhjApjRTz+eOfN7MjCWAVgzrgBgDRauWvVbe2f3EwYGW7BRLAj6BAbRd9/PpAsXL1Hc8+fiNm9vuzPIZvbm5OTQy1fxdPX6DZq7cDEF1Qv///sGA1iKSqvLDKwb2iIjM7MSGRjHAKwZVwCwFnVC64cJg2yedNAF2+fo5kVNW7ejcZOn0Io162jvgYN05tx5unzlGt28fZuuXL1G585foIOHj9Ka9Rto8rTvqW2XbuTk5cf1BWAhxUIA3H/42PEvpGMXgBJwBQBrceTo0c9UWv1BAwMvVCDsTp6Ltz/51w6hwLphVCesIdUS/rNGnbrk5htA1fSu3McAlIPkHn36t0tITHxHOnYBKAFXALAWKampdoFBwYEqje6ZgcEXAEA2GhePzcvWr/+tdNwCUAquAGBNIu/d+7he42ZT1dgdBACsx6vFy5Y7SMcrACXhCgDWZuz4775Wa/Q3DQzCAADlreDr6vqxGRkZ70rHKgAl4QoA1iYvL8+ua+9+ASqtPsXAYAwAUF4K3f1rbjj500+fs0XrpWMVgJJwBQBrlJyc8v43DvqxwgCcaWBQBgCwPI3+xndTZzlLxycAJeIKANYoPz/fbvqsWX9XaR03CANxATcwAwBYlC6nZnCD+lFRjzDrF2wCVwCwVmyvzXmLF3+hcXY7IgzIr/kBGgDAEnSpAcGhfZKSk9+TjksASsUVAKzdvIWLqwuD8iU1QiAAWJhKq08Pb9Zy7IOHDz+VjkUASsYVAKxdfkFBpemz5tRg7+OoEQIBwIICQ8OmR0U//KN0HAJQOq4AoAQFBQXvzF+0VK9xdj+jRggEAPN6LfyBmR4QHDo1OTnlQ+n4A2ALuAKAkixYvLSaMFifUGNiCACYi0YXH96s5bDoh4/w2BdsFlcAUJKCgkK772fPEUKg7gdh4M7jBnIAAOOkBIU2aP3gQfQn0vEGwJZwBQClYbODFy9e/ElIg0YjhcE7QVBsYFAHAHgjlfAH5FdVNT/51Qn2T0lNxVIvYPO4AoBS5eXnv9O1V7+GKo3+tDCg50sHeAAAQ9hMX8+A2jOGDh/51b1797ixBcAWcQUAJYtPSHy3ZZt2Vf5dpfp3wsCeIx3oAQB+pUhwrbqjvt3ZCxd/Jx1PAGwZVwBQuqysLLuXL1++H9ywkZ+bb8ABYYBPNTDwA0DFVSh4HhLeaMyyVav+kZKS8g729oWKhisA2JJjJ05+pnFy6ajW6C+q8VgYoKJ7rdLqE6rrnFf1GTDQRzpeAFQkXAHA1hw7ftxu9tz59t9oHccLF4CXBi4KAGD7ilUa3fm69ZvVO3Ls2B9TUlK4sQKgIuEKALaIzRROSk5+v//gwWq/oJBNKq0ukV0QDFwkAMCWaPQFDq5eN0PCGvU6d/7iX9PTMypJxweAiogrANi6R4+ffBhcv0GDL6va71Rj7UAAW8X+wHtSxd5h7pr1G7+SjgMAFR1XAKgIbt++bbd7375/fKV17C9cJO7952IhvYAAgCLpCtni8BHDhtc8cODgR9LffwBAAIQKLiEx8b2lK1b/b1D9hpOEC8cL9c+zAw1cUADAyrH9e7O+qqo5Fxga1jgxMenj7JwcPO4FeAOuAFBR9eoX4feNVr9WuIiw3UReG7jAAIB1KlJpdLdq1A6OGDBw0OePHz/mfr8B4L9xBYCKis0K3H/w4J9CGjYKV2l1F9R4LAxg/TT6ZLXWcd6ipctdL1++jC3cAEqJKwBUdKmpqZXOnD//ea36Yf0dXD3vsFmE3EUHAORULPxepn1VVXtw6KixrvEJCR+ymf7S32UAeDOuAAD/Z836DZVVTq7zVRrdU/Giw1+IAKBc6QpUWt2xJm3ad4gYOAjbtwGYiCsAwH/bc+TIxwOGDKut1jpu/nl2ofSCBADlQxfr6OYxavf+A18/fPIEj3sByoArAAAvKyur0qv4+N/VDKnf/KuqmksqjT5bjYkiAOWB3XmP13t4L163YZN9QkLC+9LfTwAwHlcAgDd7+vSpXZ/+A/7hFxg6RK3R3fnPxUl6wQKAsmN/YKUJdvcdODh0165dWNIFwIy4AgC83cWLV99duGS5h1rjtEi4QKUYuHgBQFlo9LeatGzbYfe+/f/IyMD2bQDmxhUAoHTYrMMXL199NHTUGK+qOuejao0uQ63V4bEwgOkKVRr9Y1ffmpOuXr/xz9TU1Helv3cAYB5cAQCMN3PW7N81a9W+q1qjP4llYwBMoXuldfNYOXTkJN3589dxxw/AwrgCAJjm8eOn7+zavU/l6OE5TriYxfEXOAAwgP3BdHj42PGNDx09+qn09woALIMrAEDZvHz16oO1P2zUObp5rFRrdIlqTBQBkGKvSuQJfyjd9woI7Nard58/ZGdnY1kXgHLEFQDAPDZt2lSpd7+IsMoapwPCxS79Pxc96YUQoMJRafUPaoXWnzxy9JivkpOTud8dALA8rgAA5pORkVlp+669XzRt1a6rcOGLlF4IASqYzMoa3cYVa9b5X7l27QPp7wsAlB+uAADml5yS8p63r++XLr7+01RaXYxaoysycHEEsEXsznf2N3qXsy6e3qErV636fWFhIfc7AgDliysAgOWcv3Kl0sBRo120Lp5r1Rp9goGLJYAN0bEJHldatu80eMrs2Z9Jfx8AQD5cAQAsb/+hI58NHzO+hXBxPKH+eRakgYsngKKleNYInLZ9125tTGzse9LfAQCQF1cAgPKRlZX1Tq/evf/s7hvQR6XVP1JrdflqTBQBZXut1uhSHN29dtQKDvG+fz/qQ+nPPQBYB64AAOUrJTXVbuCo0apadetNFy6ejw1cVAGUIFut0Z/uN3BI8+27d2OCB4CV4woAII8rV6/+dsXqtYHChXSbeDHlL7AAVkml1T1q27nroG3bd1XOy8vDLh4ACsAVAEA+hYVFdjt27vpD7ZDQRlV1LpeFi2uuGo+FwToVqbW6eFffGsuateilSk5JeV/68wwA1osrAIB1mDpr9h9btOs4UqXR3RQUGrgAA8glzdnbf8ugESNr3Lpz5zfSn10AsH5cAQCsx7Nnsb/ZvG2Hk2dArdnqn3cTkV6IAcqT8IeI7uJf/vFF11179/9Z+vMKAMrBFQDA+ty9/+BjD+/6AQ5uXvuFCzCCIJQrlbhUke6ld83aw6ZOm/bFw4cP3ysqKuJ+TgFAObgCAFivHXv2fNgnYlAb4YJ8Qbgw50gv1AAWEFenQaNFA4cNc8jNy+N+JgFAmbgCAFi3vPz8SkNHjvrmf76sPFKt1T01cMEGMIc84Q+Nw44tW4XcuHX7E+nPIQAoG1cAAOuXkZFh9/Dhow9at21XzcXb7wchCCYLF+xiAxdxAGPlV9O73nIPqNVx5959f4tJSOB+/gBA+bgCACjL7cjI9wcMGRbk4u2/U7h4Zxq4oAOURqFao49q07HLtDnzF/9F+nMGALaFKwCAMu05cOhvf/H17yNcyK+rxTXauAs8wJvkVtHqF3fv1cf75atX2MUDoALgCgCgTMXFxXZRz2J/893UqV96+Nccp9Lok1Tish3cxR7gZxpdlqOb12n3moH1ox8++iQlJYX7uQIA28QVAED58vPz7foNGuYSFNZwlRACX3IXfqjo8tVa3Y3+g4Z2PXDw8KfSnx8AsH1cAQBsx/Wbtz4LDApuoNLoT6o1bC03LghAxcK2FXzxlaPTd5O+n6GT/rwAQMXBFQDAtsTFxVXasWfv/7j51+hVTe8SpRYX9eWCAdg0XbFKq8t09vLd26l7D13048cfZefmcj8rAFBxcAUAsF0z5y34+xdfqeYKoeCxGhNFKgaNLverqvYHAkNCGz589Pi30p8JAKiYuAIA2C42UWTx0qUfdujTt2ZlB/0qNe4G2rJitVZ3r5pWN2T12nVfXL58mft5AICKiysAgO1LTEmxe/Dw4Weufn7Nta6el4SwkKv++f0waYgA5WF3dlPd/GrMnDlnbrWHDx++L/3+AwBwBQCoWA4ePvonB2e3fmqt7o4ay8Yo2WuVVpf4L2e3LR169/ORfp8BAH6NKwBAxbNz5067ydOnu1V2dJqt0uoTWJgwEDDAehVX1urOB4U3arF0564/v0pN5b7HAAC/xhUAoGLKzsmxi4qO/l37Lj09dB4+x4QgmKPWIAhaM7bQdzW962MX7xrDDx459mXs8+eVpN9XAABDuAIAwKMnTz6q17hZ6ypa/XGVVpcvDR4gM404wSO2ms5pyeIVK7+Wfv8AAN6GKwAAMPfv37dbv3HTl9Uc3MYKoeORGo+FrUWBSuO4pdeAiHqbNm/+SPp9AwAoDa4AAPBrUVHRv50xe57e2ct/qRA+0tXi8iJcKAHLeq3W6PO1rp53/OoEt78XFfWn5JQUPO4FAJNxBQCAN+nUvVeQyt5hrxBIUsVQwgcVMD+2i8ddz1p1Rp48/dPn0u8JAIApuAIAwJskJibarVqz9vPQRk06qrW6q2qEQItSafVJKq3jsumz53gfO3v2Hen3AwDAVFwBAOBtYuPi3j145Kja3tn9W5W9Y5xag23lzEajf63S6PMq2zv+1KN/RODd+/c/zcvL474HAABlwRUAAEprz549dh06da1mr3NZJ4SXl2rcESwbjS5fba8/W69Ri+6dOnXGBA8AsBiuAABgrE2bN3/Sa8DApiqtfh9bm44LNvB2Gn2s3sN30qo1P3xz//5DPO4FAIviCgAApkhOSXkn8u69z71qBvWubO/4+D9BEHcES8a+PhnV9a4bFy5Z5hn14OGH0q8rAIAlcAUAgLKIiYmxa96y1T89a9b+VqXVPfxPyJEGn4rutYotqaNxPNaha496W7ZswZIuAFCuuAIAgDkcP3XqvWmz5tQUws4PgjQDIajCUmn0Nxs2b9171Zo1X2RkZHBfOwAAS+MKAADmwmav3o68+6ce/QY0qKJ1uq7W6AvUFfWOoEZfrNLoEuxd3OeePH3mm7i45+9Jv14AAOWFKwAAWMLo0WM+qdeo6SCVVndNCEQsCPIhyTYJgVeXqHXx2NCtVx/9hQsX8LgXAGTHFQAALOV+VNS7y1avcXDy9p0pBKN4A2HJ1uSrtPrjEUNHtN28ffvvpV8PAAC5cAUAAEu7FxX1u/mLlwVWdXRhy8Zkq23rsTD7XIqEz+tFUP3wiFt3Iv8nNTXtXenXAABATlwBAKC8LN248d3Wnbo2U2t15wRZBsKUAuke+wUFz2rfv/+Xqenp3OcMAGANuAIAQHnKzMystGzVqq8btmg1VKXRPeADlUJo9Blqe8ftcxYsrP3TuXMfSD9PAABrwhUAAOTwLDbuA61O71BN77ZGCFPpao1OCY+FXwvnWajWOt36UlW11dx58/9aWFjIfW4AANaGKwAAyOnChavvdO7a10fr4rlTrdUliSGLD15WQJev0uhuhDVpMXLs2GmfSD8PAABrxhUAAKzBxq07/jBg6PD2Kq3jfiFw5fABTDYskD71rBk4acnyVQ6PnjzFen4AoDhcAQDAWqSkpr57/eatv9eqGx5eTe96Qq3R56i0+iIDoczS2NZthVUcnJ5Vd3Ift3z1Oqf7Dx5g314AUCyuAABgjS5fvvZex669ndp07jZNCGSXVVpdvKXDoEq886i7H1AndFuH7r06Tpg4HY96AcAmcAUAAGuWm5tbacnylV8uXr6ikVfNWhPVGv0RQazAPGFQo2fL0VwWgt/KoaPH9hGO43bh4uWPpOcBAKBkXAEAQCnuRUW9f+3GzS8EmrrhzepVd3KdWM3JbYvgVlWdS7pKq8sXwhxTIO5DLO5FrGPb0LH/zK/i4JRd3cktVvj3J6s5uc6trnfruvaHjV5Cf19fu3Hjs/T09HekxwQAsAVcAQDAFly/c6dSmx49/tCxe88qHbv1dOzQtacH07FbD5eO3XvZd+ze/V/jZ836jfTjAAAqAq4AAAAAALaNKwAAAACAbeMKAAAAAGDbuAIAAAAA2DauAAAAAAC2jSsAAAAAgG3jCgAAAABg27gCAAAAANg2rgAAAAAAto0rAAAAAIBt4woA8P82ikfxKB7Fo3gUD28MABn+2DLnewm6AAAAAElFTkSuQmCC;" parent="YGv0oLC9iXFQOewAsgv_-190" vertex="1">
          <mxGeometry x="632.2" y="208" width="194.6" height="109.46" as="geometry" />
        </mxCell>
        <mxCell id="YGv0oLC9iXFQOewAsgv_-125" value="" style="shape=image;verticalLabelPosition=bottom;labelBackgroundColor=default;verticalAlign=top;aspect=fixed;imageAspect=0;image=data:image/png,iVBORw0KGgoAAAANSUhEUgAAAoAAAAFoCAYAAADHMkpRAABOfklEQVR4XuzdB3gUx90/cGE7dmzHsdOdvE7y2uYOA7qT7tS7EAIhIRCi9947ovduU0zvvZreezdgem8ChGhCoqj3LvH776zj/+vsHEJ3utPenr7zPJ8nyS9odtVmv9rdmbEjIjsAAAAAqDi4AgAAAADYNq4AAAAAALaNKwAAAACAbeMKAAAAAGDbuAIAAAAA2DauAAAAAAC2jSsAANiCJ8+e2c1btuzjhUuX/0PwvwuWLFMzC5cs+1r43/9cuHTpn7fu2/eu9OMAACoCrgAAoERjJ075S7su3esI+goW1G/aYl9lre6UWqu/KLii1uivi7S6a8L/viz85zmdt99h4d9uaNelxyThP5sJ7G9H3n1f2jcAgK3hCgAA1qywsNDu6vUbn125fv2b4LDwsGo6lyWC20KoyxFCXZFKqy8WvFb/jN5C/Hc/f4yuSAiIhd84OicJ/e0S9F+1dp3H1evX/xEX9/w30vMAAFAyrgAAYI0ePXr8zqIlK76cOW9B6ypa/SohsN0VgluBgVBnNkL/KUKoPNCyXacRC5ctr7Ft254PpecFAKBEXAEAwNoMHz3hi3qNmk1Sa/QXhVCWLA1q5SBPOO5jvbvvlnZdegZdvX7zA+k5AgAoCVcAALAGkXfv/3bh0mUu1Zxc5qrFO3H6YnXpHuta0muVRl9QVedytU54eONr12/8LTU17R3puQMAWDuuAAAgpwcPHlVavHTVNy7eAePUWt0jFroMBDEroMuqbK/bNnDYyMZbt+75rfTzAACwZlwBAEAunTp3/iC0YbPuanv9BbVGl8eHLqtTLJznS0cXn2VNW7T65vTp09znBABgjbgCAEB5ys/Pt7t+8+ZnvftFhKjtHc+oNPpCtdXe9TNMOOdilb3uZTVH529PnznzdWxcHNYXBACrxhUAAMrLsbNn35k+Z66XSuu4XK3VJUmDlTI5nm3aqk3HhavX/DUrJ4f7nAEArAFXAAAoD2fOnf+rV+3gUSqtPlIITkV8kFIsdvcy+WtHp32DR472ln7eAADWgCsAAFhKUnJypRu3bv/VPzikfXW9a5QQlBT3uNcIr6s4OKVrXNyXLVq23OleVBR2GAEAq8EVAAAsYeOmTR/2jhgUVlnjuFUIR7kGApOtYgH3gYuP37BlK1d9GR0dzX1tAADKG1cAADC3pavXfGnv5LpYCEJxao24np80JNk+jS5brXE8Ua9xsxZJySnYWg4AZMUVAADM4dmzZ+8cOnrsK62L56iqOpdnKtt6z89UbN/hfK2Lx/7eAwb53Lxz5xM2C1r6tQMAsDSuAABQFokZGXZzt2z9c4PGTVurNLqf1D/v4CENQhUdC4IvvtY6zp42b75+/7Vr3NcRAMCSuAIAQFl07Rfh+W9n9+1CyElkQcdA+IH/U1jZQX/dNbR+nzPnzn8m/VoCAFgKVwAAMNa9e/ffnzl3nsbR3XO2EGrS1bjrZwwWkgvsnd2vBgQHN7oTGfmHlJQU7msMAGBOXAEAoLSuXr1qt3jpsi8cnV0Hq7W6u2oEv7LKUts7ruoXMTBw6dKlWDYGACyGKwAAlEZMbOz7gXXrNfyqqv0hcYYrH2bANIVCmH4sfF2nL1215u/SrzsAgDlwBQCAN8nJybW7E3n/4049ero4uHruUWl1uUJYwV0/C1AJQbCa3uWB3tO7z5FjJ7549uwF9/0AADAVVwAAeJNpM+Y6fF3VZaoQTmLVmOBRXgpV9vpDdcNaN7h77/6n0u8JAIApuAIAgNSRo8d/36PvgK5VHZ2vCYEk30BIAct6rdLqXtRt2GTNwKEjtdLvDwCAsbgCAACTnJxsd+/+/U/da9RsoHF2P6vWsMe9uOsnJ5VGxxbTTnLy8h03c/4C1YPo6Pek3zcAgNLgCgAA8QkJ7/fs08+nila/SK3RY4KH9SkUXNW7ufc8/uPJv0i/fwAAb8MVAKBim7dwyZ9adeg8Va3RPfhP0JCGD7Ae6V41Arf36j8gMObZM9wNBIBS4woAUPE8evXKbue+/X/X+fh2rqZziRSCRYGBsAFWic3C1mXo3H3WdezTp9qdO5G/zc7O5r7HAAC/xhUAoGK5cev2Jy5t2gZX1uoPCYEijw8YoBCv1Rr9w7//+8tRk6dOU0u/zwAAv8YVAKDi6B0RYV8nrNESlVaHZV1sR04VB6dzvfsPbHbk2LGPpN9zAACGKwCA7Xr9+rXdnTt33ps6ffq/3Xz8h6q1ukS24LCBEAFKpmF3A3WZGhePQz7+ATXv3Y/6OD4+nvt5AICKiysAgO06ePjoH//yjy+6CyHhghrv+VUIKo0+7d+qatNat2/vFJ+Q8BvpzwQAVExcAQBsz72oqPf6DBzk5+pbY7MQCtKlIQFsXr5aq7vVumPnUQsWLP1Y+vMBABUPVwAA25GYlPRBs5a9VXpP35VCAEjGvr0VGnssnFdN73rJ1cun6e49e/8k/XkBgIqDKwCA8hUWFtqt37j56w7deg5RafVRBsIAVGxZao1+m/Az4nfz1u0PpT8/AGD7uAIAKNuu/fvf7x0xqJFwgT8jXuj5iz/AzzT66JAGjb7v13/YV8XFxdzPEgDYLq4AAMr08NGjj2oH1/XVunruFi7uaWos6wJvx35GCoQgGOsdULv7nLnzPs/Ozn5H+rMFALaHKwCAssTGxb23YfMWB7/aId8JF/NkAxd5gLfT6PNVGv3xCd9Na3X46PHfSX/OAMC2cAUAUI4pc+b8rkW7DoPVGt1VdgHnLuoAxkt08a6xst+w4U53o6IqSX/mAMA2cAUAsG5FRUV2q9es/Uyjc65fVedyXq3V5arxuBfMq0il1b9w9vabEVQn+F9JycnvSX8OAUDZuAIAWK+r16+/v3LNOl+VRrdBjfX8oHxc79CtZ48Nm7d9UVBQwP1MAoAycQUAsD4ZmZl2vYYN/3et0LBv1RodlnWB8pZW2V5/uNegwUHb9u9/V/rzCQDKwxUAwHpkZWW907dfvz87efp2Vmn1D1UaHXvPD497QQ6vhZ/BRAc3zzVVqlV3jnoQ/YH05xUAlIMrAIB1OHjwyCejxk1oqtboDgoX3zwDF2QAmehe+NQKHrFx6w71s7jnWDYGQIG4AgDI68qVK5UiBg1x0Lv5LBcutq/UuOMHVkil0edW1uh/atGuc7eZM2fibiCAwnAFAJBHUlLyu9eu3/yXs5ffZJVGF6PW6AqlF10AK/NardFnVdM5H5rw7ZQaT2JifsdmqUt/tgHA+nAFAChf2dnZdlu37fp7i7YdOwkX06sGLrIA1k+jT6qsdVy8cs16l2vXbmKiCICV4woAUH727NlTqXfEoNpVNE57hYtoqhqPe0HZitUa3c2g0PBhY8eN/zwzM5P7mQcA68AVAMDy4p6/eH/dxs0Ojm5eS9UafYJ44eQvpgAKpBP+iNHlVHFwutGkZZsmMc9iP8vKysaOIgBWhisAgOU8iomptHXnrq+dPf2HCxfLp/zFE8Cm5Ah/4GwZNW5iyMGDxz+U/j4AgHy4AgBYxoCIiA+btm3fXuWgP67Gsi5QcbC72zGOrr6ze/Xtrzpz5gz3uwEA5Y8rAID5sK2znsXGfTRszHgPlb3DAbVWl/GfC6L0Iglg01QafUHlag73XDx9Bl6/efPz5JQUrB8IICOuAADmcfby5XcWLVvhUtleP1e4ACZKL4gAFZfjqeZt2zfZsmfvnzKzs7nfHQCwPK4AAGUTFxdn171nr7/6BtcdoNLqrwsXvCL+AghQobHZ7glfOzptGDVhoqf0dwgALI8rAIBpMjOzKsU+f/5JUFijhl9X01xUa3XZ/7nQSS9+APCzoqo6lzj/OiFT1m/apHrx8uV70t8rALAMrgAAxtu//8CHEcNGB1a2169TafT5Bi50APBm7A+le3ov7947du3+nydPnnC/YwBgXlwBAIyzbsPG/9XonWepNfrHakzwADCdRpet1jjubtamfXh8YuL70t81ADAfrgAAb5ecnFLp3IWLn9cICent4OpxW63V4a4fgHkUq7T6FJ/AOhuGjx6nef7ixQdsNr30dxAAyoYrAMCbpaWl2e3bf+CP4Y1bh6k1+pPsYmXgAgYAZfdaCIJxX2sdJy5csdL+ZGQk9/sIAKbjCgDwZv0HD/WopnNerdboXv285RV30QIA8yqo7KA/79awSadzFy59Jv2dBADTcAUA+G8vX8W/t2zlmv+tGVJ/XBUHp+cqrb7QwEUKACyH/bGV4eYbcDSsSdPAly9ffpSVlcX9rgJA6XEFAPjZ7du37bbt2PV5Na1nL+Hic1uNx70A1iBHrXGcP3jYcI+tW7dhogiAibgCAJBdTMyzD0LDGoZ++Y39NhWbmchfhABAPoVqre7uvytXGb92w6a/SX9/AeDtuAJARZVfUGD3Mj7h/f5Dhqh8atX5Qa3RJamxiweA1VJp9bkObp4Xa4XWb3n+4qU/pqSkcb/XAGAYVwCoqGYvWlztK53zGOHCEqvGDh4ASlKg0uj31Q1rWzP60aNPpL/bAMDjCgAVzfFTp38/cvzENmoH/XnhQpJn4OICANbvtUqri2ncqs288ZO+00h/zwHgv3EFgIqAzSCMT0j4bWC9ev6uPv77VVp9KruAGLioAICy5FfROj2pXa9B32Vr1vwtMTHxHenvPwAgAEIFlJiU9H7vfgOcVRrdTLVGn2vgAgIAyseWa7rgoHduy94PlI4DABUdVwCwZctWrvlT1979xqq0+tuCAgMXDQCwJRpdmk9g0OoxEyb6PY2JeU86JgBUVFwBwNakp6fbnTx56tPgemGNNS4e51RsHTHpRQIAbJiOLRvz3K92yPx+w4f/Iz4+/r38/HxurACoSLgCgC25FxX1ccMmTf2Ei8BeNSZ4AFR0r9Ua/YPP//W//afPmPWldLwAqEi4AoAtKCgosBs94btvwpq2mCEM+k8MXAgAoOLKVml0J8ZMnFz/+MmTv5WOHwAVAVcAULL8/PxKK1eu+l3d8EatVcJf+mrc9QOANxBC4CtX34DlTl26Vk1JTcVsYahQuAKAUh09erTS97PmeggD+1YBZvcCQGk9rx0W3mbX7j1/fPnyJTe2ANgirgCgRAeOHXuvuqO+uTCQ3xQUGxjgAQBKkvzPylUWdO3W/auioiJujAGwNVwBQEmKi1/bHT3x4x9cfGqMVGl1Lw0M6gAApaJir4xodBf6RAyplp2Tg0fCYNO4AoCSHDtx8p+Vtfr1aqzpBwDmE92rX0TDxMRETBABm8UVAJTi0JFjX7r5BrDwh0e+AGBObFvIR9379G9XUFBQSTr2ANgCrgBg7YqLi+2OHj+hcvWpsUMYpPMNDN4AAOaQ1GfAoBY5OTnYQQRsDlcAsHZHjp/4p1qr229gsAYAMC+N/lWPvgPaJOBxMNgYrgBgzQ4cOfpHF58ay9U/P6LhB2sAAPNiY010tz79QvPy8/E4GGwGVwCwRuyx75FjJz5y9fEfr9LqMw0M0gAAlsJCYFSfgQNVObm53PgEoERcAcAaJSWlvPtVFfeewiCcamBwBgCwuK+1+uMTZsz4l3R8AlAirgBgjWYtWOSoxp6+ACCv7LCmLaZEPYj+vXSMAlAargBgbeYvWflpdSf3vQYGYwCAcqXS6hMCgkOaZGVl4X1AUDSuAGBNXsbHf9CpR+8RwsCbJR2IAQBkcv/HU6f/KR2vAJSEKwBYi8zMLLuOXSJchb+4Iw0MwAAAsnH3rTHl2LFj70rHLQCl4AoA1uLps2cfVbZ3WiQMtkXSwRcqnioOTvSNo/P/x/639N8AlB/d47ETJ/sWFhZyYxeAEnAFAGtRs36YjzDQ5vADL1QEju7eFFS/ITVr05669+1PI8dNoKkzZtGMOfNo2szZNGbCJOrZL4JatOso/LtwcvLy4/oAsKAilVa3/vCx43+Ujl0ASsAVAKzBoUPHf+Ps5b/VwKALNozd1Qtu0IjGTvqWtu7YRddv3qKXr15RQUEBGWpFRUWUkJgo/rtde/fT2InfUkh4E6qqc+H6BjA7jf5lz94DgnNycrgxDMDacQUAubFHKsNGjfNTafQvuAEXbFI1vSvVbdiEfti0hZ7GPKOsrCx6/fo1GdPYv88UPu5pTIwYHkMbNRX7lR4LwIxeqzW61cIfKdgmDhSHKwDIbfeePR+rqmuWq7U6vPtn475xcKKwJi1o45atlJGRSeZsmZmZQr/bqHGrtnhfECwpt36DcC0ZGMsArBlXAJDbnv0HnIRB9baBgRZsiKObFw0aPpLuRN4lSzV2V/BB9EMaPHK0eDzpOQCYQ2jDplPJwFgGYM24AoCckpKS3wkIrtdDGFTzpYMs2A4nT19avHwlJScnG/2o19jG+k9OSaWlK1eRm19N7lwAykrj7HFj2crVfyUDYxqAteIKAHJ69Sr+U7VGd0w6wILt8AmsQ/sOHCQ52o+nTpNvrWDunADKRKNPGT95SlsyMKYBWCuuACCn2fPmqYQBNYMbYMEmsPC3decuyn/DrF5LN3Y3cPe+/eQfFMKdG0AZFDVo0mL+/agHmAwCisEVAOQUWLdeZwODK9gAnbs3rVi9lnJyc0nOlpeXR2vWbyBnrBsI5qTRnTp4+GhlMjCuAVgjrgAgl1sxMXYeNYN2cwMrKB6bhTvhu2niun3W0Ni6grPnL+TOE6AMkqbPX1A7v6CAG9sArBFXAJBL32nTPv3KwSnKwMAKChfevBXFPn9O1tRS09LEJWik5wpgouIvHZ16JyWnvEMGxjcAa8MVAOQyfMw4D5VG98rAwAoK5uTlSzv27KVCM939M+es4UNHj5HOw4c7ZwBTVNboVgoB8EMyML4BWBuuACCXEWPHdVFrdenSQRWUiz36jRg2glJTU8nUJi7jkpxCkXfv0fmLl8SZvGfOnaer12/Qk6cx4jt9pjZ2F3D4mPH0jaMzd+4AxlJp9FeFn9Xfk4HxDcDacAUAuYwYO36yGuv/2RRnbz86fPQYmdJY8EtKTqZtO3ZR/8HDqFZoA9K6eor9ssDm7leTmrVpT9Nnz6FrN268cb/gkho7xrETJ8kroDZ37gBG0+hTly1f/mcyML4BWBuuACCHkz+de9/NL3C1mu2tKR1UQbEaNm8l7utrbGPBLCo6mjp060lOb5mtW03vQgHB9WjhkuVUUFho9CPitPR0at2xK9cvgAlehzZobE8GxjgAa8MVAOSwc8++P6s0eswAtjFsuRVjG7uT9/OCzXW4/krCHjcPHTWGXsXHGx0CN2/fwfUHYIrgsEYhZGCMA7A2XAFADkIA/Ldaoz8uHUxBuTTO7vTg4UMyphUXF9PV69epXqNmXH+lwR4RT50xizIyMqRdl9jYDOWqOheuPwBjCQGwIxkY4wCsDVcAkMPOPXu/UWt056SDKShX/cbNxUkWxrSMzEzqEzFIvJsn7a+02CPjEydPSbsusbHgGdKgMdcXgLGEADiYDIxxANaGKwDIYeeefVph8LwqHUxBuUaNn2j0rh9Hjp/g+jFFeLOWlJ+fL+2+xDZi3ASuHwBj1WnQaAIZGOMArA1XAJCDEAD1Kq3+pnQwBeVaunK1OCmjtI29t9er/0CuH1NU17vS9Rs3pYcosa1au57rB8BYwQ0aTSUDYxyAteEKAHIQAqCzEABvSwdTUK5de/eLj1ZL25KTk6lmcD2uH1OwZWIWLV0uPUSJ7dDR41w/AMYSAuAMMjDGAVgbrgAgBwRA22Lv7C4+zjWmsbX8PPwDub5MNWDIMOkhSmwXL18p07uHAAwCICgFVwCQAwKgbXF096bjRk7EOHv+Arn5BnB9mapzz97SQ5TYrt24SdWd3Lh+AIyBAAhKwRUA5IAAaFvYEjBHjh0nYxq7A+fmZ74A2HvAIOkhSmyXr17DHUAoMwRAUAquACAHBEDbs3vfAaMWZI57/pz8agdz/ZiCBbnps+ZKD1FiO3P+AtcPgLEQAEEpuAKAHBAAbc+yVWuMmgVcVFRErTp05voxRTW9q9GPoLfu2MX1A2AsBEBQCq4AIAcEQNszbvJ3lGvkOoBs6zhpP6bwCaxDmZnG7UE8e/5Crh8AYyEAglJwBQA5IADanvDmrSgtLZ2MaSkpqeLHSfsyBpuBvG7jJqMeP7PWpnM3ri8AYyEAglJwBQA5IADaHgc3T3ryNIaMaYWFhbT/0GHyDqjN9VcabP2/Xv0GUnxCgrTrEhu7U+ni48/1B2AsBEBQCq4AIAcEQNu0efsOMrZlZ2fTkhUrxQAp7e9tGrdqS5GR94xagJq185cuYQYwmAUCICgFVwCQAwKgbWrZvpPR7wGyxh7f7tq3n2rVDaNqOheuXyknT1/q0S+CEhITjX70y+46Dh8znuvTktjn5OpTg3xrB1Ot0DCqE9aQatcLp0Dh8/WtVYdcvP2paik+b7A+CICgFFwBQA4IgLbJ3S+Azpw7T6Y0Niv4xs3bNHna91Q3vIn4eFfaPwt+XXv3pQ2bt1Jqaqq0i1K1e1FRFNKgEde3udk7u1GDZi1pyMjRtHDpctqz/4C4+PWtO5H0IPoh3b13n27evkM/nT0nbqM3f/FSGjR8JNVr3Ezc21jaH1gnBEBQCq4AIAcEQNvEQtuocRMpM8u4Gbm/blnZ2RT1IFpcWHrRshX03fSZNHPufNqwZZu4ePSr+HgqFMKiKY19HFuuRuPizp27uTi6eVGPvhF05OhxevT4MaWnp5fqETX7N2lpaRT98BEdOnqMuvTqQ1pX4x+LQ/lCAASl4AoAckAAtF2eNWqJ+wKXJvS8qbHHur9g/TC//O+ytDuRd9kFmzvnsmLvE3rXDKIxE78VQt+T/3++pjb2seyO6IOHD2nE2PHkGVCLqhg4LsgPARCUgisAyAEB0La179qDUlJSyJoaC1VjhYAmPdeyYvsJd+3VT1yIuqCgQHrYMjfWJ7sj2EH4muLRsPVBAASl4AoAckAAtG1sZw72qNWa2rkLF8XHs9JzLYuqjs7i4+kXL1+W6Y7n2xq7GxgX95ymfj8Ls5etDAIgKAVXAJADAqDtY7NeDx4+apG7YsY0Fsxu34mkug2bcOdYFjXqhNKuvfvK9fNjx9qybQf51KrDnQ/IAwEQlIIrAMgBAbBiYLN52Z03dgdLjsYe+z6NeUZdevYxOKvYVP5BIXTgyFHKz8+XHtLiLS8vj3bv20/egQiB1gABEJSCKwDIAQGwYmCPK+s3bk737keRHC0rK5t69h8oPpKWnpup2Dt/e/cfLNc7f9LGgue2nbvNGmrBNAiAoBRcAUAOCIAVi3+dunTy9BmTFok2pbHFntl6fx279+TOpSzYO4Qr16yTNfz90tg5sLUDtS4e3HlC+UEABKXgCgByQACsePyD6ooTQ9LS0smSjT1uPnD4CDVq2dqsEybYTh2DR4yixKQk6SFlay9fvaJeAwaZ9fME4yAAglJwBQA5IABWTHpPH+o/eJi42LElWnJKCs1duFhck0967LKqERRCN27dLtP6fuZubILLuQuXxO3kpOcL5QMBEJSCKwDIAQGw4qrioCd3/5o0edoMirx7T9z5oyyhik2KiHkWS6vX/UBB9cIt9l7cspWry3SerLGPZ4/B09LTRdk5OWVePoZ9/JwFi7nzhfKBAAhKwRUA5IAACEyNOnVpwndTaf+hw+Js3aKi0oUhFqTiExLox9M/0ez5C6lJq3YWfQxaM6Q+xcfHS0+j1I29r3fz1m3atHUbTfl+Jg0dOYYGjxxNE6dOpzU/bKSLV65QTo7p70e+ePmKvAJqc+cNlocACErBFQDkgAAIv2DBzc03gMKbt6IZc+ZRSmoqva2xd/xadehMPoF1qJrOhevT3GYJIdPUiR9xz1/QhG+nUlD9huRgYG9fe2d3IWDWo4HDRop7IJvS2KSXiVOmc32D5SEAglJwBQA5IACCIS3adaTYuDh6W1uwZLm4HIv04y2BTV65ev2G0Y9/2VIt7M5mUP3wUt2dZP/GJzCI1m7YKD4WN6axc7t89Zq4D7O0X7AsBEBQCq4AIAcEQDDEGgNg7wGDKCk5WXoKb237Dx42aTKKk4ePuNSMse8Gvnr1irr06sv1B5aFAAhKwRUA5IAACIZYWwBkC0izdwyN3ckkKjqa6oQ14vorLa+AWuIOKsY09oh6+uy5FpsEA4YhAIJScAUAOSAAgiHWFgA9/APp2IkfpYcvsaVnZIrv85XmsW9J2nbuRi9evpR2/8bGHgPvPXBQ3INZ2hdYDgIgKAVXAJADAiAYYm0BsGZwPbofZdw2dmfPXyC/2iFcX8Zy9vKjXXv3GfUo+PrNWxQQHMr1BZaDAAhKwRUA5IAACIZYWwCsG96EUksxK/mXxh7DLl2xymyPYcdN+paysrKkh3lji3v+nELCG3P9gOUgAIJScAUAOSAAgiHWFgAbNm9t1OzftLQ06jtoCNePqZq2aS9u91baxmYPs+V0pP2A5SAAglJwBQA5IACCIdYWANt06io9dIktMTGJWrbvxPVjKvY49+mzZ9LDvLGxx8VNWrfj+gHLQQAEpeAKAHJAAARDrC0AdujWU3roEltCYiI1a9Oe68dUPrXq0JOYGOlhSmxNEQDLFQIgKAVXAJADAiAYYm0BkJ2PMY+Ak1NSqKsZ1+Kr16gpxcU9lx7mjY29g9i4ZRuuH7AcBEBQCq4AIAcEQJBiW6L1iRhUqnfe1qzfIM6SlfZhbmFNWlBubp708G9s2Tk5NHnq91w/purVfyAlJ6dID/PGlpiURPUaN+P6ActBAASl4AoAckAABIYttNy8XUeaNXc+HTl+QtwLl22h9rbG1sc7deYMLVu1hnoPGGixte/q1G9o1Fp87B28Hbv3kKO7F9eXsdhM4kXLVpTq6/FLexAdTbXrNeD6AstBAASl4AoAckAArLh07t4U1rQlzRRCX/TDR+Jds4KCQqMetbLG/j3boSM3N5dSUlJo97791LV3P/IJrGO2ZVhYXxcvXZYeusQW8yyW2nTswvVlLLYEzc3bt436uhw7cVJcvFraF1gOAiAoBVcAkAMCYMWjcfGgVu0709oNGyk+PpEs0fLy8unKtWs0cuwE8g8KKfNuHDoPb9q4Zav0MCW2YiGwbd+1hxzdTL8LWF3vSgsWL6X8ggJp929sLCguX7WGNM7uXH9gOQiAoBRcAUAOCIAVi3fNIFq5dj09jXlm9L66xjYWhDKzsuj8pUsUMXQEdy7GYHcSp86YRYWFhdLDlNjYenyjxk3k+iutjt16GvXuH2sZGRk0dNRYri+wLARAUAquACAHBMCKwdHdm3oPGEyPnjwxOkSVtbEgmJObS9t27qa6DZtQVZ0Ld35vwoKfZ41aNH3WXIqPTzDqMewvLSk5mUZNmCQ+8pb2/ybsLmmPvgNKNRP6142d3917URQS3oTrEywLARCUgisAyAEB0PZ5BdQSH0mmpKaRnI1NzIi8d48iho0o1SNhvYcP9Rs8lH46e56KjNiH11BLSU2l1et+EAPo244dEFyPZs9fRC9KMQta2tjnuGHLNqNCLpgHAiAoBVcAkAMCoG3zFMLf3gOHKDev9EuoWLqxRZpHjpsozjyWnu8vguqH0669+8XlVEy562eoFRQW0q07d8QZva06dhED5i/H07p6iuv2zZgzjy5duSpOaDGlsZnCzdt24D4fsDwEQFAKrgAgBwRA28TucoWEN6ZTP52hQgu/62dKS0tPp7kLl5CTp+9/nTO7+zZr/gJ6/vyFeDfN3I2FSfYIPCsrW5yx/Cw2VtzijS0cnZmZJS7gbGrgZB934PARs818BuMgAIJScAUAOSAA2qZa9RrQ6bPnLBKizNXYBJEFS5aJj0tdvP2p76AhdO3GTas+55IaWzgbd//kgwAISsEVAOSAAGh72GQHdidKCUGKhcB5i5bQrr37xMkapt59k7vl5eXRwqXLxUfJ0u8HlA8EQFAKrgAgBwRA28LWvFu5Zh3lGbFrhdyNPXa19JI0lmwsaB878SP5BAZx3w8oPwiAoBRcAUAOCIC2o5rehYaPHiveSasojb3LJ3dj2+Zh2Rf5IQCCUnAFADkgANqOwLr16d79KKoILTMzk7Zs30Gjxk+i5y9Kv0ewuVtMzDPq0rMv972A8ocACErBFQDkgABoG9hEio1btpnlvT/2ODYpKZlu3o6kNes20IAhw6hJq7ZUu14DCqoXTk1bt6dBw0fSD5s20527d8WdMsxx3Lc19n5gdnYOnT1/ntp26iou1sxm3LJ9h+9HPSiXc/ilsWPduhNJHbr2wKxfK4EACErBFQDkgABoG1q270jpGZlUlsYCFpvJunX7LmovBBu2e4j0OFI6Dx/q3KM37d53gOITTNupozSNLd0SefceTfl+lnhM6Xk0a92ezl+8VC7vEhYUFNKZc+epQdMW3HmAfBAAQSm4AoAcEACVz8HNi7bv2lOm8MM+9uz5C9Stdz+jtkz7hbOXn7h12uWr16Rdl7mxRZnZxJb6jZuXuHh0nbCGtHbDRkpPz5B2YbaWmpZGK1avpcC6YdzxQV4IgKAUXAFADgiAytehWw+KjXtu8t237JwcWicEJ1cf/7duk1YS9rFufjVphxBGc4Q+y9rYe36nz5ylNp27ksbZnTueIeyxcLsu3enCpcuUkZFhlsfCrI/09HT66dx5atm+U6nPBcoXAiAoBVcAkAMCoLKxwLNs1WqTg066EJLY1mhs+Rhp36ZiQZLtPZyVbfoMXbZDx+gJk8nJ6/92CjEGe3w9ZMRo2nvgIMWZuKsIuyv6LC6Odu3bL74H6eCGNf6sGQIgKAVXAJADAqCy+dUOFt+NM6Wx9fc2bd1Obr4BXL9l5eEfSDt275UestTtxKnTJT7uLS22w0irDp1p8rTpdPDIUYoRgmVJj8rZu4ZPY57RvgOHaOJ3U8V3K3+9XR1YLwRAUAquACAHBEBla9+le4mBpqR29foNMahJ+zQXD/+a9ODhI+lhS9XYu3bsvUJpn6Zis6TZXUEWdmuHNqA2nbpSxNARNHzMONGAIcOpVccuVKtumPhvHN29MLtXYRAAQSm4AoAcEACVjT3+NaVlZGZSh249uf7Mrf/gYeL7c6a0bn37c/0BvAkCICgFVwCQAwKgst28fYdMafsOHja4nIq5edaoRUdP/Cg9fKna0pWruf4A3gQBEJSCKwDIAQFQudj7bampqWRsS0tLpz4DB3P9WQKbGTxi7HhKM+Eu4MXLV8RHt9I+AQxBAASl4AoAckAAVK5mbdpTVlYWGdsuX7tOgaHlt44de6/uQXS09DTe2h5EPxQnuUj7AzAEARCUgisAyAEBULnYJAa2SLIxjS2Hwmbn2ju5cf1ZCruLd/zkKempvLWxpWAatWjN9QdgCAIgKAVXAJADAqByTZ46nfLz88mYlpeXR7PmLeD6srRFy5ZLT+WtjW0t16VXX64vAEMQAEEpuAKAHBAAlWv+4iXiWn7GtMysLBo2eizXl6Wx9wCNbcnJKdR34BCuLwBDEABBKbgCgBwQAJVr+eo14sLFxjS2T26fiPKZAPJrbJ09YxtbC3DQ8FFcXwCGIACCUnAFADkgACqXKQEwIyOTIoQwJu3L0gYOGyE9lbe21FQEQCg9BEBQCq4AIAcEQOWas2CR0Y+As7Ozaeykb7m+LG3SlOnSU3lrS0pOpt4DBnF9ARiCAAhKwRUA5IAAqFwTp0yjPCMngbDAuGT5Kq4vS1u3YZP0VN7aXsUnUKcevbm+AAxBAASl4AoAckAAVK6+AwdTjpHLwLx+/ZoOHztu1n1238bBzYsuX70mPZW3tphnsdSgaUuuPwBDEABBKbgCgBwQAJUrrElzysw0fiHo6EePqHGrtlx/ltKyfSeKjXsuPY23tvtRD8jDP5DrD8AQBEBQCq4AIAcEQOVydPOixMQkMraxtQAnfDu1XLZZqyYcg607yI5pbDt99my5nCPYBgRAUAquACAHBEBlO3v+ApnSbt66Td41g7j+zC2kQWO6efuO+OjZ2DZ34WKuP4A3QQAEpeAKAHJAAFS2abNmk6ltxtx5VMXBievTXL4R+l6+ao24/ZyxjQVG9uhY2qe5fOPoLL6b6OLtT87efuTg6mnRrwVYHgIgKAVXAJADAqCyNWndzuiJIL+0589fUKsOlgtZbTp2pbS0dOlhS9VevoonnYc316epquldqE5YI3FdwfmLltCW7Tto38HDdPT4CTpy7ITw3w/Rpq3bxLuOA4aOoKB64eLja2k/YL0QAEEpuAKAHBAAlc0zoBadvXCRTGnsztylK1cprGkLs979Yn01bN6Kbt+JlB6y1G3/ocPiHTpp38Zgd/VqhtSjaTNn07UbN+lVfDxlZGZSfn6BwUfSrMb2Vk7PyBAC6Cu6fOUaTZo6nWrUqUtaFw+uf7AuCICgFFwBQA4IgMrGJkl8O22GSZMsfmmXrlyhRi3bcH2booqgdacudP3GLYMhq7QtKyuLFi1dTnXDGxs9EUQjhLU2nbrSpm3bxf2Ey3Ie7GPZRJt1GzeLfdo7u3HHA+uAAAhKwRUA5IAAqHzhzVtR1INoKku7cfMWde7Zx+iw9WvsY3v2jxDPpSyh65fGFq1mE0gmfjet1HfgAuvWp2UrV4trCJqzsc/nWWwsLViyjGrUCeWOC/JDAASl4AoAckAAVD4WvNi+wMZuC/frxh4HJyQm0pr1P1BNIUTZO7tzx3kTjYu7ONv3h01bKDHJ+GVpSmoseGVlZ9PJ02eoZbuO4t096fGZanpX6tyjN0XevSc+xjVHAJU21mdeXr4YStt37SEeU3oeIB8EQFAKrgAgBwRA28DedTPXXS+2BduyVWuoW5/+7KJKek9f+sbx/94RZDNo2czZug2bUPe+A2j1uh8oJTVV2o3ZW1pamvgotl6jZuI5/HI+bFeT8d9OpYyMDOmHWKylp6fTmImTyUn42ki/FyAPBEBQCq4AIAcEQNsxfdYck5ZcMdTY3a6U1DS6ces2HThylDZu2Uor1qwTsdmyh44eo9uRkeIsX0vcbXtTKxaOxc5p3OTvyNXHnxzdvWn2/IViAC3P8xC/PikpNGPOfPEcpN8LKH8IgKAUXAFADgiAtsM7MEh8VGquEPjrxgJPUVGRqDyDlqEmPhbOyqKLl6+IdwTZI2K5WlZWNk2dMatM706CeSAAglJwBQA5IADalpbtO9PDx49lD2kVqeXm5tLAoSMRAmWGAAhKwRUA5IAAaFuq611p+Jjxst4VM7axu4pKbixs338QTU1bt+O+H1B+EABBKbgCgBwQAG0Pm8G7aNkKcTasNTcWnDIzM2nAkOG0at16SkhIpOJiZd65ZCF2/8FD5FEjkPt+QPlAAASl4AoAckAAtE06d29xwkZmVhZZY2Ph78XLl+LWbL+cc+NWben4j6fEGbZKbCxwjxo/kfteQPlAAASl4AoAckAAtF2eNWrR0pWrKTfX9F1CLNVevnxFQ0eN4db18/APFEMU20bOUpNZ2HZwbAu8jZu30rxFi0XrN26mC5cui9vAleX9yQcPH5Z5CzswDQIgKAVXAJADAqBt03l406z5CygjI7NMwcZcjYW6+PgEcSHl6k6Gt1Vjkyl8awXTqrXrKTkllYqKyh4E2XFZ8Nu4dTs1atGavAJqiXdJ2TkwjkJoY4GZ7aqyZt0GSk/PMCmAssW4h4wcw31OYHkIgKAUXAFADgiAto/tWNEnYrC4g4VcEy5Y+MzJyaFjP56kBs1acudoCFvsuUmrdrR734EyLfJcWFhIV65do47de/7XAtJvwv4N2/f3/KVLVCB8rDGNfZ5nz18gZy8sEF3eEABBKbgCgBwQACsGFmrCmrSg7bv2UF5e+T8SZlvETfl+FvkHhXDn9jZsp49R4yZQ5N370m5L1Vj4q9+4Gdfv29QNbyyGOWNbbNxzatu5G9cfWBYCICgFVwCQAwJgxeLs7U/9Bg2lGzdvUU5urkUfC7NHqGz7NrZrSLM2Hd74yLc0HFw9xZnCxjY20aRh81Zcf6VVN7wJxcbGGfV1yi8ooCkzZlEVh//bPg8sDwEQlIIrAMgBAbBicnT3omGjx4l3uBIS2fIrxr/v9qbG3oN7GhND+w8ephbtOpbqsevbsPfzTp7+SXqoElt2djaNnfQtVS3D8dm5Dxk1Rnx/0Ji2e+9+chHCtrQ/sBwEQFAKrgAgBwTAis0roDZ179OfVq5dT5H37pn8eJjdIUtNS6Mz587TtJmzqUX7juTg5skdz1S16zWgp09jpIctsV2+eo1qhYZxfRmLPbY29lHwtRs3qUadUK4vsBwEQFAKrgAgBwRAYFhY86sdQs3bdqBvp8+g02fPilucva09evxEXEKFLeYc2qiZeKeOTTqR9l9WYU1blOp8fmls8saylavLdPfvF+wu4NyFiynPiIW1X7x6JXw9mnJ9geUgAIJScAUAOSAAgiHs0W1sXBy9rc2cO98sj3jfpnPPPtJDl9jYu4ds5rO0H1N16dVXnMhS2sYegzdu2YbrBywHARCUgisAyAEBEAyxtgDYf/Aw6aFLbPEJCdSkVVuuH1PVb9KC4p6/kB6mxNa6Q2euH7AcBEBQCq4AIAcEQDDE2gLgsFFjpYcusb16FS+EtuZcP6aqHdqAnsXGSg9TYuvUvRfXD1gOAiAoBVcAkAMCIBhibQGQvWNoTItPSKSmbdpz/ZgqvHlLev7ipfQwJbbWHbtw/YDlIACCUnAFADkgAIIh1hYAu/TsKz10iS0tPZ0iho7g+jFVz/4DKTk5RXqYNza8A1j+EABBKbgCgBwQAMEQawuAbDHnfCNm4bLt31asWWeWWcBsQef5i5eKCzyXtr2Kj8cs4HKGAAhKwRUA5IAACIZYWwBk6wDGPHsmPXyJje19XLdhY64vY9UKbUBXrl6Tdl9iu37zJgVgHcByhQAISsEVAOSAAAiGWFsA9AyoRad+OiM9fImNrRv4/ey5ZVqXsKrOhSZNmU45OTnS7ktsu/cdwE4g5QwBEJSCKwDIAQEQDLG2AGjv7E5LVqwyak9e1hISEsr0Ll69Rs3E/YSNaQUFhWLwxF7A5QsBEJSCKwDIAQEQDLG2AMj0HjCIkpKTpafw1vbw0RNxhxNj7gSyO3+NW7ale/ejpN29tcXGPae2XbpxfYJlIQCCUnAFADkgAIIh1hgAawTVFffYNfYuYHFxMd2LekDDx4wjjYsH16+UvZMbDRw+km5H3qWioiJpdyU2dm5sP2RnPP4tdwiAoBRcAUAOCIDwa9V0LuTg5kWDho8q1dZncxctIa2rZ7mEQHaM+cLx2D6/xjYWzFLT0ujwsePUrkt3cvL0oepC0GN3BRn233Ue3uLaffsOHqbklBSjgyZrbPbxhG+ncOcOlocACErBFQDkgAAIjE9gHerRdwBt2LTFqAWP8/Ly6Mat2zR7/kIxPHnWqMX1bU5eNWsbdX6GWrEQ7NhWcafOnKWtO3aKTp7+iV6+ihf/v7K0R0+ekrYUdxnB/BAAQSm4AoAcEAArNlffGjR01Fg6cfIUZWZlkamtuPg1JSYm0ZFjx8V9e529/bhjmQsLm+yxrrU1tk7huMm4+ycXBEBQCq4AIAcEwIqJPU5t0qotnT5zVtw1w5THnYYa6yclJZWO/3iKWrTrZJFHwzVD6tHV69fNds7maOxcjp88Td41g7jzhfKBAAhKwRUA5IAAWPF41gikGXPmUUZGJlmyscfDs+YtJJ9A84eiTj16U2xsnFWEQHYO0Q8fUov2nbjzhPKDAAhKwRUA5IAAWLH41Q6hnXv2UlZ2NpVHy8nNpQOHjlBIg7LvyPFrbF3Ab6fPEEOm3C0nJ5eGjhpjkbudUHoIgKAUXAFADgiAFYdXQG06/uNJKjBiT1tzNDYz9satW+QfFMKdU1k4unvR+k2bqUim9wHZnT+26PPSFavFQCo9PyhfCICgFFwBQA4IgBVDrdD6dPrsOdkmT7CwxPbmDWvSwqw7ZDh5+tLq9RvKNIHFlCYuK5OaSrMXLBKCqDd3XlD+EABBKbgCgBwQAG2fk5cvbd+5W5ylKmdjdwLZ5BBz3wn08K9JcxYspMzM8guBbE3BCd9NJb0QQKXnA/JAAASl4AoAckAAtH2Tpkyj3NxcsoaWn19Aa37YYNa7gAxbvJotZyOu5VdcbJHJIaxP1vejx4+pT8RgPPa1MgiAoBRcAUAOCIC2rXm7juKjSmtrvQYM5M7VHGqFhtHGLdvEhZ7NGQJZ8Hv+4gUtX72W/GsHc8cF+SEAglJwBQA5IADaLne/ANp/8JDR+9mWR7ty7Zq4np/0nM2B7cTBAuaefQcoKTm5TEGQBT92V3Hztp3UuWcfqqpz4Y4H1gEBEJSCKwDIAQHQdvWOGETJySlkSmOhiWHv7bE9gS9duUpHjp+g02fOiY9Ac/PyyvSoNTsnh6Z8P9OiS6e4+tSgxq3a0KKly+nJ0xjxHUgWhn8571+f+y//m/1/7N/kCf82Kjqa5ixcRA2atRQnm0j7B+uCAAhKwRUA5IAAaJtY+Pnx9E9kSmMhKDYujjZt204t2nU0GNLY4s5TZ8ymazdumPx+4e3IuxRUvyHXtyWwz6FmcD0aPGI0LV25mg4eOUpnz1+gi5eviM4I/33/ocO0aPlKihg6Qlwv0dzvKYJlIQCCUnAFADkgANqm5m07mLQ0Cgt/Z86dp7adu5VqkgN7jLtgyTLKMuFY+QUFNHjkaK7P8sJCoYObJzm4eiLs2QAEQFAKrgAgBwRA27RkxUoytrHwd+zEj0bflWMBiu3KkZ6eYfQjYbYwtbQ/AFMgAIJScAUAOSAA2h525+7xk6dkTGPh78dTP1FAnVCuv9Ko7uRK3077njIzjdtfmL2Xxx5XS/sDMBYCICgFVwCQAwKg7Qlr2oLS0tLJmMaWimnTuRvXlzFcfWuICz0b27r26sv1BWAsBEBQCq4AIAcEQNvDFkRms2yNaWwChDmWOOnQtYfRj4HnLlrC9QNgLARAUAquACAHBEDbw2a5FhQUUGkbW+qldceuXD+mqK53FWf3GtOOHDvO9QNgLARAUAquACAHBEDbwmaz7tq7z6i7cGzJF5/AOlxfpmAza1etWy89RInt6vXrpZpxDFASBEBQCq4AIAcEQNtS3cmNDh87TsY0th6em695JmKwADpm4mTpIUpst27fIWdvP64vAGMgAIJScAUAOSAA2hZHd286ftK4iRhHj58QApg/15ep+g4aIj1EiS3y7j3yrFGL6wfAGAiAoBRcAUAOCIC2RePiQUdP/EjGtFNnzpp1KZaho8dKD1Fiu30nklx9A7h+AIyBAAhKwRUA5IAAaFvYO3gHDh8hY1rUg2jyCqjN9WUK9gh47sLF0kOU2K7fvEVaV0+uLwBjIACCUnAFADkIAdBJCIC3pIMpKNeaHzZSUVERlbaxWcBNWrbl+jEFewfxyrXr0kOU2NiexdJ+AIwVHNZoOhkY4wCsDVcAkIMQAB2EwfOadDAF5fpu+kzKy8sjY9rKteu5fkwR2qip0cdevX4D1w+AsYQAOIkMjHEA1oYrAMhBCIDV1Br9BelgCsrVpVcfyszKImMaWwqmVmgY15cx2OPnDVu2Srt+axsxdjzXF4Cx6jRoNJIMjHEA1oYrAMhh5569X6o1uh+lgykol7OXH718+YqMaeyRMXt30LNGINdfabAFoFmQS0lNlXZdYisUjutfO4TrD8BYwWGNepCBMQ7A2nAFADkIAfAvKo1ur3QwBWU7cuwEGduysrJoxZp1QoD05forCZv40b1Pf3r46LG0y7e2+w8eiHcOpX0CGCu4QaNwMjDGAVgbrgAgh517936o0uo2SAdTULaIocPJlMZC4Kat28W7iNI+DWHhr0/EIHoWG2fU7iO/tDkLFnF9ApgiOKyROxkY4wCsDVcAkENxcbHdsNFjpwsDaIF0QAXl8g4MEhdYNqUJPxP06PETGj95CrurIu7SUVXnIvbLAp+Dmyf51Q6mTj1605Hjxyk3N9ek8MdCY1iT5ty5A5ggJyJi4N/IwBgHYG24AoBcRowZ30Ot0WcaGFRBoao7udL0WXMoLz+fTG3svcDoh49ox569tHDpcpom9Mfu2K3fuInOXbhIWdnZ0g8pdWNLz6z9YQM5untx5w5gLJVWH5mcnPIpGRjfAKwNVwCQixAAg4QAmCAdVEHZQhs2pTuRkWSuxu4MmqvFxj2nVh07c+cMYAohAO4UAuDHZGB8A7A2XAFALoOHjvxL5eqOj6SDKijfoBGjKCMzk6ypsSA5beZs7lwBTPT6a61+aFJyyrtkYHwDsDZcAUAu27Zts9O5eR02MLCCwmldPWjX3v1kTe3y1euk9zRupjFACTK6DIiol52Tw41tANaIKwDIKTCk/ggDAyvYADaRI/KeaRNCzN1inj2jtp26cucIUAY3Dx456kgGxjUAa8QVAOTUpVd/e2EgzTUwuIINaN6mA925e8+s7/EZ09gsYRb+evaLEGcSS88PwETFX1bVrN574OAnZGBcA7BGXAFATi9fxf9BpdWfNTDAgg1goatj917irF45WmJSEvUfPIyqYtFnMCtdRlBoWO9bt25xYxqAteIKAHISAuBvvrbXjxEG1df8IAu2gIXAdl26U7QJO3aUpT1//oIGjxiNHT/A7FRa3eNx306pTgbGNABrxRUA5PT69Wu7bbt2ewt/UUdLB1mwLbVCw2jn3n2UaeHZwXl5eXTi1E8U3qwlHvuCRYSEN15VUFDAjWcA1owrAMhtz779f1BrHNcLA2uRdKAF28J295g09Xt6EB1t9vcCi8X3/WJp8fIV5OEfyB0bwEzyQ5o0CyADYxmANeMKAHKLj4+369S9VwuVVp9sYLAFG8O2d2vYrCUtWbGKkpNTyByNbQu3ftNmat6uI2lcPLhjApjRTz+eOfN7MjCWAVgzrgBgDRauWvVbe2f3EwYGW7BRLAj6BAbRd9/PpAsXL1Hc8+fiNm9vuzPIZvbm5OTQy1fxdPX6DZq7cDEF1Qv///sGA1iKSqvLDKwb2iIjM7MSGRjHAKwZVwCwFnVC64cJg2yedNAF2+fo5kVNW7ejcZOn0Io162jvgYN05tx5unzlGt28fZuuXL1G585foIOHj9Ka9Rto8rTvqW2XbuTk5cf1BWAhxUIA3H/42PEvpGMXgBJwBQBrceTo0c9UWv1BAwMvVCDsTp6Ltz/51w6hwLphVCesIdUS/rNGnbrk5htA1fSu3McAlIPkHn36t0tITHxHOnYBKAFXALAWKampdoFBwYEqje6ZgcEXAEA2GhePzcvWr/+tdNwCUAquAGBNIu/d+7he42ZT1dgdBACsx6vFy5Y7SMcrACXhCgDWZuz4775Wa/Q3DQzCAADlreDr6vqxGRkZ70rHKgAl4QoA1iYvL8+ua+9+ASqtPsXAYAwAUF4K3f1rbjj500+fs0XrpWMVgJJwBQBrlJyc8v43DvqxwgCcaWBQBgCwPI3+xndTZzlLxycAJeIKANYoPz/fbvqsWX9XaR03CANxATcwAwBYlC6nZnCD+lFRjzDrF2wCVwCwVmyvzXmLF3+hcXY7IgzIr/kBGgDAEnSpAcGhfZKSk9+TjksASsUVAKzdvIWLqwuD8iU1QiAAWJhKq08Pb9Zy7IOHDz+VjkUASsYVAKxdfkFBpemz5tRg7+OoEQIBwIICQ8OmR0U//KN0HAJQOq4AoAQFBQXvzF+0VK9xdj+jRggEAPN6LfyBmR4QHDo1OTnlQ+n4A2ALuAKAkixYvLSaMFifUGNiCACYi0YXH96s5bDoh4/w2BdsFlcAUJKCgkK772fPEUKg7gdh4M7jBnIAAOOkBIU2aP3gQfQn0vEGwJZwBQClYbODFy9e/ElIg0YjhcE7QVBsYFAHAHgjlfAH5FdVNT/51Qn2T0lNxVIvYPO4AoBS5eXnv9O1V7+GKo3+tDCg50sHeAAAQ9hMX8+A2jOGDh/51b1797ixBcAWcQUAJYtPSHy3ZZt2Vf5dpfp3wsCeIx3oAQB+pUhwrbqjvt3ZCxd/Jx1PAGwZVwBQuqysLLuXL1++H9ywkZ+bb8ABYYBPNTDwA0DFVSh4HhLeaMyyVav+kZKS8g729oWKhisA2JJjJ05+pnFy6ajW6C+q8VgYoKJ7rdLqE6rrnFf1GTDQRzpeAFQkXAHA1hw7ftxu9tz59t9oHccLF4CXBi4KAGD7ilUa3fm69ZvVO3Ls2B9TUlK4sQKgIuEKALaIzRROSk5+v//gwWq/oJBNKq0ukV0QDFwkAMCWaPQFDq5eN0PCGvU6d/7iX9PTMypJxweAiogrANi6R4+ffBhcv0GDL6va71Rj7UAAW8X+wHtSxd5h7pr1G7+SjgMAFR1XAKgIbt++bbd7375/fKV17C9cJO7952IhvYAAgCLpCtni8BHDhtc8cODgR9LffwBAAIQKLiEx8b2lK1b/b1D9hpOEC8cL9c+zAw1cUADAyrH9e7O+qqo5Fxga1jgxMenj7JwcPO4FeAOuAFBR9eoX4feNVr9WuIiw3UReG7jAAIB1KlJpdLdq1A6OGDBw0OePHz/mfr8B4L9xBYCKis0K3H/w4J9CGjYKV2l1F9R4LAxg/TT6ZLXWcd6ipctdL1++jC3cAEqJKwBUdKmpqZXOnD//ea36Yf0dXD3vsFmE3EUHAORULPxepn1VVXtw6KixrvEJCR+ymf7S32UAeDOuAAD/Z836DZVVTq7zVRrdU/Giw1+IAKBc6QpUWt2xJm3ad4gYOAjbtwGYiCsAwH/bc+TIxwOGDKut1jpu/nl2ofSCBADlQxfr6OYxavf+A18/fPIEj3sByoArAAAvKyur0qv4+N/VDKnf/KuqmksqjT5bjYkiAOWB3XmP13t4L163YZN9QkLC+9LfTwAwHlcAgDd7+vSpXZ/+A/7hFxg6RK3R3fnPxUl6wQKAsmN/YKUJdvcdODh0165dWNIFwIy4AgC83cWLV99duGS5h1rjtEi4QKUYuHgBQFlo9LeatGzbYfe+/f/IyMD2bQDmxhUAoHTYrMMXL199NHTUGK+qOuejao0uQ63V4bEwgOkKVRr9Y1ffmpOuXr/xz9TU1Helv3cAYB5cAQCMN3PW7N81a9W+q1qjP4llYwBMoXuldfNYOXTkJN3589dxxw/AwrgCAJjm8eOn7+zavU/l6OE5TriYxfEXOAAwgP3BdHj42PGNDx09+qn09woALIMrAEDZvHz16oO1P2zUObp5rFRrdIlqTBQBkGKvSuQJfyjd9woI7Nard58/ZGdnY1kXgHLEFQDAPDZt2lSpd7+IsMoapwPCxS79Pxc96YUQoMJRafUPaoXWnzxy9JivkpOTud8dALA8rgAA5pORkVlp+669XzRt1a6rcOGLlF4IASqYzMoa3cYVa9b5X7l27QPp7wsAlB+uAADml5yS8p63r++XLr7+01RaXYxaoysycHEEsEXsznf2N3qXsy6e3qErV636fWFhIfc7AgDliysAgOWcv3Kl0sBRo120Lp5r1Rp9goGLJYAN0bEJHldatu80eMrs2Z9Jfx8AQD5cAQAsb/+hI58NHzO+hXBxPKH+eRakgYsngKKleNYInLZ9125tTGzse9LfAQCQF1cAgPKRlZX1Tq/evf/s7hvQR6XVP1JrdflqTBQBZXut1uhSHN29dtQKDvG+fz/qQ+nPPQBYB64AAOUrJTXVbuCo0apadetNFy6ejw1cVAGUIFut0Z/uN3BI8+27d2OCB4CV4woAII8rV6/+dsXqtYHChXSbeDHlL7AAVkml1T1q27nroG3bd1XOy8vDLh4ACsAVAEA+hYVFdjt27vpD7ZDQRlV1LpeFi2uuGo+FwToVqbW6eFffGsuateilSk5JeV/68wwA1osrAIB1mDpr9h9btOs4UqXR3RQUGrgAA8glzdnbf8ugESNr3Lpz5zfSn10AsH5cAQCsx7Nnsb/ZvG2Hk2dArdnqn3cTkV6IAcqT8IeI7uJf/vFF11179/9Z+vMKAMrBFQDA+ty9/+BjD+/6AQ5uXvuFCzCCIJQrlbhUke6ld83aw6ZOm/bFw4cP3ysqKuJ+TgFAObgCAFivHXv2fNgnYlAb4YJ8Qbgw50gv1AAWEFenQaNFA4cNc8jNy+N+JgFAmbgCAFi3vPz8SkNHjvrmf76sPFKt1T01cMEGMIc84Q+Nw44tW4XcuHX7E+nPIQAoG1cAAOuXkZFh9/Dhow9at21XzcXb7wchCCYLF+xiAxdxAGPlV9O73nIPqNVx5959f4tJSOB+/gBA+bgCACjL7cjI9wcMGRbk4u2/U7h4Zxq4oAOURqFao49q07HLtDnzF/9F+nMGALaFKwCAMu05cOhvf/H17yNcyK+rxTXauAs8wJvkVtHqF3fv1cf75atX2MUDoALgCgCgTMXFxXZRz2J/893UqV96+Nccp9Lok1Tish3cxR7gZxpdlqOb12n3moH1ox8++iQlJYX7uQIA28QVAED58vPz7foNGuYSFNZwlRACX3IXfqjo8tVa3Y3+g4Z2PXDw8KfSnx8AsH1cAQBsx/Wbtz4LDApuoNLoT6o1bC03LghAxcK2FXzxlaPTd5O+n6GT/rwAQMXBFQDAtsTFxVXasWfv/7j51+hVTe8SpRYX9eWCAdg0XbFKq8t09vLd26l7D13048cfZefmcj8rAFBxcAUAsF0z5y34+xdfqeYKoeCxGhNFKgaNLverqvYHAkNCGz589Pi30p8JAKiYuAIA2C42UWTx0qUfdujTt2ZlB/0qNe4G2rJitVZ3r5pWN2T12nVfXL58mft5AICKiysAgO1LTEmxe/Dw4Weufn7Nta6el4SwkKv++f0waYgA5WF3dlPd/GrMnDlnbrWHDx++L/3+AwBwBQCoWA4ePvonB2e3fmqt7o4ay8Yo2WuVVpf4L2e3LR169/ORfp8BAH6NKwBAxbNz5067ydOnu1V2dJqt0uoTWJgwEDDAehVX1urOB4U3arF0564/v0pN5b7HAAC/xhUAoGLKzsmxi4qO/l37Lj09dB4+x4QgmKPWIAhaM7bQdzW962MX7xrDDx459mXs8+eVpN9XAABDuAIAwKMnTz6q17hZ6ypa/XGVVpcvDR4gM404wSO2ms5pyeIVK7+Wfv8AAN6GKwAAMPfv37dbv3HTl9Uc3MYKoeORGo+FrUWBSuO4pdeAiHqbNm/+SPp9AwAoDa4AAPBrUVHRv50xe57e2ct/qRA+0tXi8iJcKAHLeq3W6PO1rp53/OoEt78XFfWn5JQUPO4FAJNxBQCAN+nUvVeQyt5hrxBIUsVQwgcVMD+2i8ddz1p1Rp48/dPn0u8JAIApuAIAwJskJibarVqz9vPQRk06qrW6q2qEQItSafVJKq3jsumz53gfO3v2Hen3AwDAVFwBAOBtYuPi3j145Kja3tn9W5W9Y5xag23lzEajf63S6PMq2zv+1KN/RODd+/c/zcvL474HAABlwRUAAEprz549dh06da1mr3NZJ4SXl2rcESwbjS5fba8/W69Ri+6dOnXGBA8AsBiuAABgrE2bN3/Sa8DApiqtfh9bm44LNvB2Gn2s3sN30qo1P3xz//5DPO4FAIviCgAApkhOSXkn8u69z71qBvWubO/4+D9BEHcES8a+PhnV9a4bFy5Z5hn14OGH0q8rAIAlcAUAgLKIiYmxa96y1T89a9b+VqXVPfxPyJEGn4rutYotqaNxPNaha496W7ZswZIuAFCuuAIAgDkcP3XqvWmz5tQUws4PgjQDIajCUmn0Nxs2b9171Zo1X2RkZHBfOwAAS+MKAADmwmav3o68+6ce/QY0qKJ1uq7W6AvUFfWOoEZfrNLoEuxd3OeePH3mm7i45+9Jv14AAOWFKwAAWMLo0WM+qdeo6SCVVndNCEQsCPIhyTYJgVeXqHXx2NCtVx/9hQsX8LgXAGTHFQAALOV+VNS7y1avcXDy9p0pBKN4A2HJ1uSrtPrjEUNHtN28ffvvpV8PAAC5cAUAAEu7FxX1u/mLlwVWdXRhy8Zkq23rsTD7XIqEz+tFUP3wiFt3Iv8nNTXtXenXAABATlwBAKC8LN248d3Wnbo2U2t15wRZBsKUAuke+wUFz2rfv/+Xqenp3OcMAGANuAIAQHnKzMystGzVqq8btmg1VKXRPeADlUJo9Blqe8ftcxYsrP3TuXMfSD9PAABrwhUAAOTwLDbuA61O71BN77ZGCFPpao1OCY+FXwvnWajWOt36UlW11dx58/9aWFjIfW4AANaGKwAAyOnChavvdO7a10fr4rlTrdUliSGLD15WQJev0uhuhDVpMXLs2GmfSD8PAABrxhUAAKzBxq07/jBg6PD2Kq3jfiFw5fABTDYskD71rBk4acnyVQ6PnjzFen4AoDhcAQDAWqSkpr57/eatv9eqGx5eTe96Qq3R56i0+iIDoczS2NZthVUcnJ5Vd3Ift3z1Oqf7Dx5g314AUCyuAABgjS5fvvZex669ndp07jZNCGSXVVpdvKXDoEq886i7H1AndFuH7r06Tpg4HY96AcAmcAUAAGuWm5tbacnylV8uXr6ikVfNWhPVGv0RQazAPGFQo2fL0VwWgt/KoaPH9hGO43bh4uWPpOcBAKBkXAEAQCnuRUW9f+3GzS8EmrrhzepVd3KdWM3JbYvgVlWdS7pKq8sXwhxTIO5DLO5FrGPb0LH/zK/i4JRd3cktVvj3J6s5uc6trnfruvaHjV5Cf19fu3Hjs/T09HekxwQAsAVcAQDAFly/c6dSmx49/tCxe88qHbv1dOzQtacH07FbD5eO3XvZd+ze/V/jZ836jfTjAAAqAq4AAAAAALaNKwAAAACAbeMKAAAAAGDbuAIAAAAA2DauAAAAAAC2jSsAAAAAgG3jCgAAAABg27gCAAAAANg2rgAAAAAAto0rAAAAAIBt4woA8P82ikfxKB7Fo3gUD28MABn+2DLnewm6AAAAAElFTkSuQmCC;" parent="YGv0oLC9iXFQOewAsgv_-190" vertex="1">
          <mxGeometry x="1287.2" y="753.2700000000001" width="194.6" height="109.46" as="geometry" />
        </mxCell>
        <mxCell id="YGv0oLC9iXFQOewAsgv_-126" value="" style="group" parent="YGv0oLC9iXFQOewAsgv_-190" connectable="0" vertex="1">
          <mxGeometry x="832" y="437" width="168.88" height="710" as="geometry" />
        </mxCell>
        <mxCell id="YGv0oLC9iXFQOewAsgv_-28" value="" style="rounded=1;whiteSpace=wrap;html=1;arcSize=7;fillColor=#fad7ac;strokeColor=#b46504;" parent="YGv0oLC9iXFQOewAsgv_-126" vertex="1">
          <mxGeometry y="10" width="168.88" height="700" as="geometry" />
        </mxCell>
        <mxCell id="YGv0oLC9iXFQOewAsgv_-30" value="" style="rounded=1;whiteSpace=wrap;html=1;arcSize=12;dashed=1;fillColor=#FAD7AC;" parent="YGv0oLC9iXFQOewAsgv_-126" vertex="1">
          <mxGeometry x="16" y="175.00324324324325" width="136.88" height="247.54054054054055" as="geometry" />
        </mxCell>
        <mxCell id="YGv0oLC9iXFQOewAsgv_-19" value="A 커뮤니티 게시글 추천 1&amp;nbsp;&lt;div&gt;bucket(L1)&lt;/div&gt;" style="image;sketch=0;aspect=fixed;html=1;points=[];align=center;fontSize=12;image=img/lib/mscae/Cache_Redis_Product.svg;labelBackgroundColor=#FAD7AC;" parent="YGv0oLC9iXFQOewAsgv_-126" vertex="1">
          <mxGeometry x="50.879999999999995" y="209.54378378378377" width="67.39243243243243" height="56.608108108108105" as="geometry" />
        </mxCell>
        <mxCell id="YGv0oLC9iXFQOewAsgv_-20" value="인디 커뮤니티 게시글 추천&lt;div&gt;bucket(L2)&lt;/div&gt;&lt;div&gt;&lt;br&gt;&lt;/div&gt;" style="image;sketch=0;aspect=fixed;html=1;points=[];align=center;fontSize=12;image=img/lib/mscae/Cache_Redis_Product.svg;labelBackgroundColor=#FAD7AC;" parent="YGv0oLC9iXFQOewAsgv_-126" vertex="1">
          <mxGeometry x="50.019999999999996" y="430.61135135135135" width="67.39243243243243" height="56.608108108108105" as="geometry" />
        </mxCell>
        <mxCell id="YGv0oLC9iXFQOewAsgv_-22" value="A 커뮤니티 게시글 추천 2&lt;div&gt;bucket(L1)&lt;/div&gt;" style="image;sketch=0;aspect=fixed;html=1;points=[];align=center;fontSize=12;image=img/lib/mscae/Cache_Redis_Product.svg;labelBackgroundColor=#FAD7AC;" parent="YGv0oLC9iXFQOewAsgv_-126" vertex="1">
          <mxGeometry x="50.879999999999995" y="305.48972972972973" width="67.39243243243243" height="56.608108108108105" as="geometry" />
        </mxCell>
        <mxCell id="YGv0oLC9iXFQOewAsgv_-23" value="Lounge 게시글 추천&lt;div&gt;&amp;nbsp;bucket&lt;/div&gt;" style="image;sketch=0;aspect=fixed;html=1;points=[];align=center;fontSize=12;image=img/lib/mscae/Cache_Redis_Product.svg;labelBackgroundColor=#FAD7AC;" parent="YGv0oLC9iXFQOewAsgv_-126" vertex="1">
          <mxGeometry x="47.74999999999999" y="610.0021621621622" width="67.39243243243243" height="56.608108108108105" as="geometry" />
        </mxCell>
        <mxCell id="YGv0oLC9iXFQOewAsgv_-27" value=".&lt;div&gt;.&lt;/div&gt;&lt;div&gt;.&lt;/div&gt;" style="text;html=1;align=center;verticalAlign=middle;whiteSpace=wrap;rounded=0;fontSize=20;" parent="YGv0oLC9iXFQOewAsgv_-126" vertex="1">
          <mxGeometry x="51.45" y="538.0021621621622" width="60" height="28.783783783783782" as="geometry" />
        </mxCell>
        <mxCell id="YGv0oLC9iXFQOewAsgv_-29" value="bucket Group" style="text;html=1;align=center;verticalAlign=middle;whiteSpace=wrap;rounded=0;" parent="YGv0oLC9iXFQOewAsgv_-126" vertex="1">
          <mxGeometry x="22.86" y="176.9954054054054" width="85.5" height="28.783783783783782" as="geometry" />
        </mxCell>
        <mxCell id="YGv0oLC9iXFQOewAsgv_-106" value="Recommend Bucket" style="text;html=1;align=center;verticalAlign=middle;whiteSpace=wrap;rounded=0;fontSize=16;fontStyle=1" parent="YGv0oLC9iXFQOewAsgv_-126" vertex="1">
          <mxGeometry x="4.000000000000114" y="15.997297297297298" width="164.88" height="28.783783783783782" as="geometry" />
        </mxCell>
        <mxCell id="YGv0oLC9iXFQOewAsgv_-114" value="&lt;div&gt;Default 게시글 추천&lt;/div&gt;&lt;div&gt;bucket&lt;/div&gt;" style="image;sketch=0;aspect=fixed;html=1;points=[];align=center;fontSize=12;image=img/lib/mscae/Cache_Redis_Product.svg;labelBackgroundColor=#FAD7AC;" parent="YGv0oLC9iXFQOewAsgv_-126" vertex="1">
          <mxGeometry x="47.75" y="60.000540540540555" width="67.39243243243243" height="56.608108108108105" as="geometry" />
        </mxCell>
        <mxCell id="YGv0oLC9iXFQOewAsgv_-127" value="Lounge DB&lt;div&gt;(graph db)&lt;/div&gt;" style="shape=cylinder3;whiteSpace=wrap;html=1;boundedLbl=1;backgroundOutline=1;size=15;" parent="YGv0oLC9iXFQOewAsgv_-190" vertex="1">
          <mxGeometry x="689" y="338" width="87" height="102" as="geometry" />
        </mxCell>
        <mxCell id="YGv0oLC9iXFQOewAsgv_-58" style="edgeStyle=orthogonalEdgeStyle;rounded=0;orthogonalLoop=1;jettySize=auto;html=1;entryX=0.994;entryY=0.621;entryDx=0;entryDy=0;entryPerimeter=0;" parent="YGv0oLC9iXFQOewAsgv_-190" source="YGv0oLC9iXFQOewAsgv_-36" target="YGv0oLC9iXFQOewAsgv_-23" edge="1">
          <mxGeometry relative="1" as="geometry" />
        </mxCell>
        <mxCell id="YGv0oLC9iXFQOewAsgv_-112" style="edgeStyle=orthogonalEdgeStyle;rounded=0;orthogonalLoop=1;jettySize=auto;html=1;entryX=0.988;entryY=0.475;entryDx=0;entryDy=0;entryPerimeter=0;" parent="YGv0oLC9iXFQOewAsgv_-190" source="YGv0oLC9iXFQOewAsgv_-36" target="YGv0oLC9iXFQOewAsgv_-20" edge="1">
          <mxGeometry relative="1" as="geometry" />
        </mxCell>
        <mxCell id="YGv0oLC9iXFQOewAsgv_-56" style="edgeStyle=orthogonalEdgeStyle;rounded=0;orthogonalLoop=1;jettySize=auto;html=1;entryX=0.998;entryY=0.514;entryDx=0;entryDy=0;entryPerimeter=0;" parent="YGv0oLC9iXFQOewAsgv_-190" source="YGv0oLC9iXFQOewAsgv_-36" target="YGv0oLC9iXFQOewAsgv_-22" edge="1">
          <mxGeometry relative="1" as="geometry" />
        </mxCell>
        <mxCell id="YGv0oLC9iXFQOewAsgv_-55" style="edgeStyle=orthogonalEdgeStyle;rounded=0;orthogonalLoop=1;jettySize=auto;html=1;entryX=1.004;entryY=0.458;entryDx=0;entryDy=0;entryPerimeter=0;" parent="YGv0oLC9iXFQOewAsgv_-190" source="YGv0oLC9iXFQOewAsgv_-36" target="YGv0oLC9iXFQOewAsgv_-19" edge="1">
          <mxGeometry relative="1" as="geometry" />
        </mxCell>
        <mxCell id="YGv0oLC9iXFQOewAsgv_-134" value="라운지 게시글 추천글 저장(AS-IS)" style="text;html=1;align=center;verticalAlign=middle;whiteSpace=wrap;rounded=0;" parent="YGv0oLC9iXFQOewAsgv_-190" vertex="1">
          <mxGeometry x="693" y="490" width="99" height="30" as="geometry" />
        </mxCell>
        <mxCell id="YGv0oLC9iXFQOewAsgv_-135" value="라운지 및 커뮤니티 동기화 정보" style="text;html=1;align=center;verticalAlign=middle;whiteSpace=wrap;rounded=0;" parent="YGv0oLC9iXFQOewAsgv_-190" vertex="1">
          <mxGeometry x="506.5" y="356" width="151.5" height="30" as="geometry" />
        </mxCell>
        <mxCell id="YGv0oLC9iXFQOewAsgv_-136" value="" style="group" parent="YGv0oLC9iXFQOewAsgv_-190" connectable="0" vertex="1">
          <mxGeometry x="27" y="50" width="155.5" height="110" as="geometry" />
        </mxCell>
        <mxCell id="YGv0oLC9iXFQOewAsgv_-97" value="" style="rounded=1;whiteSpace=wrap;html=1;arcSize=9;dashed=1;dashPattern=8 8;" parent="YGv0oLC9iXFQOewAsgv_-136" vertex="1">
          <mxGeometry width="155.5" height="110" as="geometry" />
        </mxCell>
        <mxCell id="YGv0oLC9iXFQOewAsgv_-90" value="L1 User" style="shape=umlActor;verticalLabelPosition=bottom;verticalAlign=top;html=1;outlineConnect=0;" parent="YGv0oLC9iXFQOewAsgv_-136" vertex="1">
          <mxGeometry x="32.5" y="15" width="30" height="60" as="geometry" />
        </mxCell>
        <mxCell id="YGv0oLC9iXFQOewAsgv_-93" value="L2 User" style="shape=umlActor;verticalLabelPosition=bottom;verticalAlign=top;html=1;outlineConnect=0;" parent="YGv0oLC9iXFQOewAsgv_-136" vertex="1">
          <mxGeometry x="88" y="15" width="30" height="60" as="geometry" />
        </mxCell>
        <mxCell id="YGv0oLC9iXFQOewAsgv_-139" style="edgeStyle=orthogonalEdgeStyle;rounded=0;orthogonalLoop=1;jettySize=auto;html=1;entryX=0.221;entryY=0.347;entryDx=0;entryDy=0;entryPerimeter=0;" parent="YGv0oLC9iXFQOewAsgv_-190" source="YGv0oLC9iXFQOewAsgv_-77" target="YGv0oLC9iXFQOewAsgv_-124" edge="1">
          <mxGeometry relative="1" as="geometry">
            <Array as="points">
              <mxPoint x="377" y="246" />
            </Array>
          </mxGeometry>
        </mxCell>
        <mxCell id="YGv0oLC9iXFQOewAsgv_-140" value="라운지 event topic proudce" style="text;html=1;align=center;verticalAlign=middle;whiteSpace=wrap;rounded=0;" parent="YGv0oLC9iXFQOewAsgv_-190" vertex="1">
          <mxGeometry x="504" y="267" width="155" height="30" as="geometry" />
        </mxCell>
        <mxCell id="YGv0oLC9iXFQOewAsgv_-148" value="연관 태그 정보 저장" style="text;html=1;align=center;verticalAlign=middle;whiteSpace=wrap;rounded=0;" parent="YGv0oLC9iXFQOewAsgv_-190" vertex="1">
          <mxGeometry x="1475" y="407" width="181" height="30" as="geometry" />
        </mxCell>
        <mxCell id="YGv0oLC9iXFQOewAsgv_-149" value="유저 활동 Log 저장" style="text;html=1;align=center;verticalAlign=middle;whiteSpace=wrap;rounded=0;" parent="YGv0oLC9iXFQOewAsgv_-190" vertex="1">
          <mxGeometry x="1475" y="315" width="181" height="30" as="geometry" />
        </mxCell>
        <mxCell id="YGv0oLC9iXFQOewAsgv_-150" value="게시글 소비 Log 저장" style="text;html=1;align=center;verticalAlign=middle;whiteSpace=wrap;rounded=0;" parent="YGv0oLC9iXFQOewAsgv_-190" vertex="1">
          <mxGeometry x="1479" y="226" width="181" height="30" as="geometry" />
        </mxCell>
        <mxCell id="YGv0oLC9iXFQOewAsgv_-153" value="추천 대상글 조회" style="text;html=1;align=center;verticalAlign=middle;whiteSpace=wrap;rounded=0;" parent="YGv0oLC9iXFQOewAsgv_-190" vertex="1">
          <mxGeometry x="612" y="437" width="112" height="30" as="geometry" />
        </mxCell>
        <mxCell id="YGv0oLC9iXFQOewAsgv_-154" style="edgeStyle=orthogonalEdgeStyle;rounded=0;orthogonalLoop=1;jettySize=auto;html=1;entryX=0.008;entryY=0.544;entryDx=0;entryDy=0;entryPerimeter=0;endArrow=block;endFill=1;" parent="YGv0oLC9iXFQOewAsgv_-190" source="YGv0oLC9iXFQOewAsgv_-111" target="YGv0oLC9iXFQOewAsgv_-114" edge="1">
          <mxGeometry relative="1" as="geometry" />
        </mxCell>
        <mxCell id="YGv0oLC9iXFQOewAsgv_-157" style="edgeStyle=orthogonalEdgeStyle;rounded=0;orthogonalLoop=1;jettySize=auto;html=1;entryX=0;entryY=0.5;entryDx=0;entryDy=0;entryPerimeter=0;startArrow=block;startFill=1;endArrow=block;endFill=1;" parent="YGv0oLC9iXFQOewAsgv_-190" source="YGv0oLC9iXFQOewAsgv_-80" target="YGv0oLC9iXFQOewAsgv_-127" edge="1">
          <mxGeometry relative="1" as="geometry">
            <Array as="points">
              <mxPoint x="491" y="613" />
              <mxPoint x="491" y="389" />
            </Array>
          </mxGeometry>
        </mxCell>
        <mxCell id="YGv0oLC9iXFQOewAsgv_-161" style="edgeStyle=orthogonalEdgeStyle;rounded=0;orthogonalLoop=1;jettySize=auto;html=1;entryX=0.639;entryY=0.987;entryDx=0;entryDy=0;entryPerimeter=0;dashed=1;dashPattern=1 4;strokeWidth=4;strokeColor=#FF0000;startArrow=block;startFill=1;" parent="YGv0oLC9iXFQOewAsgv_-190" source="YGv0oLC9iXFQOewAsgv_-28" target="YGv0oLC9iXFQOewAsgv_-80" edge="1">
          <mxGeometry relative="1" as="geometry" />
        </mxCell>
        <mxCell id="YGv0oLC9iXFQOewAsgv_-162" value="추천 Bucket 비율 기준 게시글 조회" style="text;html=1;align=center;verticalAlign=middle;whiteSpace=wrap;rounded=0;" parent="YGv0oLC9iXFQOewAsgv_-190" vertex="1">
          <mxGeometry x="513" y="756" width="122" height="30" as="geometry" />
        </mxCell>
        <mxCell id="YGv0oLC9iXFQOewAsgv_-163" value="Bucket 별 추천 게시글 저장" style="text;html=1;align=center;verticalAlign=middle;whiteSpace=wrap;rounded=0;" parent="YGv0oLC9iXFQOewAsgv_-190" vertex="1">
          <mxGeometry x="1032" y="936" width="86" height="30" as="geometry" />
        </mxCell>
        <mxCell id="YGv0oLC9iXFQOewAsgv_-164" value="DIC" style="text;html=1;align=center;verticalAlign=middle;whiteSpace=wrap;rounded=0;fontSize=16;fontStyle=1" parent="YGv0oLC9iXFQOewAsgv_-190" vertex="1">
          <mxGeometry x="1781" y="7" width="88" height="30" as="geometry" />
        </mxCell>
        <mxCell id="YGv0oLC9iXFQOewAsgv_-166" value="up_indie" style="sketch=0;outlineConnect=0;fontColor=#232F3E;gradientColor=none;fillColor=#C925D1;strokeColor=none;dashed=0;verticalLabelPosition=bottom;verticalAlign=top;align=center;html=1;fontSize=12;fontStyle=0;aspect=fixed;pointerEvents=1;shape=mxgraph.aws4.rds_mysql_instance;" parent="YGv0oLC9iXFQOewAsgv_-190" vertex="1">
          <mxGeometry x="2253.9900000000002" y="600.2" width="64" height="64" as="geometry" />
        </mxCell>
        <mxCell id="YGv0oLC9iXFQOewAsgv_-170" value="" style="shape=image;verticalLabelPosition=bottom;labelBackgroundColor=default;verticalAlign=top;aspect=fixed;imageAspect=0;image=data:image/svg+xml,PHN2ZyB4bWxucz0iaHR0cDovL3d3dy53My5vcmcvMjAwMC9zdmciIHZpZXdCb3g9IjAgMCAxMDAwIDkwMCIgdmVyc2lvbj0iMS4xIiB3aWR0aD0iMWUzIiBoZWlnaHQ9IjkwMCI+JiN4YTsgPGcgZmlsbC1ydWxlPSJldmVub2RkIiB0cmFuc2Zvcm09InRyYW5zbGF0ZSgtLjUzMjY4IDY2LjgpIiBzdHJva2Utd2lkdGg9IjUuMTI4NiIgc3Ryb2tlPSIjZmRlZTIxIj4mI3hhOyAgPHBhdGggZD0ibTU5Ny4zMyA2MzcuNzl2MTkyLjg1aDQ3LjM0NnYtODguNjMybDkuNzY3NCAwLjE4Mjczdjg4LjQ1aDQ3Ljg4MXYtMTkyLjg1aC00Ny44ODF2NzEuNTUyaC05Ljc2NzR2LTcxLjU1MnoiLz4mI3hhOyAgPHBhdGggZD0ibTc2MS4yNSA2MzcuNzloLTQ2LjExNnYxOTIuODVoNDYuMTE2eiIvPiYjeGE7ICA8cGF0aCBkPSJtNzY4LjggNjM3Ljc5IDM2LjQyOSAxOTIuODVoNTQuOTg0bDM2LjQyOS0xOTIuODVoLTQ4Ljk1MWwtMTIuMDY3IDgyLjUxN2MtMS4wMDU1IDMuMTYwNS00LjQwMiAzLjE2MDUtNS4wMDg5IDBsLTEyLjA2LTgyLjUyeiIvPiYjeGE7ICA8cGF0aCBkPSJtOTk3Ljk3IDYzNy43OWgtOTEuNTM4djE5Mi44NWg5MS41Mzh2LTUwLjU2OWwtNTAuODk4LTAuNDMzNTcgMC4wMDAxNy0yMS42NzloMjQuMjQ4di01MC4yMDRoLTI0LjI0OGwtMC4wMDAxNy0xOS4zOTdoNTAuODk4eiIvPiYjeGE7IDwvZz4mI3hhOyA8ZyB0cmFuc2Zvcm09InRyYW5zbGF0ZSgtLjUzMjY4IDY2LjgpIj4mI3hhOyAgPHBhdGggZmlsbD0iI2ZkZWUyMSIgZmlsbC1ydWxlPSJldmVub2RkIiBkPSJtNTAzLjY2IDUyLjk1MmMtNy43MS0yMS4xMTUtMjcyLjkyLTEyNC4yMi0yNzYuMzEtMTEyLjktNDguNyAxMi42OTUtNjguNTIgNjguODI2LTEwMi4wMiAxMDQuMzhsLTc0LjM5My00LjI2MWMtMzIuNzcxIDQyLjE0Mi00OS45NjcgODUuMTk5LTM4LjI1OCAxMjkuOTUgNDIuMDAyIDU2LjkwNiA5MC43NiAxMDUuMzMgMTIxLjE1IDE3Ni44MSAyLjQwMiAzMy42OTIgMTQ1LjgyIDMuNTMzIDE3Ni41Ni0zLjEzNjQtNDEuOTkyIDMwLjA1OS03OC41NjEgNzYuNjUxLTYyLjg0NiAyMTAuODQgMTQuMzQ2IDYzLjAxNCAyNC4xNTkgMTMzLjM3IDE1MS40IDIwNC42NCAxNi43NSA5LjM4MTYgNTEuNDA3IDIwLjIwNyA3Mi44MzggMjguMDk4IDIwLjQ5NSA5LjQwMTIgNDQuNDYxIDEzLjI2NCAxMTIuMDctNy40MTIzIDM5LjEyNC0xNi44NjMgODEuMzY1LTI3LjAyMiAxMTkuNjUtNDMuODQ0bC00Ni4wMTcgMi4xNTk1Yy02My4zNjkgMS4zNzg3LTExMi4yOSA2LjEwNTctMTI3LjM4LTExLjZsLTU4LjMyLTEwMC42OCAzNC02Ni4wNGM0Ny4wNTYgNC44MjYzIDYyLjY3NSA0Mi45ODYgMTA0LjE1IDU3LjUxOGw0OC44ODUtMzYuMjE1YzE0MS45OSA4My44MTYgMTk4LjQ4LTUzLjEyIDIxNC42Ny0xNTkuNzctMS43Mjc2LTQzLjM5Mi05My45NTIgMTMuNjExLTg4LjM2Mi02LjY3ODkgMi4xNjYyLTQ2LjY0NC0zNS44NTQtMTA3LjY3LTYwLjQyLTE1NS4yMmwyOC40My0xMTAuMDFjMTIuOS0xMS40OS01OS43Mi0xMzMuODYtMTE5LjAyLTE0OS4xMi01Mi4wMy0xMy4zOTEtMTMwLjQ2IDUyLjQ5Mi0xMzAuNDYgNTIuNDkyeiIvPiYjeGE7IDwvZz4mI3hhOyA8ZyBmaWxsLXJ1bGU9ImV2ZW5vZGQiPiYjeGE7ICA8ZyB0cmFuc2Zvcm09InRyYW5zbGF0ZSgtLjUzMjY4IDY2LjgpIiBmaWxsPSIjYzhjMDM3Ij4mI3hhOyAgIDxwYXRoIGQ9Im03MzYuOTIgMjg2Ljc1YzAuNTA5MjcgMTEuODE2IDAuNDUyMTYgMjYuMTg3IDEuNTk0MSAzNS4xNS0wLjE5NjYzIDYuODM4Mi01LjMyMjcgNy4wODg4LTkuNTY0NSA4LjUyMTJsMjcuNjMxIDEwLjExOWM1LjQ4NTUgOS4yMzEzIDkuODk0MSAxOC40NjMgMTQuMzQ3IDI3LjY5NCA1LjE2NTIgMjIuNzA4IDEuMzEwNSAyMy4zNTctMi4xMjU0IDI1LjAzMS0xMC4wMjcgMC4xMDIxMi0yMC4wMjUgMC4xMjA4OC0yOS4zNTgtMS44NjQgNC4xODEgMi4yMDY2IDUuMTAwNiAzLjgxNTIgNS41NDMgNi42NDIgMC44MTU1NiA1LjIxMTctMi41NDA3IDEyLjMyOS04LjA2NjkgMTkuMTg4IDguMTcxOCA0LjUzNCAyMy4wNzEgOC45Njk4IDM0LjE0IDEzLjE4MWwxMi42Mi0yOC4wOTNjLTUuNzE1MS00MS4yNzEtMjMuMDQ1LTc5LjMwOS00Ni43Ni0xMTUuNTd6Ii8+JiN4YTsgICA8cGF0aCBkPSJtNzg4LjQ5IDQyNS4xOGMxNS4zMjQgNi4zODcyIDM2LjQ5NSA0LjUxNDYgNjUuODQ4LTEwLjYxMyA0LjM2NTMtMy4xMDQzIDguNDMxMS0xLjI0ODUgMC42MTkzNyAzLjg1NzctMzguNDk5IDM0LjU0Ny01Ni45MjcgMTcuMjY1LTY2LjQ2NyA2Ljc1NTJ6Ii8+JiN4YTsgICA8cGF0aCBkPSJtODU3LjI4IDQxMC4wNGM0LjU1MjMgOC43MTY1IDEuNzk0MiAxNS44MDUgMC4yNjU2OCAyMy4xNjctNC43NTM0IDM3LjQ0OS0xNi40MjMgNjcuMDU2LTM5LjMyMSA5Ny45OTQtNzQuNDc4IDExOS43NC0xNDkuNjcgNDQuODE3LTIwOS42Mi0zLjk0NTVsLTI0Ljc5OCA2Mi4xMzdjLTEuMzE2MiA1LjQ0NjQtNi43OTAzIDkuNjg4IDMxLjkzNyAyNi43MzhsMzkuNDUyLTI3Ljg2N2MxNTAuNDYgMTE0LjQ4IDI1Ny4wOC0xNjAuMjQgMjAyLjA4LTE3OC4yMnoiLz4mI3hhOyAgIDxwYXRoIGQ9Im02MjYuNzUgNTE3LjA0Yy0xMC4xNTEgMC43MjQ0Mi00MC4zNjEgMTAuOTk3LTQxLjcwNiAxNi45NDZsMTMuOTAyLTIwLjcxMnoiLz4mI3hhOyAgIDxwYXRoIGQ9Im02MDcuMDEgMzkwLjA3YzEuODU5OCAwIDEwLjc4OCAyLjM5NzEgOS44MzAyIDEuODY0LTEuMzY5OC0wLjc2MjU2LTAuMTUyNzIgMTIuNTE5IDIuNjU2OCAxOS40MzlsLTEwLjg5MyAyMy43YzIwLjg2NS0yNC4wNjMgNTMuODU4LTIyLjQ2MiA4NC40ODYtMjUuNTY0bC0xNC42MTItOS4wNTM3YzIuNTM4NC04LjQ2NjQtMC40NTA1OS0xNS4xNjUtMS44NTk4LTIyLjM2OHoiLz4mI3hhOyAgIDxwYXRoIGQ9Im02NTguMjggMzE4LjcxYy0yMi4zODcgNi44NjMyLTQzLjgxNiAxOC4wNzUtNTguMjAzIDQxLjk3NiAxMC45NzYtMzkuMzk1IDEzLjIxMy0zNy44OTkgMTYuNzU3LTM5Ljg0NiAxNS4zNTEtNi44NjUxIDI3LjkyMi0yLjU4NjQgNDEuNDQ2LTIuMTMwM3oiLz4mI3hhOyAgPC9nPiYjeGE7ICA8ZyB0cmFuc2Zvcm09InRyYW5zbGF0ZSgtLjUzMjY4IDY2LjgpIiBmaWxsPSIjZmNmNmEwIj4mI3hhOyAgIDxwYXRoIGQ9Im01MzguNzMgNzgwLjQ1Yy0yNy4wNyAyOS44Ny04Ny40Ny0yLjI2LTEzNy42My0xOC42NC0xMjcuNDYtODEuMDUtMTUyLjM2LTE1Ny4zNS0xNTQuMDktMjMyLjItNi41NTM1LTEwNy4yMiAyNi4zNy0xNjkuNTIgNjguMDE0LTE4NC4yNy0yNy41NjEgNTMuMTI5LTQwLjQxIDE0OC41LTI3LjYzMSAyMTkuNDIgMTAuMzE1IDM5LjQ1NSAxMC41MjkgMTA2IDc2LjU0NSAxNDEuNjIgMzIuMzI3IDE4LjE5OSAyMy41NzEgMzIuMzY4IDQ1LjQzMSA0OS40MTMgMjMuOTU1IDE4LjY3OSA5MC43NDcgMzYuNDM3IDEyOS4zNiAyNC42NTh6Ii8+JiN4YTsgICA8cGF0aCBkPSJtNTc5LjE3IDI4NC45NGMtNDUuODMxLTY0Ljk5MS0xMTAuMjktODkuMzg3LTE4Mi45OC05Mi4wNTMgMTQuNTY4LTQuNzQ4OCAyOS4xMzYtNy4yMjE2IDQzLjcwNC0xNC4yNDYgMy41Njc1LTMuNzQ4NCAyLjQwMTItMTAuMzQ0IDEuMDYyNy0xNy4wNDItNjkuOTctMTguMjctMTE0LjEzLTQwLjg1LTE3MC4wMy02MS43ODFsMTUwLjkxIDM2LjIxNWMxMDEuOTEgMy44NzI0IDkzLjE1OCAyOS4wMzIgMTU3LjM0IDE0OC45MXoiLz4mI3hhOyAgIDxwYXRoIGQ9Im02MjguMjQgMjUzLjZjLTMzLjg3LTQ4LjM1LTY2LjcyLTEwNy4wMy0xMTEuMzEtMTQ0LjM1LTEwNy42NC00OC41ODQtMjE0LjEyLTg0LjY2Ni0zMzguOTEtMTE3LjVsMzkuODI3LTUxLjIxNmMxMzIuNDIgMzAuMjI3IDI1Ni44IDgwLjgwOCAzNjguMjEgMTY0LjE5IDE4Ljg0OSA0Ny42NiAzMS40MTkgOTUuMzgzIDQyLjE3MyAxNDguODd6Ii8+JiN4YTsgICA8cGF0aCBkPSJtNjk2LjUyIDE2OC4xNnMtMTguOTg4LTQyLjU5OS0yOC4yMzMtNTguODY2Yy0yMS40NDYtMjMuNzY2LTMyLjI5LTY4LjA1NC03Ni4yMTMtODguOTIyIDEzLjg5MiAzLjc1MTUgMjMuMzk5LTAuNzE4MyA1MS43NTkgMjQuOTkybDQ0LjY2OSA4NC43MzR6Ii8+JiN4YTsgICA8cGF0aCBkPSJtNzIwLjE0IDI0MS45NmM0LjM3OTItMzYuOTA4IDEyLjY5NS05Ni4xMSAzLjE1MTctMTE5LjUtMjYuNTUtMzUuNjI0LTUzLjI5LTcyLjQ0Ni04MC4wNC0xMDYuNjMtNC40My00LjEyMy03LjYyLTkuNzE4Ni0xMS4xMS0xNC4wODQgMzcuNjEgOS43NDQgNzYuODYgMzUuODk0IDEyOS43OSAxMzkuMTN6Ii8+JiN4YTsgIDwvZz4mI3hhOyAgPGcgdHJhbnNmb3JtPSJ0cmFuc2xhdGUoLS41MzI2OCA2Ni44KSI+JiN4YTsgICA8cGF0aCBkPSJtNTYyLjAyIDI0Ni4zMmMtMTQuOTgtMTEuNzktMjguMzMtNTMuNDktNTEuMDMtNjIuMTYtMjEuMDExLTEuNzU3Ny0yOC43MTUtOC4zNjgyLTU2LjM0NC0yLjczODYgMTAuMDIxLTUuMDIxMyAxOS40ODItMTEuNDQ2IDMwLjEzNC0xNC44ODUgNy4yMTUyLTEuNzAzMiAxMy45ODMgMC4xODM4MiAyMC44NjcgMS4xMzM0IDEuNjk5OS0wLjgwMzU3IDIuODEzOS0xLjgwMjkgMi4zOTgzLTMuMzEzMy0yNy44MTItMTcuMTg3LTg0Ljg2Ni0xNy40MzItMTIzLjM4LTI3LjI0MyA0NC42OTkgMS40OTYyIDk0LjE1Ni0wLjk4MTUgMTI3Ljc1IDkuNzkxMiAyNy4wMTMgMjMuOTczIDM1Ljc4OCA2OS4xMTkgNDkuNjA1IDk5LjQxNXoiLz4mI3hhOyAgIDxwYXRoIGQ9Im02NDMuOTMgNDUuMjI3YzYuMjAxMSAwLjU2MzM2IDM5LjU3NCA1My4zNTMgNDEuMTQyIDYyLjEzNyAyLjc3NTEgMTkuMjAyIDkuNjE5NiA0MC43MjggMTEuNDYgNjAuODE5LTUuNDk2OC0xOS4yNjktMTEuNDg2LTM4LjUzNy0xOC45NzQtNTcuODA2LTIuMTg5OC01LjMwNjItNy43MjQxLTE3LjMwMi0yMy4xMDctMzQuMjY5LTcuMTYyOC0xMS45NTktOC43MDkyLTIxLjM1OS0xMC41Mi0zMC44OHoiLz4mI3hhOyAgIDxwYXRoIGQ9Im03NTcuMDIgMzMyLjc1aC0xNC4yNzhsMTUuNzgxIDQuMTQyNHoiLz4mI3hhOyAgIDxwYXRoIGQ9Im02NTkuNiAzMTguNDljLTE0LjM1OC0xLjc2NTEtMjkuMDkxLTEuOTk5MS00My40NDggMS4xNTY1LTUuODUyMiA3Ljg2MDgtNi4yNTU0IDE1Ljg1Ni04LjgxMyAyMy4yNDUgMTcuNDU0LTE5LjIzNiAyNC4zOC0yMC40MTIgNTIuMjYxLTI0LjQwMXoiLz4mI3hhOyAgIDxwYXRoIGQ9Im04NTUuNDIgNDE3Ljc3Yy03Ljk5IDYuMzc3MS04Ljc4ODQgMTIuMzc5LTMyLjQxMyAxOS41NzItMTcuMjI4IDQuMDc0LTI2Ljk2MS0yLjgzMTQtMzUuMDctMTIuMTE2IDEyLjI5NCAzLjUyMTcgMTQuMjU5IDEyLjgxIDQ3LjIyNSAyLjM5NjZ6Ii8+JiN4YTsgICA8cGF0aCBkPSJtNzgzLjgyIDQyMS43NmMtNS43NTA0IDE1LjgxMi0xMS45NDkgMzEuNzkxLTE4LjE5OSA0Ni42LTE0Ljg4MyAxNy40NTQtOC41NDAyIDcuNTA3OS0zMC44MTkgMzQuNjE3IDcuMTI4NS0xMC45OTggMTYuNC0yMS41NjYgMjEuMjU0LTMzLjAyIDMuNDA5MS03LjU0MjIgNy42NTMyLTE1LjU0MyA5LjUzMjMtMjIuMjQ0LTUuOTA3NC0yLjk1LTE3Ljk5OS0zLjE4MzQtMTkuNjM5LTIuMTI0Ny0xOS44MDggMTEuNjgzLTIzLjM4MiAyNC4wNDctMzUuMDU5IDM2LjA4NiA4LjQ2MzctMTMuNTMgMTUuNjkzLTI4LjI5OCAyNS41MDUtNDAuNDc2IDEuMTE4MS0xLjU4MDYgOC4zODI2LTEuODg2MyAxMi44NDktMi44MTg5LTYuOTQwNC0xLjE5MDgtMTkuNzg2LTMuNjg0OC0yMC44Mi0zLjU3Mi0xMi45MjIgMy4xMDUzLTIwLjE2MyAxNC4zNjEtMjkuNzU2IDIxLjgzNiA2Ljk5MzktMTAuMDk4IDEzLjQzNi0yMC42MTIgMjIuMzE3LTI5LjI5MiAwLjg3ODUtMS4wMjA4IDI0Ljg4MyAxLjA4MjIgMzcuMzI0IDYuMDQ2NmwwLjI0NjggNC45NDkxIDcuMDYzMyAyLjg1MTIgNS4zMTM2LTEzLjMxNHoiLz4mI3hhOyAgIDxwYXRoIGQ9Im02MjcuMDcgNTE3LjA5Yy0zLjE4ODItMS4wODk1LTMxLjM1LTQuNzExMi0zMS4zNS0zLjg2MTEtMTAuODEzIDcuNjk1Ny0xMi40NTMgMTUuMDU5LTEyLjIyMSAyMS40MzYgMTcuOTg5LTE3LjY5NyAxNy4zMTktMTcuNzQ3IDQzLjU3Mi0xNy41NzV6Ii8+JiN4YTsgICA8cGF0aCBkPSJtNjA1LjY4IDM4OS44MXMyMC4zMjItMi45NjI2IDE5LjkyNi0xLjA2NTJjLTEuNDcyMiA3LjA1MDQgMi40ODc2IDI0LjIzMyAyLjkyMjUgMjEuODM2bC0xMS40MjQgOS4zMmMyMy45MjYtMTIuMDI5IDQ5LjExMy05LjYxMTcgNzQuNjU2LTExLjQ1IDAgMC0yMS41MDctNS45MzgxLTIwLjE5Mi02LjEyNDYgNC43OTc3LTAuNjgwMy0xLjI3NzItMjIuNDMtMi45MjI1LTIyLjkwMSA0LjA5MTUtMS4zODQ3IDguMDg3My0yLjQyODUgMTIuMjIxLTMuNDYxNy0zMC43NTYtOC4wNDgzLTQ4LjU0MS0zLjMwNTktNzUuMTg4IDEzLjg0N3oiLz4mI3hhOyAgIDxwYXRoIGQ9Im03ODEuNTYgNDA0Ljk4LTQuNTE2NiAyLjI2MzRjLTAuNjQwOC0xMy4yMzEtMTQuODUxLTEyLjI2LTI2LjgzNC0xMi4zODJsLTkuODMwMi0yLjM5NjZjMi45ODg5IDIuNzY2NCAxMi4yMjkgMi41NDk1IDguNTAxOCA4LjUyMTItMy4xMzY3IDEuNjc2NS00LjU3OTggOC44Ny02LjM3NjMgMTQuOTEybC01LjMxMzYgMC4yNjYyOGM5LjM4NjcgMy42Njg0IDE4LjA5NSA2Ljg4MzYgMjguNDI4IDExLjE4NGw2LjExMDYgMC45MzIgMTQuNjEyLTcuODU1NXoiLz4mI3hhOyAgPC9nPiYjeGE7ICA8ZyB0cmFuc2Zvcm09InRyYW5zbGF0ZSgtLjUzMjY4IDY2LjgpIiBmaWxsPSIjZmZmIj4mI3hhOyAgIDxwYXRoIGQ9Im02NDYuODYgMzk2LjA2Yy0yLjI4NzItNC41MjQ4LTEzLjc5NC0zLjg4MjQtMTYuMjc1LTAuOTU0ODQtMi4wMTU4IDIuMzc4OC0wLjEyNTE0IDE3LjY0MiAyLjQ1OTUgMTUuMDY4IDMuNzM2OC0zLjI4NDkgOC42MTc2LTQuNjU4OCAxNC40OC00LjM5MzggMC43MzkwNC0yLjgyIDAuNDc3NDItNS44NjQ4LTAuNjY0MjEtOS43MTk0eiIvPiYjeGE7ICAgPHBhdGggZD0ibTc1Ny4yMSA0MTguOGMxLjA4MTYtMC43OTExMyAzLjM2ODktOC40NDM0IDIuNjMwMS0xMC43MzMtMS41MTE3LTUuNDAzMi0xMi4yMTItNC4yNjU5LTEyLjIxMi00LjI2NTktMi42MTA4IDEuNTM2My00Ljg5ODkgOS45NTk2LTMuOTQ0OCAxMi43MzkgMC40NTU0MyAyLjM1MjYgMTEuODA5IDMuMTAyNSAxMy41MjYgMi4yNTk1eiIvPiYjeGE7ICA8L2c+JiN4YTsgIDxnIHRyYW5zZm9ybT0idHJhbnNsYXRlKC0uNTMyNjggNjYuOCkiPiYjeGE7ICAgPHBhdGggZD0ibTI5OS42NCA2ODIuODQgNi43NTk2IDAuNjYxMTJjNDAuMDcxIDE5LjY3NSAxMDYuMDUgNDguODQ3IDIwMS41NyAzMy4xNzFsMTQuOTg4IDIzLjU4NGMtNDIuMDY3IDIwLjQ0Mi04Ny4zMTIgMTUuNzM4LTEyOS43MSAxNy4xNzJ6Ii8+JiN4YTsgICA8cGF0aCBkPSJtMjQyLjExIDUyNy4zIDIwLjA3MyA4NC4yNjhjNTMuNzQgMzMuNTkzIDE0NS41NCA3Mi4wNyAyMjIuMDYgNjguOTY1bC0xNi45MS0zOC44Yy0xNTkuNzMtMzMuOTItMTczLjI0LTc2LjgtMjI1LjIyLTExNC40NHoiLz4mI3hhOyAgIDxwYXRoIGQ9Im0yOTIuMDYgMzU0LjY5YzkuODEwNiA2NS4zMDIgMjIuOTA3IDExNC44MSA3OS42OSAxNTYuMjggMzQuODA0IDI1LjAzIDY5LjM1MSA0OS45NTQgMTExLjM3IDcwLjUyNCAwIDAtMy42ODM2IDE5LjE3MS02Ljc2MzEgMTguODI5LTEyNS4wNS0xMy44OS0yMTYuNi0xMTcuNTgtMjI3LjY5LTE2NC45NCAxMC43NDEtMzYuMzI5IDI2LjE0OS01OS4wMjEgNDMuMzg5LTgwLjY5M3oiLz4mI3hhOyAgIDxwYXRoIGQ9Im0zNTIuMTcgMzE3LjY5YzE2LjY2NCA3Mi4zNzYgNTYuMzk3IDE0NS42OCA5NS44ODkgMjEyLjE4IDE0LjQ3NyAxOC4zNjkgMTguMjY2IDI2LjQ3NSA0MC41NzkgMzcuNjU5IDMwLjE1OSA5LjU0OTIgNTEuNDg2IDcuMTExOSA3My4zNzcgNS42NzU2LTUuOTk4Mi0xMS4xMDItMTEuMzI5LTIyLjcwNi0xOC4yMTctMzMuMTQtNDkuMDE4LTM4Ljc2NS0yNi4zNjQtNzQuMDYtMTMuMzQ0LTk2LjQwNi0yNy4yNTYtNi44ODctNjMuMzctMjEuNTI1LTY4LjM0NS00MC43NzgtNy45OTkyLTYyLjI3MS0zLjkzNzMtODIuMDI1IDQuMDY4NS0xMTQuMDEtMzYuOTA5IDcuNzgyMi03NC4zMDkgMTUuNDk0LTExNC4wMSAyOC44MnoiLz4mI3hhOyAgIDxwYXRoIHN0cm9rZS13aWR0aD0iLjExMzk3IiBzdHJva2U9IiMwMDAiIGQ9Im0yMTYuNzctNjYuNzQyYy0xMi4xMzEgNy45MjQ4LTIzLjgxOCAxOS4yNTYtMzYuMzkxIDMyLjEzNS0yMC44NDMgMjEuNTc1LTM0LjY5OSA0Mi42MjEtNTUuOTE1IDU4LjIyNC00LjI0MzIgMy42NTg4LTE2LjE1MSA5LjU1MTEtMzEuMTIxIDEwLjQyNS03LjA1MiAwLjM1Mi0xMS42NDYgMS41MTktMjQuNjA0LTAuMTA4LTExLjQyOC02LjE4OC0yMi4yODUtMi4xNjQtMzIuODgxIDEwLjUxLTExLjYxOSAxNi43MDktMjYuMzM0IDQ4LjQzNy0zMi40NTMgNjguNDEtMTIuNjExIDUwLjkzNyAxOS41NDEgOTIuOTA1IDUwLjM3NCAxMjUuMjUgMjcuNDI5IDI2Ljc5NiA0My4yNDMgNDMuNTQyIDU0LjUwNSA2OC4xMDcgOC41MjcgMTUuOTMzIDE0Ljg0NCAzNy43OTkgMjEuNjgzIDUzLjEzIDIuNDY2MSA0Ljg2MDUgMS45NTM0IDQuODM1MiA4LjU5MTMgNi4zIDE0LjMzMyAzLjA1ODggMzQuMjE1IDMuMDgyOCA1MS45MTUgNC42MDQxIDcuNjU4MyAwLjEwNjkxIDE4LjE3NS0wLjE3ODEzIDI4LjE0LTEuMjE2OCAxMy43MzEtMi41OTI4IDI5Ljg2My01LjEzMzMgNDMuMzg0LTkuODA5OCAxMy4yMTMtMy4yNTM1IDI0Ljk4NS03Ljc1OTIgMzUuNTk3LTExLjkwNy0xLjM2ODYgNC42NDQyLTExLjQ3OCA5LjExNTMtMTUuMjY4IDE1LjAwMi0zNS45NyA1MS40OS00NS44MjMgOTcuMzA4LTM5LjU2MSAxNjkuNiAzLjU0MjUgMzIuMDQyIDEwLjg5NiA1OC42MDUgMjEuOTkyIDg4Ljk5NyA1LjA3NzUgMTMuOTA4IDE1Ljg4MiAzNS45MzQgMjYuMjM2IDUwLjU2NSAzMC43OSA0My41MDYgOTkuNjcyIDk5LjM3NCAxOTUuNTYgMTIwLjg4IDE2LjcyOSAyLjI4NjYgMzUuNzE1IDEuMDY3IDUzLjU3MS0zLjY4ODIgNDcuMzI2LTE0LjM0NiAxNDMuNzgtNDguMjc1IDE0My43OC00OC4yNzVzLTg1LjYxOSA3LjA4MjgtMTI0LjgzIDMuMjA1OGMtOS4wNzc4LTEuNDE5NS0xOS4wODEtMS45MDExLTI1LjQwNS04LjA4NzItMS4wNjA4LTEuMzY5NC00LjkxNDQtOS4xMzE4LTIuNDI1OC05LjIwMTUgMy4zOTUyLTAuMDk1IDEzLjE0Mi00LjE0IDI4LjE5MS01LjQ4MjEtMzIuMTI5LTMuNDU5MS0zMS42NzEtMy40MTgtMzQuMDE2LTkuMjcwNi0zLjY0NzEtOS4wODQ3LTkuMjI5Mi0yMS41MDItMTQuOTc3LTMyLjM2NyAxNC4xMTggMS4xOTExIDQ1LjM3NiAyLjk0NTUgNTUuOTg0LTguMDAyNSAwIDAtMTguNDk3IDIuMTM1Ni0zNC44NDMgMC4yMTg0LTUuNTA3Mi0wLjY0NTk1LTE0Ljg5MS0zLjk5NDYtMTcuNzEtNS4wMjk3LTcuMzM4My0yLjg1OC0xMy4zOC0zLjc0NTYtMTQuNzg4LTUuNjA5MS0yLjU0ODMtNi40ODU2LTQuMjc1MS04LjY2NzItNy4zNTA2LTE3LjM1Ni00LjE2NTktMTEuNTA0LTQuNDk2NC0yNC4zMzctNS4yODk1LTM2LjA4MyAxMC42OTMgMTMuMTggMjQuMzE4IDI0LjI3NSA0Mi4zNTYgMjkuOTQxIDAuMjMxNDEtMC40ODc3NiAyMy40IDEwLjA3MiA0MC4yMjYgNC42NDJsMy40ODg2LTEuMTI1NGMwIDAuMzExMzQtMTEuMTQ4IDAuOTc2Ny0xNS4yMzctMS4wNDc0LTM0LjIxOS0xNC41NDUtMzkuMzctMjcuMjc2LTQ0Ljg5NS0zMy41OTlsLTE0Ljc3Ny0yMi4xMzNjNC40OTQzLTguOTYwOCA3LjAzNTEtOS4zMDEzIDEyLjk4OS05LjM4NDIgMTguMDExIDIuMDAwNiAyNS44NDggMy41Mzk5IDM2LjgwNyAwLjg5NTg3IDcuNDA1MyAxNS4yNCA5LjQwNjIgMzAuNTcxIDI2LjI2NSA0MS42NjIgNTYuMTY2IDE2LjY3MiA2OC4zNjktNC45NTEgODEuOTczLTI0LjA1NyA0MC40MTIgMjkuNjU4IDEwNi4yIDM4LjgwMyAxNTEuODkgMC41MTQ3OCA1OC4wODYtNjcuMjEyIDc2LjQ3Ni0xNzMuMTcgNzEuMzI1LTE3OS4yMi03LjI1NDQtMTIuMzA3LTE2Ljc3Mi0yNC45OTktMjQuOTQ1LTIzLjI0NS0yOS4xMyA3Ljk1Mi0zOS44NzEgMjIuNzMtNjguNzM1IDE5LjM1OSAzLjQzNzctMC4xOTQzMSA5LjIxODctMC4yODczNCA5LjI2MjgtMC42MTUwOCAyLjIyMzgtMjQuNDQxLTAuMTc4ODMtMzYuMjY3LTEuMjUxOC0zOC4yOTctOC43NTktMTkuMzE3LTIwLjI2MS0zOS42NDYtMjguMjc4LTU0Ljg4MS0yLjA2NjgtMy4xNjA3LTguMTM2Ny0yNy4xNjUtMTguMzA4LTM2LjY0OC00LjM2MjMtMy43MjQ1LTE1LjAzOS0xMy41NDYtMTUuMDM5LTEzLjU0NmwtMC45MDQ4NCAxMC40MzlzNC4xNzM5IDAuNjMwMzIgNS43NjI0IDcuMDk3M2M2LjAyMjIgMjQuNTE3IDM2LjY4NyA4Mi40ODUgMzguOTM4IDg1LjI2MyAxMC44NjggMTcuNTQ1IDEuMTA0NSAzOS40MDEgOS4zNjczIDUxLjY2MyAwLjc5MzggMS41NTc4IDE2Ljg1Ny0wLjEzNjUgMjkuMzA3IDAuNjI4NDUgMjAuNDczLTQuNDAzNCAxOS42MDktMTMuNDI2IDM3LjI5NC0xNC43ODIgMTEuOTEzLTAuOTEzNDcgMTMuMTA4IDIxLjQ2IDEyLjk1MSAyMy4xOTYtMi4yMiAyNC43MDQtOS43MzUgNTMuNDI3LTIxLjIzNiA3OS42NTgtMjMuOTEyIDQ2LjA2OS01MC42OTEgODcuNDQ2LTg4LjY3IDkzLjIxNi00Ni4zMjYgOC4wOTUyLTcwLjM5OS0xMi4xNTgtOTUuNTEyLTI1LjA1NWwtOS42MDY4IDguMTkzNGMtMzIuNjM3IDMyLjUwMS03MS4zODkgMjkuNjE0LTg3LjIzOS0xMi44NTEtNy44OTAxLTE2LjQ3My0xOC4xNzItMjYuNTY5LTI2Ljk3Ni00MC43bC00Ni42ODggMzMuNjI3Yy0zLjg4NjUgNy45NzA4LTguNjY1MiAyMC41NC0xNC40NyAzNC41OC00LjAzNTcgOS43NjEtNy40MTk5IDI2LjUyNS03LjE5OTUgNDAuNDU2LTUuOTg0NyAxMC4xOTUgMjAuNzI5IDUxLjU0MiAzNy42MDkgNzYuNjkyIDQuOTgxMSA3LjQyMTIgMTQuMjc5IDIwLjM4NSAxNC41OSAyMS4xOTMgMy4zNDc2IDguNjgzMSAxMC42NzkgMTYuMzQ5IDExLjEyNCAxNy4yODQgMzEuMzM3IDQwLjg3Mi0zOS41MzEgMzEuNDYtNTQuMTY3IDI4Ljk5MS0yOC44NzYtNC42MDEtNTcuMTIxLTE2LjY2My04My42Ny0zMi43OTItMS41NDA2LTAuOTM2MDEtMy4wNzU3LTEuODg1My00LjYwNDctMi44NDgtMzEuNTUxLTE5Ljg2Ni02MC41ODEtNDUuMjgzLTg1LjI2NC03MC40MjMtMTQuNzE4LTE2LjY2Ni0yOC43MzItNTAuODI3LTM5LjA4My03NS4wNDUtMTUuNTEzLTU4LjIyNi0zNy43NzYtMTU5LjE1IDIyLjUzMi0yMzUuNjMgMy44MjI4LTQuMzcxNyA3Ljk0NzgtMTEuNjUgMTEuNDYtMTMuMDkgMTcuOTE4LTEyLjExOSAzNy4zNzUtMjAuMzc5IDU4LjI5OC0yNC45NjZsLTIuMTEyMi0xMy41NjNjLTEwLjQ0OSAyLjM3NDEtNDUuNjMzIDE1LjI0My01NS41ODEgMjAuNjI5LTIyLjYyMyA2LjU1ODItNDEuMzg4IDEzLjQwNi03MC4yMiAyMC42MjUtOS4zNzI0IDEuMTQ2OC0xOC41OTIgMS4xNjc0LTI3LjU3OS0wLjA1MzUtMjAuNzQxLTIuODE3OC01Ni4wOTQtMC4zMDA3LTU4LjM0OS0yLjM5NTYtMTQuMDQ0LTE5LjU4NS0xNy44ODktNTQuNjc2LTMwLjcwMy03My40NTZsLTAuMTUxMi0wLjE4NzItMC4xNjIzMS0wLjE3ODI3Yy03LjQ3LTEwLjA0LTE2LjE3Ny0xOC4yMy0yNC43NTItMjYuNzUtMzAuNzA4LTMwLjUxLTU2Ljk5MS02MC4wMS02NC4zNDgtOTEuMjctMS44NS05LjIzLTYuNjE0LTE4Ljc5LTQuMDgyLTQ2LjFsMC4wNDY2OS0wLjEzMzcgMC4wNDQ0Ny0wLjEzMzcxYzcuMzg4LTI1LjUxMyAxOS40MDctNDYuMzEgMzkuODA2LTY3LjE1MyAyMS4yMjggMC4zNDI2NyA0Mi4yNCAwLjgwOSA1OC42MDcgMy45MzU1IDcuNTA4OSAxLjI1NjIgMjMuMTI0IDMuMjk1OSAzOS4yNTIgOS4zMDQgNDAuODIyIDE1LjIwNyA5NC43NiA0MC4yMDkgOTQuNzYgNDAuMjA5LTQwLjQ4OC0yMi4yMzYtODUuNzYxLTUxLjExNS0xMTQuMzUtNTYuOTQzLTQuMjUzNi0wLjYwMjE3LTYuODY3OS0yLjU0MjYtOC4xMzExLTUuOTMgNDIuOTk5LTI1LjI2NCA1MC44NjUtNTUuMDA5IDc5LjE0Ny04MS42ODYgMTIuOTI1LTUuNjI2MiAxNy45NjUtOC40OTg0IDI4Ljk0Ny05LjY5MTcgMTAxLjU3IDE2LjA2IDE2NS41MSA1Ni41MTUgMjE2LjA5IDgzLjU2NiAyMC41MjkgMTEuMTY0IDM5LjE5MSAxOS42MDYgNTcuMDE1IDI5Ljc3MyAxNS42MjQgNS4xMzkxIDYyLjc3MSA0MC43MzQgNzYuNTY5IDU5LjkyNSAxNC4wMTcgMjkuNTk1IDI0LjI1MSA2MS41NjMgMzMuNTg1IDkyLjQxMSA2LjY5MzEgMzEuMzc1IDEyLjU2NCA0NC4xMDIgMTIuNTY0IDQ0LjEwMnMtNS42ODgzLTI2LjI0My00Ljc0MDMtMzAuOTU4YzUuODk3NiAyLjIwMzggMTkuODQxIDYuNTU3NCAyNS42MjEgNS44ODEgMCAwLTI1LjgxOC0xMy4zNDYtMjkuMjAxLTI1LjE0MS0xMC44NTYtMzcuODQ3LTIxLjc0NC05Ni43NjUtMjQuNjgtOTkuODM3LTguMjc0LTEwLjQxMS00Mi43NzctMzYuODE2LTYzLjk0MS00OS4wMy04LjAwNi00LjYyMDUtMTIuMzMzLTcuNDg2NS0xMi42NzEtOS41MTc5IDYuNzYxLTYuODMgMTUuMTExLTE1Ljg2NSAyMi41OTgtMjEuNjA2IDcuMTc2Ni01LjUwMzEgMTMuNzExLTExLjcwOSAyMy43MTMtMTUuNDIzIDQzLjk2My0xOS44IDY5LjEwMSA3LjYxNzYgNzUuMDY2IDIuMDY1NiAwIDAtOS40NTgtMTAuODQxLTUuMjU3LTkuMDU2NCA0LjMwMjEgMi4zMzAzIDE4LjMyMyA1LjA3ODQgMTkuODYyIDYuNTA5NCAxNi4wMjMgMTIuNTM0IDU3LjkxMyA1OC4zNDQgODMuMTYxIDEwNi42OCA2LjA2MzkgMTEuODQgOC41Mjg4IDE5LjYzNiA1LjcxNjQgMzMuODkzLTIuODE5OSAxNC4yNy01LjAwMTcgMjIuMTE3LTguMDc3NyAzMS42NDctMi43Nzg0IDYuMzcxLTE4LjQ5OCA0OS45ODgtMTguNDM3IDU1Ljg0OC0zLjE2NjYgMjMuOTMyIDEwLjI2NCA1My44OTMgMTAuMjY0IDUzLjg5MyAwLjEyNzAzLTguMTMyNi0wLjUwMDMtMTIuNDY2IDAuMjM2NzctMTguMjgybDAuOTA0MDQtMTAuMzkzcy0wLjU3My0yLjc2NDQtMC40NjkwMi0zLjg2YzAuNjgyMS03LjE4NjcgMi40NDUtMTMuMjI5IDIuOTYyNS0xNy4zNDUgNS4wNDc2LTMxLjI1NSAxMy44MjItNTMuNzU1IDIzLjc3NS04MS4xODIgMi45NTc4LTYuOTIxNiA2LjgyNzctMTAuNzcxIDYuNjMwMy0xNi4wNDEgMC4xNjI3NC05LjM1MTgtOC4yMDQ4LTIxLjkwNC0xNC4yNTItMzQuMTYzLTYuMS0xMi4zOS0xMy4zOS0yNi4yMDItMjIuOTYtNDAuNzYtMjEuODItMzEuMzc2LTQwLjQyLTU1LjkyNS03NC40OC03MS4yODktOS41My00LjE4MjEtNDcuMDMtOC4yNzA5LTU5Ljk4LTUuODQxMy0xNS43MSAzLjI3MjktMjkuMjIgNi41MDA0LTM5Ljk5IDEzLjM5OC0xNi45NSAxMC44NTQtMzAuMjcgMjcuNjU5LTQ1Ljg5IDM3LjU2MS0zNC41Ni0xNy4yODItNTEuMjQtMzAuMjE2LTU0LjM1LTMxLjk5OS0yMC41NC0xMS4wMDYtNDUuMi0yMy43NzgtNzEuNzMtMzUuODktMTIuNzItMTEuODYyLTkxLjcxLTQwLjIzMy0xNjQuMDQtNDUuODkyem00NDIuMDggNjQ0LjU5Yy0yMS4zLTE2LjY1LTM5LjIzLTMzLjc5LTUxLjA1LTUxLjQ0LTMuODU4MiAyMC43NTgtMTcuODY0IDM1LjU0Mi0yOC42ODggNTAuMDgzLTIuMTU0NiAzLjQxMDQtMy43MDc4IDguMDYwNCA2LjkwMjIgMjIuODc5IDIuODU5OCAzLjk0OCAxMy4yMDcgNC42MjI3IDIwLjE5MiA0LjI2MDYtNy4xMDY1LTUuMzcxOS0xNy45MTgtMTEuMDUzLTE5LjY2LTE1Ljk3NyAxMi41MDEgOC41MTA5IDI0LjA3NiAxMC45NTcgMzQuNTM4IDkuNTg2MyAyLjM5MDMtMC4yNjg2NyA1LjM2LTIuODAzNyA3LjY1NTMtNi43MDU4IDQuNjYzNy0xMC4wMiA4LjMxNTUtMTIuNDMzIDEyLjAwNS0xNS4xM2w4LjUwMTggMTAuNjUxeiIgc3R5bGU9ImNvbG9yLXJlbmRlcmluZzphdXRvO3RleHQtZGVjb3JhdGlvbi1jb2xvcjojMDAwMDAwO2NvbG9yOiMwMDAwMDA7aXNvbGF0aW9uOmF1dG87bWl4LWJsZW5kLW1vZGU6bm9ybWFsO3NoYXBlLXJlbmRlcmluZzphdXRvO3NvbGlkLWNvbG9yOiMwMDAwMDA7YmxvY2stcHJvZ3Jlc3Npb246dGI7dGV4dC1kZWNvcmF0aW9uLWxpbmU6bm9uZTtpbWFnZS1yZW5kZXJpbmc6YXV0bzt3aGl0ZS1zcGFjZTpub3JtYWw7dGV4dC1pbmRlbnQ6MDt0ZXh0LXRyYW5zZm9ybTpub25lO3RleHQtZGVjb3JhdGlvbi1zdHlsZTpzb2xpZCIvPiYjeGE7ICA8L2c+JiN4YTsgPC9nPiYjeGE7PC9zdmc+;" parent="YGv0oLC9iXFQOewAsgv_-190" vertex="1">
          <mxGeometry x="2247.92" y="488" width="76.15" height="68.54" as="geometry" />
        </mxCell>
        <mxCell id="YGv0oLC9iXFQOewAsgv_-172" value="" style="rounded=1;whiteSpace=wrap;html=1;arcSize=11;fillColor=#f5f5f5;fontColor=#333333;strokeColor=#666666;" parent="YGv0oLC9iXFQOewAsgv_-190" vertex="1">
          <mxGeometry x="1883" y="440" width="232" height="378" as="geometry" />
        </mxCell>
        <mxCell id="YGv0oLC9iXFQOewAsgv_-175" value="Source Data" style="text;html=1;align=center;verticalAlign=middle;whiteSpace=wrap;rounded=0;fontSize=16;fontStyle=1" parent="YGv0oLC9iXFQOewAsgv_-190" vertex="1">
          <mxGeometry x="2230.5" y="444" width="111" height="28.78" as="geometry" />
        </mxCell>
        <mxCell id="YGv0oLC9iXFQOewAsgv_-176" value=".&lt;div style=&quot;font-size: 19px;&quot;&gt;.&lt;/div&gt;&lt;div style=&quot;font-size: 19px;&quot;&gt;.&lt;/div&gt;" style="text;html=1;align=center;verticalAlign=middle;whiteSpace=wrap;rounded=0;strokeWidth=5;fontSize=19;fontStyle=1" parent="YGv0oLC9iXFQOewAsgv_-190" vertex="1">
          <mxGeometry x="2253.99" y="722" width="60" height="30" as="geometry" />
        </mxCell>
        <mxCell id="YGv0oLC9iXFQOewAsgv_-183" style="edgeStyle=orthogonalEdgeStyle;rounded=0;orthogonalLoop=1;jettySize=auto;html=1;endArrow=block;endFill=1;" parent="YGv0oLC9iXFQOewAsgv_-190" source="YGv0oLC9iXFQOewAsgv_-177" target="YGv0oLC9iXFQOewAsgv_-44" edge="1">
          <mxGeometry relative="1" as="geometry" />
        </mxCell>
        <mxCell id="YGv0oLC9iXFQOewAsgv_-177" value="유저 별 L1/L2 게임 플레이&amp;nbsp;&lt;div&gt;정보 추출&lt;/div&gt;" style="rounded=1;whiteSpace=wrap;html=1;" parent="YGv0oLC9iXFQOewAsgv_-190" vertex="1">
          <mxGeometry x="1918.5" y="534" width="161" height="60" as="geometry" />
        </mxCell>
        <mxCell id="YGv0oLC9iXFQOewAsgv_-182" style="edgeStyle=orthogonalEdgeStyle;rounded=0;orthogonalLoop=1;jettySize=auto;html=1;endArrow=block;endFill=1;" parent="YGv0oLC9iXFQOewAsgv_-190" source="YGv0oLC9iXFQOewAsgv_-179" target="YGv0oLC9iXFQOewAsgv_-44" edge="1">
          <mxGeometry relative="1" as="geometry" />
        </mxCell>
        <mxCell id="YGv0oLC9iXFQOewAsgv_-179" value="유저 별 L1/L2 게임 구매 이력" style="rounded=1;whiteSpace=wrap;html=1;" parent="YGv0oLC9iXFQOewAsgv_-190" vertex="1">
          <mxGeometry x="1918.5" y="654" width="161" height="60" as="geometry" />
        </mxCell>
        <mxCell id="YGv0oLC9iXFQOewAsgv_-180" value="OP-Script" style="text;html=1;align=center;verticalAlign=middle;whiteSpace=wrap;rounded=0;fontSize=16;fontStyle=1" parent="YGv0oLC9iXFQOewAsgv_-190" vertex="1">
          <mxGeometry x="1883" y="446" width="111" height="28.78" as="geometry" />
        </mxCell>
        <mxCell id="YGv0oLC9iXFQOewAsgv_-187" value="데이터 조회" style="text;html=1;align=center;verticalAlign=middle;whiteSpace=wrap;rounded=0;" parent="YGv0oLC9iXFQOewAsgv_-190" vertex="1">
          <mxGeometry x="2124" y="600.2" width="86.5" height="30" as="geometry" />
        </mxCell>
        <mxCell id="YGv0oLC9iXFQOewAsgv_-188" value="유저 별 게임 플레이 점수 저장" style="text;html=1;align=center;verticalAlign=middle;whiteSpace=wrap;rounded=0;" parent="YGv0oLC9iXFQOewAsgv_-190" vertex="1">
          <mxGeometry x="1796.5" y="520" width="86.5" height="30" as="geometry" />
        </mxCell>
        <mxCell id="YGv0oLC9iXFQOewAsgv_-189" value="유저 별 게임 구매 이력 저장" style="text;html=1;align=center;verticalAlign=middle;whiteSpace=wrap;rounded=0;" parent="YGv0oLC9iXFQOewAsgv_-190" vertex="1">
          <mxGeometry x="1792" y="694" width="86.5" height="30" as="geometry" />
        </mxCell>
      </root>
    </mxGraphModel>
  </diagram>
</mxfile>
